<svg width="18" height="16" viewBox="0 0 18 16" fill="none" xmlns="http://www.w3.org/2000/svg">
<path d="M14.7837 2.0563H14.2471C14.2344 1.5525 14.0577 1.08274 13.7169 0.72177C13.3761 0.367658 12.9152 0.163384 12.4481 0.163384C11.4697 0.163384 10.6743 1.00762 10.649 2.06295H7.01309V1.94046C7.01309 1.42981 6.83006 0.939513 6.48289 0.558386C6.14205 0.19759 5.68749 0 5.21406 0C4.22293 0 3.41502 0.871427 3.41502 1.94046V2.05627H2.89101C1.29404 2.05627 0 3.45204 0 5.16774V12.8817C0 14.5976 1.29404 16 2.89101 16H14.7836C16.3744 16 17.6746 14.6042 17.6746 12.8817L17.6748 5.16774C17.6748 3.45204 16.3807 2.05627 14.7837 2.05627L14.7837 2.0563ZM12.044 2.09034C12.044 1.85204 12.227 1.66148 12.4479 1.66148C12.5553 1.66148 12.6625 1.7092 12.7383 1.78397C12.8141 1.86574 12.8582 1.97455 12.8582 2.09036V3.51332C12.8582 3.56773 12.8456 3.62229 12.8267 3.66986C12.8267 3.6767 12.8203 3.68354 12.8203 3.69023C12.8015 3.73795 12.7761 3.77868 12.7383 3.81956C12.6689 3.89449 12.5742 3.94205 12.467 3.94205H12.4417C12.4165 3.94205 12.385 3.92837 12.3597 3.92169C12.3282 3.91485 12.2966 3.90801 12.2714 3.88764C12.1451 3.80588 12.0505 3.62898 12.0505 3.43824L12.0503 2.80523V2.09032L12.044 2.09034ZM4.81608 1.94049C4.81608 1.70219 4.99912 1.50478 5.22004 1.50478C5.36517 1.50478 5.4662 1.58654 5.5041 1.62727C5.54835 1.67499 5.62401 1.78381 5.62401 1.9405V3.32257C5.62401 3.4247 5.59245 3.52683 5.5482 3.6086C5.5482 3.61544 5.54186 3.61544 5.54186 3.62228C5.52298 3.64948 5.50396 3.67668 5.47874 3.6972C5.45352 3.71757 5.4283 3.73809 5.40293 3.75161C5.39025 3.75845 5.37771 3.76529 5.37137 3.77197C5.32712 3.79234 5.28302 3.79918 5.23244 3.79918H5.2261C5.17565 3.79918 5.13141 3.7855 5.08717 3.76514C5.06857 3.75845 5.05603 3.75845 5.04968 3.75161C5.01812 3.73793 4.98656 3.71073 4.96134 3.68352C4.92978 3.64948 4.90456 3.61544 4.87934 3.57455C4.873 3.56771 4.86031 3.55419 4.85397 3.54051C4.82875 3.4861 4.81607 3.4247 4.81607 3.35662L4.81608 1.94049ZM16.2794 12.8888C16.2794 13.7807 15.6103 14.5025 14.7833 14.5025H2.89073C2.06376 14.5025 1.39461 13.7807 1.39461 12.8888L1.39475 5.16778C1.39475 4.27581 2.0639 3.55406 2.89087 3.55406H3.42742C3.42742 3.5881 3.4401 3.61531 3.4463 3.64935C3.45264 3.71744 3.46518 3.77868 3.48421 3.83993C3.49689 3.90118 3.51577 3.96926 3.54099 4.03051C3.55987 4.08492 3.58523 4.13948 3.61045 4.19388C3.63568 4.25513 3.66724 4.31638 3.6988 4.37094C3.73036 4.42535 3.76192 4.47307 3.79983 4.52079C3.83773 4.56851 3.86929 4.62292 3.91339 4.6638C3.95764 4.71821 4.00808 4.76593 4.05852 4.81366C4.08374 4.84086 4.10896 4.86806 4.13433 4.88858C4.14701 4.89542 4.15955 4.90226 4.17223 4.91579C4.25423 4.97703 4.33638 5.0316 4.43107 5.07916C4.45629 5.09284 4.48151 5.11321 4.50688 5.12689C4.62678 5.18129 4.74669 5.22218 4.87292 5.24938C4.89814 5.25622 4.92971 5.25622 4.96127 5.25622C5.04961 5.2699 5.13796 5.28342 5.22645 5.28342C5.23913 5.28342 5.25167 5.27658 5.26435 5.27658C5.3086 5.27658 5.35269 5.26974 5.40328 5.26291C5.48528 5.25607 5.57377 5.24254 5.65578 5.22202C5.67466 5.21518 5.70002 5.21518 5.7189 5.20834C5.78837 5.18798 5.85149 5.16062 5.92096 5.13342C5.9273 5.13342 5.93364 5.12658 5.93984 5.12658C6.04721 5.07886 6.14189 5.01761 6.23658 4.94952C6.24292 4.94268 6.24926 4.93585 6.25546 4.92916C6.33127 4.87475 6.40059 4.81335 6.46371 4.74526C6.49527 4.71122 6.52684 4.67718 6.55206 4.64313C6.58362 4.60225 6.61518 4.56137 6.64674 4.52064C6.79187 4.32322 6.89924 4.09177 6.96236 3.84662C6.96236 3.83979 6.9687 3.82626 6.9687 3.81942C6.98759 3.75133 7.00027 3.67641 7.00661 3.60148C7.01295 3.58112 7.01295 3.5606 7.01929 3.5334H10.6679C10.6679 3.54707 10.6742 3.55376 10.6742 3.56744C10.6994 4.28235 11.0845 4.89512 11.6463 5.20836C11.659 5.2152 11.6778 5.22872 11.6905 5.23556C11.7536 5.26961 11.8168 5.29681 11.8862 5.31733C11.9367 5.33769 11.9873 5.35137 12.0377 5.37174C12.0882 5.38541 12.1324 5.3921 12.1828 5.40578C12.2144 5.41262 12.246 5.42614 12.2839 5.42614H12.3785C12.4101 5.42614 12.4353 5.43298 12.4669 5.43298C12.4985 5.43298 12.53 5.42614 12.5679 5.4193C12.631 5.41247 12.6878 5.41247 12.7446 5.39894C12.8077 5.38526 12.8709 5.37174 12.934 5.35122C12.9908 5.33754 13.0414 5.31717 13.0918 5.29681C13.1549 5.26961 13.2117 5.2424 13.2685 5.20836C13.3189 5.18116 13.3695 5.15395 13.42 5.11991C13.4767 5.08587 13.521 5.04498 13.5714 4.99742C13.603 4.97021 13.6409 4.94969 13.6725 4.91565C13.6851 4.90197 13.6913 4.88845 13.704 4.87477C13.7483 4.83388 13.7798 4.77948 13.8239 4.73176C13.8618 4.68403 13.9059 4.63647 13.9375 4.5819C13.9754 4.5275 14.0006 4.46609 14.0322 4.40485C14.0574 4.35044 14.089 4.30272 14.108 4.255C14.1332 4.18691 14.1522 4.11882 14.1711 4.0439C14.1838 3.98949 14.2027 3.94177 14.2153 3.88736C14.228 3.81927 14.2342 3.75119 14.2406 3.6831C14.2469 3.62869 14.2594 3.57413 14.2594 3.51973H14.796C15.623 3.51973 16.2921 4.24148 16.2921 5.13345V12.8887L16.2794 12.8888Z" fill="white"/>
<path d="M13.9319 6.78149H3.74368C3.35859 6.78149 3.04297 7.12193 3.04297 7.53729C3.04297 7.95266 3.35225 8.29309 3.74368 8.29309H13.9381C14.3231 8.29309 14.6388 7.95266 14.6388 7.53729C14.6324 7.12193 14.3168 6.78149 13.9318 6.78149H13.9319Z" fill="white"/>
</svg>
