<svg width="15" height="19" viewBox="0 0 15 19" fill="none" xmlns="http://www.w3.org/2000/svg">
<path d="M13.4813 5.9914V7.01816V9.46644V12.4157V14.9494C13.4813 15.3423 13.4832 15.7352 13.4813 16.128C13.4813 16.1831 13.4775 16.24 13.4718 16.295C13.4813 16.2286 13.4908 16.1603 13.4984 16.0939C13.4832 16.2058 13.4547 16.3121 13.413 16.4165C13.4376 16.3558 13.4642 16.295 13.4889 16.2343C13.4452 16.3349 13.3921 16.4298 13.3257 16.5171C13.3655 16.4658 13.4054 16.4146 13.4452 16.3634C13.3731 16.4564 13.2915 16.538 13.1985 16.6101C13.2497 16.5702 13.301 16.5304 13.3522 16.4905C13.2649 16.5569 13.17 16.6101 13.0694 16.6537C13.1302 16.6291 13.1909 16.6025 13.2516 16.5778C13.1473 16.6196 13.041 16.648 12.929 16.6632C12.9954 16.6537 13.0637 16.6442 13.1302 16.6367C12.9916 16.6518 12.8474 16.6461 12.7088 16.6461H11.925H9.28505H6.08522H3.33327C2.90246 16.6461 2.47355 16.6499 2.04269 16.6461C1.98576 16.6461 1.93072 16.6423 1.87378 16.6367C1.94021 16.6461 2.00853 16.6556 2.07496 16.6632C1.96298 16.648 1.8567 16.6196 1.75232 16.5778C1.81305 16.6025 1.87378 16.6291 1.93451 16.6537C1.83393 16.6101 1.73903 16.5569 1.65173 16.4905C1.70297 16.5304 1.75421 16.5702 1.80546 16.6101C1.71246 16.538 1.63085 16.4564 1.55873 16.3634C1.59859 16.4146 1.63844 16.4658 1.6783 16.5171C1.61187 16.4298 1.55873 16.3349 1.51508 16.2343C1.53975 16.295 1.56633 16.3558 1.591 16.4165C1.54924 16.3121 1.52078 16.2058 1.50559 16.0939C1.51508 16.1603 1.52457 16.2286 1.53216 16.295C1.51318 16.1299 1.52267 15.9591 1.52267 15.7921V14.7786V13.2509V11.3852V9.33739V7.27058V5.33662V3.71774V2.56573V2.04381C1.52267 1.98498 1.52647 1.92805 1.53216 1.87111C1.52267 1.93753 1.51318 2.00586 1.50559 2.07228C1.52078 1.96031 1.54924 1.85402 1.591 1.74964C1.56632 1.81037 1.53975 1.87111 1.51508 1.93184C1.55873 1.83125 1.61187 1.73636 1.6783 1.64905C1.63844 1.7003 1.59859 1.75154 1.55873 1.80278C1.63085 1.70979 1.71246 1.62818 1.80546 1.55606C1.75421 1.59591 1.70297 1.63577 1.65173 1.67562C1.73903 1.6092 1.83393 1.55606 1.93451 1.51241C1.87378 1.53708 1.81305 1.56365 1.75232 1.58832C1.8567 1.54657 1.96298 1.5181 2.07496 1.50292C2.00853 1.51241 1.94021 1.5219 1.87378 1.52949C2.13569 1.49912 2.40708 1.52 2.6709 1.52H4.32966H6.3566H8.12922C8.4177 1.52 8.70618 1.52759 8.99467 1.52H9.00606C8.82766 1.44598 8.64736 1.37196 8.46894 1.29795C8.64165 1.47066 8.81436 1.64336 8.98708 1.81608L10.2397 3.0687C10.7426 3.57163 11.2456 4.07456 11.7485 4.57753C12.1831 5.01213 12.6178 5.44677 13.0543 5.88328C13.2668 6.09584 13.4756 6.31219 13.692 6.52097C13.6958 6.52476 13.6977 6.52666 13.7015 6.53046C13.9823 6.81135 14.4986 6.83222 14.7757 6.53046C15.0546 6.2268 15.0755 5.75614 14.7757 5.45626C14.6352 5.31581 14.4948 5.17537 14.3543 5.03491C14.007 4.68759 13.6597 4.34027 13.3105 3.99108C12.8664 3.54697 12.4223 3.10286 11.9781 2.65875C11.5511 2.23171 11.1241 1.80471 10.6952 1.37577L9.78227 0.462875C9.71205 0.392654 9.64183 0.320532 9.56971 0.250311C9.40839 0.0908872 9.19584 0.00358526 8.96998 0.00168693C8.67581 -0.00210867 8.38355 0.00168693 8.08936 0.00168693H6.4287H4.51753H2.88914H2.05409C1.66124 0.00168693 1.24749 0.10607 0.922939 0.333817C0.366873 0.722886 0.0176447 1.31692 0.00247895 2.00205C0.000581042 2.11972 0.00247895 2.23739 0.00247895 2.35506V3.26035V4.61545V6.28181V8.14744V10.0757V11.9375V13.6038V14.94V15.8301C0.00247895 15.9667 -0.00511278 16.1071 0.00627472 16.2438C0.0347429 16.5778 0.118252 16.9043 0.29855 17.1908C0.473154 17.4679 0.706603 17.7014 0.98559 17.8741C1.30254 18.0696 1.68023 18.1645 2.05032 18.1645H2.63866H3.87798H5.55381H7.4403H9.34199H11.0349H12.3046H12.9347C13.2744 18.1645 13.5837 18.0848 13.8893 17.9405C14.1285 17.8267 14.3524 17.6464 14.5156 17.4376C14.7168 17.1814 14.8838 16.9005 14.9464 16.574C14.9977 16.2989 14.9958 16.0407 14.9958 15.7674V14.6439V13.0117V11.1214V9.22352V7.57614V6.41275V5.99141C14.9958 5.59474 14.6466 5.21327 14.2366 5.23225C13.8286 5.25123 13.4813 5.56628 13.4813 5.99141L13.4813 5.9914Z" fill="white"/>
<path d="M14.2407 5.23239H12.4642H9.65534H9.00818C9.2606 5.48481 9.51493 5.73914 9.76733 5.99154V4.2151V1.40621V0.759048C9.33461 0.937448 8.90379 1.11775 8.47106 1.29617C8.64377 1.46887 8.81648 1.64158 8.9892 1.8143L10.2418 3.06691C10.7447 3.56985 11.2477 4.07278 11.7506 4.57575C12.1852 5.01035 12.6199 5.44499 13.0564 5.8815C13.269 6.09406 13.4777 6.31041 13.6941 6.51919C13.6979 6.52298 13.6998 6.52488 13.7036 6.52868C13.9845 6.80956 14.5007 6.83044 14.7778 6.52868C15.0568 6.22501 15.0776 5.75435 14.7778 5.45448C14.6051 5.28177 14.4324 5.10906 14.2596 4.93634L13.007 3.68373C12.5041 3.18079 12.0012 2.67786 11.4982 2.17489C11.0636 1.74029 10.629 1.30565 10.1924 0.869145C9.97988 0.656581 9.77301 0.438327 9.55475 0.231455C9.55095 0.227659 9.54906 0.225761 9.54526 0.221965C9.3289 0.00560526 8.99489 -0.0532288 8.7159 0.0644393C8.44071 0.180209 8.24902 0.453508 8.24902 0.759079V2.53552V5.34441V5.99157C8.24902 6.4015 8.59634 6.75073 9.00818 6.75073H10.7846H13.5935H14.2407C14.6373 6.75073 15.0188 6.40154 14.9998 5.99157C14.9809 5.57974 14.6658 5.23242 14.2407 5.23242V5.23239Z" fill="white"/>
<path d="M3.87898 10.7039H4.60207H6.32726H8.42443H10.2293C10.5235 10.7039 10.8196 10.7096 11.1137 10.7039H11.127C11.5237 10.7039 11.9052 10.3548 11.8862 9.94479C11.8672 9.53296 11.5521 9.18564 11.127 9.18564H10.4039H8.67874H6.58156H4.77666C4.48249 9.18564 4.18641 9.17994 3.89226 9.18564H3.87898C3.48231 9.18564 3.10084 9.53483 3.11982 9.94479C3.1388 10.3566 3.45385 10.7039 3.87898 10.7039Z" fill="white"/>
<path d="M3.87898 14.4068H4.60207H6.32726H8.42443H10.2293C10.5235 14.4068 10.8196 14.4125 11.1137 14.4068H11.127C11.5237 14.4068 11.9052 14.0576 11.8862 13.6477C11.8672 13.2358 11.5521 12.8885 11.127 12.8885H10.4039H8.67874H6.58156H4.77666C4.48249 12.8885 4.18641 12.8828 3.89226 12.8885H3.87898C3.48231 12.8885 3.10084 13.2377 3.11982 13.6477C3.1388 14.0576 3.45385 14.4068 3.87898 14.4068Z" fill="white"/>
</svg>
