
<svg width="64" height="95" viewBox="0 0 64 95" fill="none" xmlns="http://www.w3.org/2000/svg">
<path d="M31.9843 0C14.3498 0 0 14.3502 0 31.9843C0 49.6187 14.3502 64 31.9843 64C49.6187 64 64 49.618 64 31.9843C64 14.3506 49.618 0 31.9843 0V0ZM31.9843 6.21594C46.2594 6.21594 57.7863 17.7097 57.7863 31.9847C57.7863 46.2596 46.2607 57.7867 31.9843 57.7867C17.7092 57.7867 6.21557 46.261 6.21557 31.9847C6.21557 17.7096 17.7094 6.21594 31.9843 6.21594V6.21594ZM14.5681 62.5112H14.5674C13.8007 62.5994 13.0947 62.9701 12.586 63.5503C12.0773 64.1306 11.8027 64.8799 11.8157 65.6516V90.9671V90.9664C11.8157 91.7056 12.0787 92.421 12.5585 92.9839C13.0383 93.5468 13.7031 93.9196 14.433 94.0367C15.1628 94.153 15.9107 94.0063 16.5422 93.6212L31.9844 84.168L47.4266 93.6212H47.4258C48.0574 94.0063 48.8053 94.153 49.5351 94.0367C50.2656 93.9196 50.9297 93.5468 51.4095 92.9839C51.8894 92.4209 52.1524 91.7056 52.1524 90.9664V65.6509V65.6516C52.1639 64.8192 51.8416 64.0178 51.2578 63.4253C50.6739 62.8328 49.8762 62.4989 49.0444 62.4989C48.2127 62.4989 47.4157 62.8328 46.8311 63.4253C46.2472 64.0178 45.9249 64.8192 45.9365 65.6516V85.4323L33.6023 77.8573L33.603 77.8565C33.1152 77.5588 32.5552 77.402 31.9844 77.402C31.4128 77.402 30.8528 77.5588 30.3657 77.8565L18.0315 85.4316V65.6509V65.6516C18.0467 64.7556 17.6745 63.8971 17.0112 63.296C16.3478 62.6948 15.4569 62.4086 14.5673 62.5112H14.5681Z" fill="white"/>
</svg>
