<svg width="568" height="68" viewBox="0 0 568 68" fill="none" xmlns="http://www.w3.org/2000/svg">
<path d="M17.336 58.4C18.392 58.4 19.256 57.536 19.256 56.48V10.4H46.136C47.192 10.4 48.056 9.536 48.056 8.48V2.72C48.056 1.664 47.192 0.799995 46.136 0.799995H1.976C0.92 0.799995 0.0560001 1.664 0.0560001 2.72V8.48C0.0560001 9.536 0.92 10.4 1.976 10.4H9.656V56.48C9.656 57.536 10.52 58.4 11.576 58.4H17.336ZM55.736 58.4C56.792 58.4 57.656 57.536 57.656 56.48V50.72C57.656 49.664 56.792 48.8 55.736 48.8H49.976C48.92 48.8 48.056 49.664 48.056 50.72V56.48C48.056 57.536 48.92 58.4 49.976 58.4H55.736ZM55.736 20C56.792 20 57.656 19.136 57.656 18.08V12.32C57.656 11.264 56.792 10.4 55.736 10.4H49.976C48.92 10.4 48.056 11.264 48.056 12.32V18.08C48.056 19.136 48.92 20 49.976 20H55.736ZM21.176 58.4C20.12 58.4 19.256 59.264 19.256 60.32V66.08C19.256 67.136 20.12 68 21.176 68H46.136C47.192 68 48.056 67.136 48.056 66.08V60.32C48.056 59.264 47.192 58.4 46.136 58.4H21.176ZM72.4062 58.304C73.4623 58.304 74.3263 57.44 74.3263 56.384V21.824C74.3263 20.768 73.4623 19.904 72.4062 19.904H66.6463C65.5903 19.904 64.7263 20.768 64.7263 21.824V56.384C64.7263 57.44 65.5903 58.304 66.6463 58.304H72.4062ZM110.806 58.304C111.862 58.304 112.726 57.44 112.726 56.384V21.824C112.726 20.768 111.862 19.904 110.806 19.904H105.046C103.99 19.904 103.126 20.768 103.126 21.824V56.384C103.126 57.44 103.99 58.304 105.046 58.304H110.806ZM76.2463 58.304C75.1903 58.304 74.3263 59.168 74.3263 60.224V65.984C74.3263 67.04 75.1903 67.904 76.2463 67.904H101.206C102.262 67.904 103.126 67.04 103.126 65.984V60.224C103.126 59.168 102.262 58.304 101.206 58.304H76.2463ZM76.2463 10.304C75.1903 10.304 74.3263 11.168 74.3263 12.224V17.984C74.3263 19.04 75.1903 19.904 76.2463 19.904H101.206C102.262 19.904 103.126 19.04 103.126 17.984V12.224C103.126 11.168 102.262 10.304 101.206 10.304H76.2463ZM130.183 67.904C131.239 67.904 132.103 67.04 132.103 65.984V29.504H139.783C140.839 29.504 141.703 28.64 141.703 27.584V21.824C141.703 20.768 140.839 19.904 139.783 19.904H132.103V12.224C132.103 11.168 131.239 10.304 130.183 10.304H124.423C123.367 10.304 122.503 11.168 122.503 12.224V65.984C122.503 67.04 123.367 67.904 124.423 67.904H130.183ZM153.223 19.904C152.167 19.904 151.303 20.768 151.303 21.824V27.584C151.303 28.64 152.167 29.504 153.223 29.504H160.903V65.984C160.903 67.04 161.767 67.904 162.823 67.904H168.583C169.639 67.904 170.503 67.04 170.503 65.984V12.224C170.503 11.168 169.639 10.304 168.583 10.304H162.823C161.767 10.304 160.903 11.168 160.903 12.224V19.904H153.223ZM149.383 39.104C150.439 39.104 151.303 38.24 151.303 37.184V31.424C151.303 30.368 150.439 29.504 149.383 29.504H143.623C142.567 29.504 141.703 30.368 141.703 31.424V37.184C141.703 38.24 142.567 39.104 143.623 39.104H149.383ZM188.192 67.904C189.248 67.904 190.112 67.04 190.112 65.984V31.424C190.112 30.368 189.248 29.504 188.192 29.504H182.432C181.376 29.504 180.512 30.368 180.512 31.424V65.984C180.512 67.04 181.376 67.904 182.432 67.904H188.192ZM188.192 19.904C189.248 19.904 190.112 19.04 190.112 17.984V12.224C190.112 11.168 189.248 10.304 188.192 10.304H182.432C181.376 10.304 180.512 11.168 180.512 12.224V17.984C180.512 19.04 181.376 19.904 182.432 19.904H188.192ZM205.984 67.904C207.04 67.904 207.904 67.04 207.904 65.984V29.504H215.584C216.64 29.504 217.504 28.64 217.504 27.584V21.824C217.504 20.768 216.64 19.904 215.584 19.904H207.904V12.224C207.904 11.168 207.04 10.304 205.984 10.304H200.224C199.168 10.304 198.304 11.168 198.304 12.224V65.984C198.304 67.04 199.168 67.904 200.224 67.904H205.984ZM229.024 39.104C227.968 39.104 227.104 39.968 227.104 41.024V46.784C227.104 47.84 227.968 48.704 229.024 48.704H236.704V65.984C236.704 67.04 237.568 67.904 238.624 67.904H244.384C245.44 67.904 246.304 67.04 246.304 65.984V12.224C246.304 11.168 245.44 10.304 244.384 10.304H238.624C237.568 10.304 236.704 11.168 236.704 12.224V39.104H229.024ZM225.184 39.104C226.24 39.104 227.104 38.24 227.104 37.184V31.424C227.104 30.368 226.24 29.504 225.184 29.504H219.424C218.368 29.504 217.504 30.368 217.504 31.424V37.184C217.504 38.24 218.368 39.104 219.424 39.104H225.184ZM300.73 58.304C301.786 58.304 302.65 57.44 302.65 56.384V12.224C302.65 11.168 301.786 10.304 300.73 10.304H294.97C293.914 10.304 293.05 11.168 293.05 12.224V29.504H266.17C265.114 29.504 264.25 30.368 264.25 31.424V37.184C264.25 38.24 265.114 39.104 266.17 39.104H293.05V56.384C293.05 57.44 293.914 58.304 294.97 58.304H300.73ZM262.33 58.304C263.386 58.304 264.25 57.44 264.25 56.384V50.624C264.25 49.568 263.386 48.704 262.33 48.704H256.57C255.514 48.704 254.65 49.568 254.65 50.624V56.384C254.65 57.44 255.514 58.304 256.57 58.304H262.33ZM262.33 29.504C263.386 29.504 264.25 28.64 264.25 27.584V12.224C264.25 11.168 263.386 10.304 262.33 10.304H256.57C255.514 10.304 254.65 11.168 254.65 12.224V27.584C254.65 28.64 255.514 29.504 256.57 29.504H262.33ZM266.17 58.304C265.114 58.304 264.25 59.168 264.25 60.224V65.984C264.25 67.04 265.114 67.904 266.17 67.904H291.13C292.186 67.904 293.05 67.04 293.05 65.984V60.224C293.05 59.168 292.186 58.304 291.13 58.304H266.17ZM266.17 0.703997C265.114 0.703997 264.25 1.568 264.25 2.62399V8.384C264.25 9.44 265.114 10.304 266.17 10.304H291.13C292.186 10.304 293.05 9.44 293.05 8.384V2.62399C293.05 1.568 292.186 0.703997 291.13 0.703997H266.17ZM358.488 29.6C359.544 29.6 360.408 28.736 360.408 27.68V10.4H387.288C388.344 10.4 389.208 9.536 389.208 8.48V2.72C389.208 1.664 388.344 0.799995 387.288 0.799995H343.128C342.072 0.799995 341.208 1.664 341.208 2.72V8.48C341.208 9.536 342.072 10.4 343.128 10.4H350.808V27.68C350.808 28.736 351.672 29.6 352.728 29.6H358.488ZM362.328 29.6C361.272 29.6 360.408 30.464 360.408 31.52V37.28C360.408 38.336 361.272 39.2 362.328 39.2H387.288C388.344 39.2 389.208 38.336 389.208 37.28V31.52C389.208 30.464 388.344 29.6 387.288 29.6H362.328ZM352.728 48.8C351.672 48.8 350.808 49.664 350.808 50.72V56.48C350.808 57.536 351.672 58.4 352.728 58.4H358.488C359.544 58.4 360.408 57.536 360.408 56.48V50.72C360.408 49.664 359.544 48.8 358.488 48.8H352.728ZM387.288 68C388.344 68 389.208 67.136 389.208 66.08V60.32C389.208 59.264 388.344 58.4 387.288 58.4H362.328C361.272 58.4 360.408 59.264 360.408 60.32V66.08C360.408 67.136 361.272 68 362.328 68H387.288ZM391.128 39.2C390.072 39.2 389.208 40.064 389.208 41.12V56.48C389.208 57.536 390.072 58.4 391.128 58.4H396.888C397.944 58.4 398.808 57.536 398.808 56.48V41.12C398.808 40.064 397.944 39.2 396.888 39.2H391.128ZM396.888 20C397.944 20 398.808 19.136 398.808 18.08V12.32C398.808 11.264 397.944 10.4 396.888 10.4H391.128C390.072 10.4 389.208 11.264 389.208 12.32V18.08C389.208 19.136 390.072 20 391.128 20H396.888ZM414.594 58.304C415.65 58.304 416.514 57.44 416.514 56.384V21.824C416.514 20.768 415.65 19.904 414.594 19.904H408.834C407.778 19.904 406.914 20.768 406.914 21.824V56.384C406.914 57.44 407.778 58.304 408.834 58.304H414.594ZM452.994 58.304C454.05 58.304 454.914 57.44 454.914 56.384V21.824C454.914 20.768 454.05 19.904 452.994 19.904H447.234C446.178 19.904 445.314 20.768 445.314 21.824V56.384C445.314 57.44 446.178 58.304 447.234 58.304H452.994ZM418.434 58.304C417.378 58.304 416.514 59.168 416.514 60.224V65.984C416.514 67.04 417.378 67.904 418.434 67.904H443.394C444.45 67.904 445.314 67.04 445.314 65.984V60.224C445.314 59.168 444.45 58.304 443.394 58.304H418.434ZM418.434 10.304C417.378 10.304 416.514 11.168 416.514 12.224V17.984C416.514 19.04 417.378 19.904 418.434 19.904H443.394C444.45 19.904 445.314 19.04 445.314 17.984V12.224C445.314 11.168 444.45 10.304 443.394 10.304H418.434ZM471.219 58.304C472.275 58.304 473.139 57.44 473.139 56.384V21.824C473.139 20.768 472.275 19.904 471.219 19.904H465.459C464.403 19.904 463.539 20.768 463.539 21.824V56.384C463.539 57.44 464.403 58.304 465.459 58.304H471.219ZM509.619 58.304C510.675 58.304 511.539 57.44 511.539 56.384V21.824C511.539 20.768 510.675 19.904 509.619 19.904H503.859C502.803 19.904 501.939 20.768 501.939 21.824V56.384C501.939 57.44 502.803 58.304 503.859 58.304H509.619ZM475.059 58.304C474.003 58.304 473.139 59.168 473.139 60.224V65.984C473.139 67.04 474.003 67.904 475.059 67.904H500.019C501.075 67.904 501.939 67.04 501.939 65.984V60.224C501.939 59.168 501.075 58.304 500.019 58.304H475.059ZM475.059 10.304C474.003 10.304 473.139 11.168 473.139 12.224V17.984C473.139 19.04 474.003 19.904 475.059 19.904H500.019C501.075 19.904 501.939 19.04 501.939 17.984V12.224C501.939 11.168 501.075 10.304 500.019 10.304H475.059ZM527.172 67.904C528.228 67.904 529.092 67.04 529.092 65.984V29.504H536.772C537.828 29.504 538.692 28.64 538.692 27.584V21.824C538.692 20.768 537.828 19.904 536.772 19.904H529.092V12.224C529.092 11.168 528.228 10.304 527.172 10.304H521.412C520.356 10.304 519.492 11.168 519.492 12.224V65.984C519.492 67.04 520.356 67.904 521.412 67.904H527.172ZM550.212 39.104C549.156 39.104 548.292 39.968 548.292 41.024V46.784C548.292 47.84 549.156 48.704 550.212 48.704H557.892V65.984C557.892 67.04 558.756 67.904 559.812 67.904H565.572C566.628 67.904 567.492 67.04 567.492 65.984V12.224C567.492 11.168 566.628 10.304 565.572 10.304H559.812C558.756 10.304 557.892 11.168 557.892 12.224V39.104H550.212ZM546.372 39.104C547.428 39.104 548.292 38.24 548.292 37.184V31.424C548.292 30.368 547.428 29.504 546.372 29.504H540.612C539.556 29.504 538.692 30.368 538.692 31.424V37.184C538.692 38.24 539.556 39.104 540.612 39.104H546.372Z" fill="white"/>
</svg>
