<svg width="26" height="23" viewBox="0 0 26 23" fill="none" xmlns="http://www.w3.org/2000/svg">
<path d="M24.7845 8.86774C24.7651 8.86754 24.7458 8.86633 24.7266 8.86412C24.6078 8.84901 24.5 8.78716 24.4267 8.69227C24.3535 8.59758 24.3211 8.4775 24.3364 8.35863C24.523 7.0781 24.197 5.77581 23.4296 4.73402C22.662 3.69224 21.5146 2.99513 20.2363 2.79388C19.9893 2.76024 19.8162 2.53258 19.8499 2.28537C19.8835 2.03837 20.111 1.86531 20.3582 1.89896C21.8722 2.13307 23.2331 2.95446 24.1456 4.18522C25.0579 5.41619 25.4483 6.95702 25.2321 8.47367C25.2033 8.69891 25.0115 8.86774 24.7845 8.86774L24.7845 8.86774Z" fill="white"/>
<path d="M22.849 8.60529C22.8202 8.60529 22.7914 8.60247 22.7632 8.59683C22.5186 8.54948 22.3586 8.31296 22.4058 8.06838C22.574 7.28989 22.3965 6.47679 21.9192 5.83931C21.4393 5.22525 20.7167 4.84931 19.9382 4.80898C19.8163 4.80394 19.7017 4.74975 19.6205 4.65868C19.5391 4.56762 19.4982 4.44754 19.5071 4.32586C19.5157 4.20417 19.5733 4.09114 19.6668 4.01257C19.7601 3.9342 19.8814 3.89673 20.0027 3.90922C21.039 3.96604 21.9996 4.4699 22.6355 5.29007C23.2713 6.13158 23.5107 7.20766 23.2917 8.23919C23.251 8.45153 23.0652 8.60506 22.849 8.60526L22.849 8.60529Z" fill="white"/>
<path d="M4.84008 22.1156C4.8153 22.1158 4.79052 22.1135 4.76614 22.1093C3.25935 21.8309 1.92281 20.9698 1.04643 19.7126C0.170045 18.4557 -0.175463 16.9037 0.0844286 15.3935C0.127543 15.1514 0.356611 14.9884 0.599385 15.0269C0.842355 15.0653 1.00978 15.2912 0.97573 15.5348C0.751694 16.8101 1.0394 18.1222 1.77635 19.1868C2.51352 20.2514 3.64072 20.9823 4.9132 21.221C5.14429 21.2601 5.30687 21.4692 5.28793 21.7027C5.26879 21.9362 5.07438 22.1164 4.84007 22.1174L4.84008 22.1156Z" fill="white"/>
<path d="M5.22381 20.1128C5.2085 20.1128 5.19319 20.1128 5.17868 20.1105C4.14453 20.0229 3.19924 19.491 2.58739 18.6529C1.97632 17.793 1.76801 16.7108 2.01665 15.6857C2.03922 15.5654 2.10973 15.4596 2.21167 15.3923C2.31382 15.325 2.43893 15.3021 2.5582 15.3287C2.67767 15.3553 2.78103 15.4292 2.84489 15.5336C2.90876 15.6377 2.9275 15.7634 2.89707 15.8819C2.70669 16.6553 2.86061 17.4731 3.31895 18.1244C3.78092 18.7524 4.49251 19.1491 5.26935 19.212C5.51877 19.2245 5.71057 19.4366 5.69808 19.6858C5.68579 19.935 5.47364 20.127 5.22422 20.1146L5.22381 20.1128Z" fill="white"/>
<path d="M12.2039 21.3404C11.2596 21.3309 10.332 21.0887 9.50376 20.6354C8.21719 19.9643 7.51808 19.2165 6.16018 16.3508C5.53343 15.03 5.42099 14.7771 5.18911 14.2549C5.05372 13.9547 4.88187 13.5649 4.54642 12.8275L4.54622 12.8277C4.18679 12.0317 3.77784 11.2591 3.32149 10.5144C3.01466 9.99945 2.69773 9.46777 2.29843 8.65241C2.0607 8.16687 1.42968 6.87706 2.51058 6.27042C2.85771 6.0754 3.75666 5.76675 4.58651 7.10972C5.00617 7.78665 5.24127 8.22123 5.4484 8.60439C5.70144 9.08912 5.98288 9.55855 6.29136 10.01C6.23092 9.8525 6.16987 9.69414 6.11085 9.54022C5.82194 8.78932 5.49436 7.93816 5.1865 7.05487L5.05111 6.65918C4.88953 6.18895 4.761 5.81746 4.46949 5.0692C4.29622 4.62335 4.04761 3.78299 4.33148 3.1534V3.15361C4.46143 2.86269 4.70501 2.63784 5.00517 2.53165C5.57513 2.32232 6.39612 2.36242 7.068 3.75013C7.87166 5.40784 8.11103 5.98039 8.54334 7.08282C8.68376 7.43983 8.88443 7.88829 9.09071 8.3158C8.98192 7.84416 8.83082 7.25205 8.62451 6.51869V6.51889C8.1704 5.17007 7.85288 3.77911 7.6768 2.36701C7.49629 1.04115 7.87988 0.16518 8.70208 0.0257182C10.0731 -0.215642 10.5397 1.30284 10.7635 2.02852L10.7919 2.11878C11.1751 3.34856 11.352 4.05128 11.5398 4.79491C11.6327 5.1646 11.7302 5.55225 11.8597 6.0301C11.9075 6.2084 11.9663 6.4413 12.0316 6.69976C12.0555 6.79587 12.0835 6.90687 12.1142 7.02695C12.1055 6.92038 12.0956 6.80856 12.0848 6.68989H12.085C11.9329 5.23571 11.9054 3.7712 12.0034 2.31237C12.1093 0.619235 12.946 0.361354 13.3012 0.329326C14.253 0.248939 14.748 1.20127 14.8898 2.12866L14.9073 2.2437C15.1239 3.5085 15.2603 4.78563 15.3163 6.0676C15.3582 7.30862 15.4789 8.54588 15.6774 9.77179C15.795 10.535 15.9741 11.2875 16.2131 12.0218C16.3215 11.6866 16.4315 11.219 16.5014 10.9187C16.5866 10.5545 16.6601 10.2418 16.7375 10.0184C17.3693 8.21322 18.1365 7.51957 18.4367 7.30522C18.7747 7.06245 19.8018 6.565 20.4751 7.16178L20.4749 7.16198C20.6375 7.29676 20.754 7.47869 20.8081 7.68279C20.8623 7.88668 20.8515 8.10245 20.7773 8.30011C20.674 8.56504 20.5746 8.79915 20.4785 9.0262C20.2211 9.59895 20.0097 10.1915 19.8467 10.7981C19.56 11.8673 19.3352 12.9522 19.1734 14.0474C19.061 14.8988 18.8696 15.7381 18.6016 16.5542C17.9974 18.367 17.2568 19.6041 15.2563 20.5587V20.5585C14.3106 21.0454 13.2672 21.3125 12.2038 21.3401L12.2039 21.3404ZM3.13937 7.00224C3.07309 7.00345 3.00842 7.02258 2.95201 7.05764C2.71286 7.19303 2.7584 7.53875 3.10915 8.25539C3.49275 9.03749 3.7996 9.55366 4.09756 10.0529H4.09736C4.57001 10.8264 4.99432 11.6284 5.36783 12.4542C5.70489 13.1948 5.87956 13.5869 6.01356 13.8885C6.24324 14.4061 6.35525 14.6557 6.97576 15.9645C8.30787 18.7738 8.89594 19.3014 9.92086 19.8357C11.5153 20.667 12.9947 20.64 14.8702 19.7455C16.5891 18.9251 17.2078 17.8911 17.7486 16.2705C18.0014 15.5015 18.1813 14.7105 18.2861 13.9079C18.4533 12.7825 18.6846 11.6675 18.9783 10.5683C19.1518 9.92042 19.3764 9.28738 19.6504 8.67512C19.7433 8.45531 19.8396 8.22826 19.9393 7.97157C19.9611 7.91657 19.8982 7.85472 19.8785 7.83618C19.7173 7.69535 19.2133 7.86056 18.9642 8.03886C18.7837 8.168 18.1519 8.71218 17.5928 10.3165C17.5309 10.4915 17.4574 10.7994 17.3829 11.1252C17.0823 12.4059 16.8864 13.136 16.3332 13.2287C15.65 13.3419 15.2574 12.5125 14.7915 9.93206H14.7911C14.5858 8.67046 14.4609 7.39699 14.417 6.11946C14.362 4.86554 14.228 3.61642 14.0163 2.37916L13.9988 2.26452C13.9558 1.98468 13.7501 1.19633 13.3841 1.22655C13.1391 1.24871 12.9463 1.70665 12.9052 2.36649C12.8087 3.78019 12.8355 5.19977 12.9852 6.60862C13.2013 8.9757 13.1024 9.65161 12.524 9.75316C11.9544 9.85792 11.7681 9.34478 11.1574 6.9205C11.0938 6.66786 11.0366 6.4404 10.989 6.2661C10.8587 5.78237 10.7597 5.39013 10.6655 5.01559C10.4732 4.25283 10.307 3.59405 9.9307 2.38825L9.90189 2.29397C9.62124 1.37952 9.34502 0.829102 8.85407 0.914306C8.54321 0.967491 8.49042 1.64143 8.57242 2.24523C8.74186 3.60879 9.04789 4.95194 9.48588 6.25444C10.4832 9.80112 10.2607 10.1192 10.1137 10.33C10.0226 10.4603 9.87815 10.5431 9.71959 10.5556H9.69381C9.06963 10.5556 8.26783 8.8498 7.70127 7.40789C7.27758 6.32881 7.04367 5.76792 6.25394 4.13967C5.79721 3.19959 5.45874 3.32193 5.31489 3.37608H5.3151C5.24176 3.39845 5.18213 3.45184 5.15211 3.52235C5.06689 3.93455 5.12168 4.3635 5.30824 4.74083C5.60662 5.5054 5.73737 5.88438 5.90297 6.36548L6.03835 6.75814C6.34156 7.6273 6.66655 8.47305 6.95362 9.21585C7.79658 11.4064 7.997 11.9272 7.45911 12.1835C7.22137 12.2971 6.8976 12.4466 5.72528 10.7782C5.32899 10.2216 4.97118 9.63872 4.65445 9.03352C4.45359 8.66121 4.22573 8.23972 3.82722 7.59806C3.52562 7.1105 3.29331 7.0023 3.13941 7.0023L3.13937 7.00224Z" fill="white"/>
</svg>
