<svg width="25" height="21" viewBox="0 0 25 21" fill="none" xmlns="http://www.w3.org/2000/svg">
<path fill-rule="evenodd" clip-rule="evenodd" d="M23.8967 14.0132V6.78163C24.6403 6.11494 24.4353 5.2687 23.2043 4.70454L14.8957 0.806651C14.1521 0.447649 13.152 0.293823 12.1775 0.293823C11.203 0.293823 10.2029 0.473416 9.45933 0.806651L1.12512 4.6788C-0.362214 5.37123 -0.387812 6.52515 1.12512 7.21758L3.86909 8.49976V14.3722L3.89467 14.6029C3.99717 14.9363 4.99726 17.8084 12.1519 17.8084C19.3065 17.8084 20.3323 14.9363 20.4092 14.6029L20.4606 8.49972L22.1273 7.73036V14.0387C21.7427 14.5515 20.9989 15.6543 20.9989 16.9621C20.9989 18.7316 22.3067 20.1162 22.358 20.1932C22.5119 20.3727 22.7426 20.4752 22.9991 20.4752C23.2299 20.4752 23.4606 20.3727 23.6402 20.1932C23.6916 20.1418 24.9993 18.7572 24.9993 16.9621C25.0251 15.603 24.2812 14.5004 23.8967 14.0132ZM18.7167 14.1927C18.4859 14.5773 17.2293 16.0647 12.1775 16.0647C7.04877 16.0647 5.84352 14.526 5.63837 14.1927V9.32045L9.45933 11.0899C10.2029 11.4489 11.203 11.6027 12.1775 11.6027C13.152 11.6027 14.1521 11.4231 14.8957 11.0899L18.7167 9.32045V14.1927ZM14.1521 9.5256C13.6648 9.75635 12.9212 9.8846 12.1775 9.8846C11.4339 9.8846 10.6901 9.75634 10.2029 9.5256L2.56103 5.96112L10.2029 2.39665C10.6901 2.1659 11.4337 2.03765 12.1775 2.03765C12.921 2.03765 13.6648 2.1659 14.1521 2.39665L21.7683 5.96112L14.1521 9.5256ZM23.0248 17.988C22.8965 17.6803 22.7683 17.3213 22.7683 16.9624C22.7683 16.6034 22.8708 16.2443 23.0248 15.9367C23.1531 16.2444 23.2813 16.6034 23.2813 16.9624C23.2556 17.3214 23.1529 17.6804 23.0248 17.988Z" fill="white"/>
</svg>
