<svg width="30" height="27" viewBox="0 0 30 27" fill="none" xmlns="http://www.w3.org/2000/svg">
<path d="M17.6254 17.4483L22.5676 14.7272C23.5906 14.1637 24.1717 13.0496 24.0481 11.8883L23.4317 6.09091C24.0663 5.74467 24.459 5.03727 24.3827 4.29398L24.3449 3.92483C24.2911 3.39941 24.0131 2.92309 23.5826 2.61789C23.1521 2.31207 22.6107 2.20746 22.0976 2.33044L14.0289 4.25894L13.6075 4.77506C13.2472 5.21661 12.7138 5.47232 12.1436 5.47724L12.1188 5.47811C12.0671 5.48178 10.8715 5.54057 10.747 4.68729C10.7548 4.47829 10.8477 4.28074 11.0048 4.14156L14.1277 1.37272C14.7207 0.846872 15.6393 0.894207 16.1753 1.47775L17.4697 2.88738L18.213 2.20506L16.9188 0.795267C16.013 -0.191364 14.461 -0.270707 13.4583 0.617394L10.3355 3.38646C9.95555 3.72319 9.73768 4.20776 9.73768 4.71547L9.74092 4.77274C9.90648 6.22209 11.3906 6.53033 12.165 6.48623C13.0315 6.47543 13.8418 6.08467 14.3896 5.41312L14.5952 5.16133L22.3324 3.31212C22.5663 3.25614 22.8031 3.30196 22.9992 3.44093C23.1952 3.58011 23.3169 3.78846 23.3415 4.0277L23.3793 4.39685C23.4206 4.79885 23.1565 5.17727 22.7651 5.27736L22.3423 5.38542L23.045 11.9956C23.1254 12.7514 22.7471 13.4769 22.081 13.8435L17.1388 16.5646C16.8349 16.7319 16.5055 16.8367 16.1601 16.8765C15.2744 16.9776 14.4573 17.3976 13.8594 18.0587L11.3408 20.8433L5.4953 15.6821L5.80069 15.332L5.04013 14.6685L4.40512 15.3966H4.40534L3.1477 16.8211L2.62294 16.358L0 19.3283L7.87612 26.2826L10.4988 23.3121L11.7563 21.8882L14.6077 18.7356C15.0408 18.2566 15.6328 17.9525 16.2745 17.8791C16.7515 17.8244 17.2058 17.6796 17.6253 17.4485L17.6254 17.4483ZM9.74265 22.644L3.9043 17.4889L4.82996 16.4402L10.6683 21.5956L9.74265 22.644Z" fill="white"/>
<path d="M5.15922 14.3094L8.65448 15.9492C8.91145 16.0696 9.18205 16.1269 9.44873 16.1269C10.1542 16.1269 10.8315 15.7272 11.1505 15.0473C11.3803 14.5573 11.3775 14.0179 11.1899 13.5512C11.2115 13.5443 11.2331 13.5387 11.2547 13.5309C11.7261 13.3606 12.103 13.0167 12.3159 12.5631C12.529 12.1092 12.5524 11.5996 12.3821 11.1282C12.3741 11.1064 12.3641 11.0858 12.3555 11.0644C12.8342 10.9103 13.2515 10.5689 13.4815 10.0787C13.7116 9.58853 13.7085 9.04929 13.5211 8.58264C13.5427 8.57573 13.5643 8.57011 13.5857 8.56233C14.0571 8.39202 14.434 8.04837 14.6469 7.59473C14.8654 7.12918 14.8847 6.6081 14.701 6.12784L13.7584 6.48813C13.8432 6.71009 13.8343 6.95086 13.7334 7.16591C13.635 7.37556 13.4608 7.53441 13.243 7.6133C13.0249 7.69197 12.7893 7.68138 12.5797 7.58261L9.08464 5.94281C8.87478 5.84448 8.71592 5.67027 8.63726 5.45241C8.55837 5.23434 8.56939 4.99876 8.66773 4.78935C8.77472 4.56111 8.97528 4.39124 9.21778 4.32272L8.94373 3.3512C8.41918 3.49925 7.98565 3.86688 7.75415 4.36007C7.54105 4.81394 7.51771 5.32357 7.68802 5.79498C7.6958 5.81638 7.70574 5.83669 7.71438 5.85766C7.23566 6.01176 6.81871 6.35411 6.58877 6.84429V6.8445C6.35881 7.33469 6.36183 7.87435 6.54943 8.34099C6.52782 8.34791 6.50599 8.3531 6.48459 8.36088C6.01321 8.53119 5.63628 8.87505 5.42338 9.3287C5.21049 9.78257 5.18693 10.2922 5.35746 10.7636C5.36502 10.7848 5.37496 10.8047 5.38318 10.8254C5.36178 10.8323 5.34038 10.8375 5.3192 10.8451C4.84783 11.0154 4.4709 11.359 4.25799 11.8127V11.8129C3.81795 12.7502 4.22252 13.8696 5.15922 14.3094ZM7.50208 7.27375C7.70524 6.84041 8.2233 6.65368 8.65581 6.85683L12.1508 8.49663C12.584 8.69957 12.7709 9.2174 12.5678 9.65035C12.3646 10.0839 11.847 10.2709 11.414 10.0673L7.919 8.42748C7.48609 8.22431 7.29892 7.7067 7.50208 7.27375ZM6.33652 9.75814V9.75793C6.43507 9.54828 6.60906 9.38942 6.82692 9.31054C6.92309 9.27596 7.02273 9.25845 7.12215 9.25845C7.24772 9.25845 7.37308 9.28633 7.49021 9.34123L10.9852 10.981C11.1951 11.0794 11.354 11.2536 11.4326 11.4714C11.5113 11.6895 11.5005 11.9251 11.4022 12.1347C11.3038 12.3444 11.1296 12.5032 10.9118 12.5821C10.6937 12.6608 10.4583 12.65 10.2485 12.5514L6.75322 10.9116C6.54357 10.8133 6.38471 10.6391 6.30583 10.4212C6.22737 10.2031 6.23817 9.96756 6.33652 9.75814ZM5.17117 12.2422C5.26972 12.0323 5.44393 11.8734 5.66179 11.7948C5.87921 11.7157 6.11479 11.7267 6.32485 11.8252L9.82011 13.465C10.253 13.668 10.4402 14.1858 10.237 14.6188C10.0341 15.0523 9.51603 15.2391 9.0833 15.0357L5.58804 13.3959C5.15514 13.1929 4.96801 12.6753 5.17117 12.2422Z" fill="white"/>
<path d="M5.35174 18.3048C5.61996 18.3048 5.83825 18.0865 5.83825 17.8183C5.83825 17.5499 5.62018 17.3318 5.35174 17.3318C5.08352 17.3318 4.86523 17.5499 4.86523 17.8183C4.86545 18.0865 5.08352 18.3048 5.35174 18.3048Z" fill="white"/>
<path d="M27.3116 16.3577L26.7869 16.8208L25.5277 15.3948L25.5279 15.3946L24.3161 14.0166L23.5583 14.6832L24.4376 15.683L18.5981 20.8388L17.0608 19.0987C16.8375 18.8463 16.5518 18.653 16.2347 18.5402L15.4891 18.2746L15.1504 19.2256L15.8962 19.4912C16.0529 19.547 16.1941 19.6423 16.3045 19.7672L18.1757 21.885L19.4354 23.3115L22.0581 26.282L29.9342 19.3277L27.3116 16.3577ZM19.2662 21.5958L25.1045 16.4405L26.0302 17.4891L20.1919 22.6442L19.2662 21.5958Z" fill="white"/>
<path d="M24.5825 17.3376C24.3173 17.3376 24.1016 17.5533 24.1016 17.8185C24.1016 18.0837 24.3173 18.2994 24.5825 18.2994C24.8476 18.2994 25.0633 18.0837 25.0633 17.8185C25.0636 17.5533 24.8476 17.3376 24.5825 17.3376Z" fill="white"/>
</svg>
