<svg width="25" height="25" viewBox="0 0 25 25" fill="none" xmlns="http://www.w3.org/2000/svg">
<path d="M10.1519 8.50867V7.24658H7.16602V8.50867H7.84786V12.8245H7.16602V14.0887H10.8338V12.8245H10.1519V8.50867Z" fill="white"/>
<path d="M10.1942 4.94281C10.3643 5.66338 9.91808 6.38538 9.19765 6.55544C8.47708 6.72561 7.75519 6.27951 7.58502 5.55893C7.41485 4.83851 7.8611 4.11647 8.58152 3.9463C9.3021 3.77628 10.024 4.22238 10.1942 4.94281Z" fill="white"/>
<path d="M9 0C6.5965 0 4.337 0.93608 2.63644 2.63644C0.93608 4.33696 0 6.59646 0 9C0 11.4035 0.93608 13.663 2.63644 15.3636C4.33696 17.0639 6.59646 18 9 18C11.4035 18 13.663 17.0639 15.3636 15.3636C17.0639 13.663 18 11.4035 18 9C18 6.59646 17.0639 4.337 15.3636 2.63644C13.663 0.93608 11.4035 0 9 0ZM9 16.2995C4.97418 16.2995 1.70052 13.0257 1.70052 9.00004C1.70052 4.97437 4.97434 1.70055 9 1.70055C13.0257 1.70055 16.2995 4.97437 16.2995 9.00004C16.2995 13.0257 13.0257 16.2995 9 16.2995Z" fill="white"/>
</svg>
