<svg width="115" height="115" viewBox="0 0 115 115" fill="none" xmlns="http://www.w3.org/2000/svg">
<g clip-path="url(#clip0_875_9690)">
<path d="M0.044562 57.9506C0.044562 49.3828 -0.0672886 40.7927 0.0893022 32.2249C0.178783 27.4601 0.626185 22.6952 2.39342 18.1317C4.27251 13.2998 7.31485 9.38503 11.3415 6.25322C15.7484 2.83059 20.8264 1.13046 26.3742 0.638317C35.188 -0.167007 44.0018 0.302766 52.838 0.213285C62.0769 0.123805 71.3158 0.168545 80.577 0.213285C84.626 0.235655 88.675 0.392246 92.6345 1.30942C96.9743 2.33845 100.911 4.19517 104.312 7.08091C109.121 11.1746 112.119 16.3645 113.506 22.4939C113.976 24.5967 114.244 26.7442 114.311 28.8918C114.826 46.9221 114.535 64.9524 114.468 82.9827C114.445 88.6423 113.797 94.3244 110.956 99.4919C106.705 107.187 100.285 111.952 91.7173 113.786C88.4065 114.502 85.0286 114.681 81.6507 114.681C64.9626 114.726 48.2522 114.771 31.5641 114.659C25.9268 114.614 20.3566 113.876 15.2786 111.147C7.49381 106.963 2.75135 100.454 0.961737 91.8413C0.223523 88.4186 0.0221919 84.9289 0.0221919 81.4168C0.044562 73.5873 0.0221919 65.7577 0.044562 57.9506ZM82.7469 93.8546C82.7469 93.5638 82.5455 93.3848 82.4337 93.1611C81.4047 91.282 80.7783 89.3358 81.4047 87.1883C81.6731 86.2935 81.4494 86.0027 80.4428 86.025C64.9626 86.0698 49.4825 86.0474 33.98 86.0474C34.0024 85.5776 34.3603 85.3539 34.6735 85.1079C35.7696 84.2354 37.0224 83.8999 38.4093 83.8999C53.0841 83.9223 67.7589 83.8999 82.4561 83.8999C84.022 83.8999 84.4023 83.542 84.4023 82.0432C84.3799 63.0062 84.3352 43.9692 84.4023 24.9323C84.4246 20.8609 80.9796 18.1541 77.6912 18.1765C64.0455 18.2883 50.4221 18.266 36.7763 18.1989C33.0628 18.1765 30.0205 20.928 30.0205 24.8875C29.9981 46.6536 29.9981 68.3974 29.9981 90.1635C29.9981 90.4543 29.9981 90.7228 30.1324 91.0359C31.6983 95.1968 34.7854 96.964 38.8791 96.9417C51.988 96.8298 65.1192 96.8969 78.2281 96.8969C79.794 96.8969 81.3599 96.8745 82.9258 96.8745C83.843 96.8745 84.447 96.4495 84.4918 95.5323C84.5365 94.6823 84.0443 94.1454 83.2167 93.9664C83.0377 93.8993 82.9035 93.877 82.7469 93.8546Z" fill="url(#paint0_linear_875_9690)"/>
<g filter="url(#filter0_dddddd_875_9690)">
<path d="M82.7467 93.8543C82.9033 93.8767 83.0375 93.8767 83.1941 93.9214C84.0441 94.1004 84.5363 94.6373 84.4692 95.4873C84.4021 96.4045 83.8204 96.8296 82.9033 96.8296C81.3374 96.8296 79.7715 96.8519 78.2055 96.8519C65.0967 96.8519 51.9654 96.7848 38.8565 96.8967C34.7852 96.919 31.6981 95.1518 30.1098 90.991C29.998 90.7001 29.9756 90.4317 29.9756 90.1185C29.9756 68.3524 29.9756 46.6086 29.998 24.8425C29.998 20.883 33.0627 18.1315 36.7537 18.1539C50.3995 18.221 64.0229 18.2433 77.6687 18.1315C80.9794 18.1091 84.4021 20.8159 84.3797 24.8873C84.3126 43.9242 84.3797 62.9612 84.3797 81.9982C84.3797 83.497 83.9994 83.8549 82.4335 83.8549C67.7587 83.8549 53.0839 83.8549 38.3867 83.8549C36.9998 83.8549 35.7471 84.2128 34.6509 85.0629C34.3378 85.3089 34.2259 85.5997 33.8904 86.0471C33.443 86.4722 33.264 86.9643 33.1745 87.5907C33.1074 87.8368 33.1074 87.8368 33.0627 88.0828C32.839 88.575 32.8837 89.0671 33.0179 89.5593C32.9284 89.8277 32.9508 90.0738 33.1745 90.2527C33.1745 90.3869 33.1745 90.5435 33.1745 90.6778C33.1521 91.1699 33.264 91.5502 33.8009 91.6844C34.9641 93.2727 36.5524 93.8767 38.521 93.8767C46.1715 93.832 53.8445 93.8767 61.4951 93.8543C68.6088 93.8991 75.6777 93.8767 82.7467 93.8543Z" fill="#FD533B"/>
<path d="M33.2193 87.6353C33.3087 87.0313 33.5548 86.4721 34.0022 86.047C49.4823 86.047 64.9625 86.0694 80.465 86.0247C81.4716 86.0247 81.6729 86.2931 81.4269 87.1879C80.8005 89.3354 81.4269 91.2816 82.4559 93.1607C82.5901 93.3844 82.7691 93.5634 82.7691 93.8542C75.7001 93.8766 68.6312 93.8766 61.5622 93.8989C53.9116 93.8989 46.2387 93.8766 38.5881 93.9213C36.6195 93.9213 35.0536 93.3173 33.868 91.729C33.7785 91.3264 33.7114 90.9013 33.2416 90.7224C33.2416 90.5882 33.2416 90.4316 33.2416 90.2974C33.4877 89.9842 33.3982 89.7605 33.085 89.6039C32.9508 89.1117 32.9285 88.6196 33.1298 88.1274C33.3087 87.9932 33.443 87.859 33.2193 87.6353Z" fill="#FEFEFE"/>
</g>
</g>
<defs>
<filter id="filter0_dddddd_875_9690" x="12.0795" y="18.1313" width="90.2922" height="119.032" filterUnits="userSpaceOnUse" color-interpolation-filters="sRGB">
<feFlood flood-opacity="0" result="BackgroundImageFix"/>
<feColorMatrix in="SourceAlpha" type="matrix" values="0 0 0 0 0 0 0 0 0 0 0 0 0 0 0 0 0 0 127 0" result="hardAlpha"/>
<feOffset dy="0.619038"/>
<feGaussianBlur stdDeviation="0.247615"/>
<feColorMatrix type="matrix" values="0 0 0 0 0 0 0 0 0 0 0 0 0 0 0 0 0 0 0.0196802 0"/>
<feBlend mode="normal" in2="BackgroundImageFix" result="effect1_dropShadow_875_9690"/>
<feColorMatrix in="SourceAlpha" type="matrix" values="0 0 0 0 0 0 0 0 0 0 0 0 0 0 0 0 0 0 127 0" result="hardAlpha"/>
<feOffset dy="1.48764"/>
<feGaussianBlur stdDeviation="0.595054"/>
<feColorMatrix type="matrix" values="0 0 0 0 0 0 0 0 0 0 0 0 0 0 0 0 0 0 0.0282725 0"/>
<feBlend mode="normal" in2="effect1_dropShadow_875_9690" result="effect2_dropShadow_875_9690"/>
<feColorMatrix in="SourceAlpha" type="matrix" values="0 0 0 0 0 0 0 0 0 0 0 0 0 0 0 0 0 0 127 0" result="hardAlpha"/>
<feOffset dy="2.80109"/>
<feGaussianBlur stdDeviation="1.12043"/>
<feColorMatrix type="matrix" values="0 0 0 0 0 0 0 0 0 0 0 0 0 0 0 0 0 0 0.035 0"/>
<feBlend mode="normal" in2="effect2_dropShadow_875_9690" result="effect3_dropShadow_875_9690"/>
<feColorMatrix in="SourceAlpha" type="matrix" values="0 0 0 0 0 0 0 0 0 0 0 0 0 0 0 0 0 0 127 0" result="hardAlpha"/>
<feOffset dy="4.99666"/>
<feGaussianBlur stdDeviation="1.99866"/>
<feColorMatrix type="matrix" values="0 0 0 0 0 0 0 0 0 0 0 0 0 0 0 0 0 0 0.0417275 0"/>
<feBlend mode="normal" in2="effect3_dropShadow_875_9690" result="effect4_dropShadow_875_9690"/>
<feColorMatrix in="SourceAlpha" type="matrix" values="0 0 0 0 0 0 0 0 0 0 0 0 0 0 0 0 0 0 127 0" result="hardAlpha"/>
<feOffset dy="9.3457"/>
<feGaussianBlur stdDeviation="3.73828"/>
<feColorMatrix type="matrix" values="0 0 0 0 0 0 0 0 0 0 0 0 0 0 0 0 0 0 0.0503198 0"/>
<feBlend mode="normal" in2="effect4_dropShadow_875_9690" result="effect5_dropShadow_875_9690"/>
<feColorMatrix in="SourceAlpha" type="matrix" values="0 0 0 0 0 0 0 0 0 0 0 0 0 0 0 0 0 0 127 0" result="hardAlpha"/>
<feOffset dy="22.3701"/>
<feGaussianBlur stdDeviation="8.94805"/>
<feColorMatrix type="matrix" values="0 0 0 0 0 0 0 0 0 0 0 0 0 0 0 0 0 0 0.07 0"/>
<feBlend mode="normal" in2="effect5_dropShadow_875_9690" result="effect6_dropShadow_875_9690"/>
<feBlend mode="normal" in="SourceGraphic" in2="effect6_dropShadow_875_9690" result="shape"/>
</filter>
<linearGradient id="paint0_linear_875_9690" x1="111.627" y1="-3.88044" x2="-0.000171063" y2="114.681" gradientUnits="userSpaceOnUse">
<stop stop-color="#ECD8BD"/>
<stop offset="1" stop-color="#E6CEAF"/>
</linearGradient>
<clipPath id="clip0_875_9690">
<rect width="114.58" height="114.58" fill="white" transform="translate(0 0.146484)"/>
</clipPath>
</defs>
</svg>
