<svg width="254" height="435" viewBox="0 0 254 435" fill="none" xmlns="http://www.w3.org/2000/svg">
<path d="M119.534 278.943L23.9605 274.536H21.049C13.3042 273.219 6.62239 268.354 2.98106 261.396C-0.690812 254.411 -0.831479 246.099 2.60606 238.995L122.075 10.5945C126.211 2.54758 135.559 -1.33255 144.185 1.42265C152.804 4.17785 158.169 12.7664 156.867 21.72L134.471 157.093L229.82 161.5H232.732C240.477 162.823 247.158 167.682 250.8 174.64C254.368 181.682 254.368 190 250.8 197.042L131.33 425.522C126.919 432.891 118.013 436.235 109.841 433.595C101.669 430.959 96.4038 423.027 97.1381 414.475L119.534 278.943Z" fill="black"/>
</svg>
