<svg width="56" height="57" viewBox="0 0 56 57" fill="none" xmlns="http://www.w3.org/2000/svg">
<path d="M0.00741341 26.5195C0.056269 23.3276 -0.0902978 18.6864 0.105125 14.0451C0.186551 12.1071 0.414543 10.1366 1.21252 8.4104C3.29702 3.91569 6.83091 1.09835 11.8468 0.316657C13.1007 0.121234 14.371 0.00723787 15.6575 0.00723787C23.8815 0.00723787 32.0893 -0.00904733 40.3133 0.00723787C43.1469 0.0235231 45.948 0.332942 48.521 1.71718C52.576 3.88312 54.9374 7.25415 55.6539 11.7977C55.9145 13.4914 55.9959 15.185 55.9959 16.8787C55.9959 24.663 56.0122 32.4474 55.9796 40.2317C55.9796 42.4302 55.8168 44.6287 55.0514 46.7295C52.9832 52.299 48.8304 55.1652 43.0329 55.8329C41.8441 55.9632 40.6553 56.012 39.4665 56.012C31.5681 56.012 23.6861 56.0283 15.7878 55.9958C13.2636 55.9795 10.7394 55.7515 8.39429 54.6929C3.67158 52.5759 1.04967 48.8954 0.316832 43.8144C0.105125 42.3976 0.0399838 40.9482 0.0399838 39.5151C-0.00887179 35.6718 0.00741341 31.8122 0.00741341 26.5195ZM22.6927 22.5785C22.139 22.8065 21.911 23.3276 21.6993 23.7999C20.6245 26.0961 19.5822 28.3923 18.54 30.7048C17.1883 33.7013 15.8529 36.6978 14.5012 39.6943C14.2732 40.1991 14.143 40.7691 14.5501 41.1925C14.9898 41.6485 15.5598 41.6974 16.1949 41.4042C17.514 40.7854 18.8494 40.1991 20.2011 39.6291C24.0607 37.9843 27.8062 36.1115 31.7147 34.5807C32.301 34.3527 33.0989 34.0596 33.3595 33.2779C33.9458 32.9522 34.19 32.3822 34.4506 31.8122C36.7794 26.5847 39.1082 21.3409 41.437 16.097C41.665 15.5922 41.7464 15.1036 41.2904 14.6802C40.8507 14.2731 40.3621 14.3219 39.8573 14.5336C34.5483 16.9113 29.2231 19.2889 23.9141 21.6666C23.4255 21.8783 22.9695 22.1063 22.6927 22.5785Z" fill="#252B32"/>
<path d="M33.3432 33.2779C33.0664 34.0596 32.2847 34.3365 31.6984 34.5807C27.79 36.1116 24.0444 37.9844 20.1848 39.6292C18.8494 40.1991 17.514 40.7854 16.1786 41.4042C15.5598 41.6974 14.9735 41.6485 14.5338 41.1925C14.143 40.7691 14.257 40.1991 14.4849 39.6943C15.8203 36.6978 17.172 33.7013 18.5237 30.7049C19.5659 28.3924 20.6245 26.0962 21.683 23.7999C21.911 23.3277 22.1227 22.8065 22.6764 22.5786C23.6698 23.7185 24.712 24.7933 25.8683 25.7705C25.8032 25.8844 25.7706 26.0147 25.6892 26.1124C24.6143 27.4478 24.826 29.1415 25.9334 30.2163C26.8454 31.0794 28.5391 31.5191 30.0862 30.1349C31.1773 31.1934 32.2521 32.2357 33.3432 33.2779Z" fill="#F7F7F8"/>
<path d="M25.8683 25.7704C24.712 24.7933 23.6698 23.7185 22.6764 22.5785C22.9532 22.1063 23.4255 21.8783 23.8815 21.6666C29.1905 19.2889 34.4994 16.9113 39.8247 14.5337C40.3295 14.3057 40.8181 14.2568 41.2578 14.6802C41.7138 15.1036 41.6161 15.5922 41.4044 16.097C39.0756 21.3409 36.7468 26.5684 34.418 31.8123C34.1737 32.3822 33.9132 32.9522 33.3269 33.2779C32.2358 32.2357 31.161 31.1934 30.0699 30.1349C30.2002 29.9232 30.3142 29.7115 30.4444 29.516C31.5355 27.8549 30.6887 25.6402 28.7833 25.1353C27.7248 24.8748 26.764 25.2005 25.8683 25.7704Z" fill="#FB4546"/>
<path d="M25.8683 25.7704C26.764 25.1841 27.7248 24.8584 28.7833 25.1353C30.6887 25.6401 31.5355 27.8549 30.4444 29.516C30.3142 29.7114 30.2002 29.9231 30.0699 30.1348C28.5228 31.5354 26.8291 31.0957 25.9172 30.2163C24.7935 29.1415 24.5981 27.4478 25.6729 26.1124C25.7706 26.031 25.8194 25.9007 25.8683 25.7704Z" fill="#252B32"/>
</svg>
