<svg width="22" height="18" viewBox="0 0 22 18" fill="none" xmlns="http://www.w3.org/2000/svg">
<path fill-rule="evenodd" clip-rule="evenodd" d="M8.79024 6.99341C8.58418 6.99341 8.38644 7.07528 8.24075 7.22115C8.09505 7.36684 8.01318 7.5644 8.01318 7.77046C8.01318 7.97669 8.09505 8.17425 8.24075 8.31994C8.38644 8.46564 8.58418 8.54751 8.79024 8.54751C8.99629 8.54751 9.19403 8.46564 9.33972 8.31994C9.48542 8.17425 9.56729 7.97669 9.56729 7.77046C9.56729 7.5644 9.48542 7.36684 9.33972 7.22115C9.19403 7.07527 8.99629 6.99341 8.79024 6.99341Z" fill="white"/>
<path fill-rule="evenodd" clip-rule="evenodd" d="M2.57384 0C1.29587 0 0.242676 1.0532 0.242676 2.33116V10.8787C0.242676 12.1567 1.29587 13.2099 2.57384 13.2099H4.12794V14.764C4.12794 16.042 5.18114 17.0952 6.4591 17.0952H19.669C20.2924 17.0952 20.8606 16.843 21.2809 16.438V16.4381C21.2937 16.4303 21.3064 16.4224 21.3187 16.4139C21.3513 16.3806 21.3806 16.3447 21.4068 16.3061C21.7738 15.8935 22.0002 15.3537 22.0002 14.764V6.21644C22.0002 4.93847 20.947 3.88528 19.669 3.88528H18.1149V2.33117C18.1149 1.05321 17.0617 1.05018e-05 15.7837 1.05018e-05L2.57384 0ZM2.57384 1.55411H15.7837C16.2276 1.55411 16.5608 1.8873 16.5608 2.33116V3.88527H6.4591C5.18114 3.88527 4.12794 4.93846 4.12794 6.21643V11.6558H2.57384C2.12998 11.6558 1.79678 11.3226 1.79678 10.8787V2.33116C1.79678 1.8873 2.12998 1.55411 2.57384 1.55411ZM6.4591 5.43937H19.669C20.1129 5.43937 20.4461 5.77257 20.4461 6.21643V14.4421L14.7789 8.77493V8.77511C14.6245 8.62108 14.4126 8.53904 14.1947 8.54893C13.9769 8.55864 13.7731 8.65941 13.6331 8.82662L10.2927 12.8363L8.56252 11.1061V11.1063C8.41682 10.9606 8.21926 10.8787 8.01321 10.8787C7.80716 10.8787 7.60959 10.9606 7.4639 11.1063L5.68205 12.8879V6.21638C5.68205 5.77252 6.01525 5.43933 6.4591 5.43933V5.43937ZM14.2811 10.4751L19.3471 15.5411H6.4591C6.1129 15.5411 5.83657 15.3369 5.73063 15.0372L8.01321 12.7546L9.79506 14.5365C9.94926 14.6906 10.1614 14.7729 10.3792 14.7632C10.5973 14.7533 10.8011 14.6523 10.9408 14.4848L14.2811 10.4751Z" fill="white"/>
</svg>
