<svg width="115" height="115" viewBox="0 0 115 115" fill="none" xmlns="http://www.w3.org/2000/svg">
<path d="M0.333528 54.4072C0.43349 47.8764 0.133604 38.38 0.533451 28.8837C0.700054 24.9185 1.16654 20.8867 2.79925 17.3547C7.06429 8.15824 14.2949 2.39377 24.5576 0.794385C27.1233 0.394538 29.7223 0.161294 32.3546 0.161294C49.1815 0.161294 65.9751 0.127973 82.802 0.161294C88.5998 0.194614 94.3309 0.827706 99.5956 3.65996C107.892 8.0916 112.724 14.989 114.19 24.2854C114.723 27.7508 114.89 31.2161 114.89 34.6814C114.89 50.6087 114.923 66.5359 114.856 82.4632C114.856 86.9615 114.523 91.4597 112.957 95.7581C108.725 107.154 100.229 113.018 88.3666 114.384C85.9342 114.651 83.5017 114.751 81.0693 114.751C64.9088 114.751 48.7817 114.784 32.6212 114.718C27.4565 114.684 22.2918 114.218 17.4936 112.052C7.83066 107.72 2.46605 100.19 0.966619 89.7937C0.533451 86.8948 0.400169 83.9293 0.400169 80.9971C0.300207 73.1334 0.333528 65.2364 0.333528 54.4072ZM46.7491 46.3437C45.6162 46.8101 45.1497 47.8764 44.7166 48.8427C42.5174 53.5409 40.3849 58.2391 38.2524 62.9706C35.4868 69.1016 32.7545 75.2326 29.9889 81.3636C29.5224 82.3966 29.2558 83.5628 30.0888 84.4291C30.9885 85.3621 32.1547 85.462 33.4542 84.8623C36.1532 83.5961 38.8855 82.3966 41.6511 81.2303C49.5481 77.865 57.2118 74.0331 65.2087 70.9009C66.4083 70.4345 68.041 69.8347 68.5741 68.2353C69.7737 67.5689 70.2735 66.4027 70.8066 65.2364C75.5714 54.5405 80.3363 43.8113 85.1011 33.0821C85.5676 32.0491 85.7342 31.0495 84.8012 30.1832C83.9016 29.3501 82.902 29.4501 81.869 29.8833C71.0065 34.7481 60.1107 39.6129 49.2482 44.4777C48.2486 44.9109 47.3156 45.3774 46.7491 46.3437Z" fill="#252B32"/>
<path d="M68.5397 68.2351C67.9733 69.8345 66.3739 70.401 65.1743 70.9008C57.1774 74.0329 49.5137 77.8648 41.6167 81.2302C38.8844 82.3964 36.1521 83.5959 33.4198 84.8621C32.1536 85.4619 30.9541 85.3619 30.0544 84.4289C29.2547 83.5626 29.488 82.3964 29.9545 81.3635C32.6867 75.2325 35.4524 69.1015 38.218 62.9705C40.3505 58.239 42.5163 53.5408 44.6822 48.8426C45.1487 47.8763 45.5818 46.81 46.7147 46.3435C48.7473 48.6759 50.8798 50.8751 53.2456 52.8743C53.1123 53.1076 53.0456 53.3742 52.879 53.5741C50.6799 56.3064 51.113 59.7717 53.3788 61.9709C55.2448 63.7369 58.7101 64.6365 61.8756 61.8043C64.1081 63.9701 66.3072 66.1026 68.5397 68.2351Z" fill="#F7F7F8"/>
<path d="M53.2467 52.8743C50.8809 50.8751 48.7484 48.6759 46.7158 46.3435C47.2823 45.3772 48.2486 44.9107 49.1815 44.4775C60.0441 39.6127 70.9066 34.7479 81.8024 29.8831C82.8354 29.4166 83.835 29.3167 84.7346 30.183C85.6676 31.0493 85.4677 32.0489 85.0345 33.0819C80.2697 43.8111 75.5048 54.507 70.74 65.2363C70.2402 66.4025 69.707 67.5687 68.5075 68.2351C66.275 66.1026 64.0759 63.9701 61.8434 61.8042C62.1099 61.3711 62.3432 60.9379 62.6097 60.5381C64.8422 57.1394 63.1096 52.6078 59.211 51.5748C57.0452 51.0417 55.0793 51.7081 53.2467 52.8743Z" fill="#FB4546"/>
<path d="M53.2442 52.8744C55.0768 51.6748 57.0428 51.0084 59.2086 51.5749C63.1071 52.6078 64.8398 57.1394 62.6073 60.5381C62.3407 60.938 62.1075 61.3711 61.8409 61.8043C58.6755 64.6699 55.2101 63.7702 53.3442 61.9709C51.045 59.7717 50.6452 56.3064 52.8444 53.5741C53.0443 53.4075 53.1442 53.1409 53.2442 52.8744Z" fill="#252B32"/>
</svg>
