<svg width="90" height="122" viewBox="0 0 90 122" fill="none" xmlns="http://www.w3.org/2000/svg">
<path d="M68.0001 1.20001H1.1001V121.3H88.8001V22L68.0001 1.20001Z" fill="white"/>
<path d="M67.8001 1.20001H1.1001V13.4H67.8001V1.20001Z" fill="#E8E8E8"/>
<path d="M11.7002 7.90002C11.7002 9.00002 10.8002 9.90002 9.7002 9.90002C8.6002 9.90002 7.7002 9.00002 7.7002 7.90002C7.7002 6.80002 8.6002 5.90002 9.7002 5.90002C10.8002 5.90002 11.7002 6.80002 11.7002 7.90002Z" fill="#D25622"/>
<path d="M18.6001 7.90002C18.6001 9.00002 17.7001 9.90002 16.6001 9.90002C15.5001 9.90002 14.6001 9.00002 14.6001 7.90002C14.6001 6.80002 15.5001 5.90002 16.6001 5.90002C17.7001 5.90002 18.6001 6.80002 18.6001 7.90002Z" fill="#F29C2B"/>
<path d="M25.6001 7.90002C25.6001 9.00002 24.7001 9.90002 23.6001 9.90002C22.5001 9.90002 21.6001 9.00002 21.6001 7.90002C21.6001 6.80002 22.5001 5.90002 23.6001 5.90002C24.7001 5.90002 25.6001 6.80002 25.6001 7.90002Z" fill="#55B06E"/>
<path d="M66.9002 3.70001L86.3002 23V118.7H3.60019V3.70001H66.9002ZM68.0002 1.20001H1.2002V121.3H88.9002V22L68.0002 1.20001Z" fill="#E7E7E7"/>
<path d="M67.7998 1.29999V22.2H88.6998L67.7998 1.29999Z" fill="#ECECED"/>
<path d="M88.8 122.4H1.10001C0.500006 122.4 0 121.9 0 121.2V1.2C0 0.6 0.500006 0 1.10001 0H67.9C68.2 0 68.5 0.1 68.7 0.3L89.6 21.2C89.8 21.4 89.9 21.7 89.9 22V121.3C90 121.9 89.5 122.4 88.8 122.4ZM2.30002 120.1H87.7V22.5L67.5 2.3H2.30002V120.1Z" fill="#221816"/>
<path d="M88.4998 23.1H67.9998C67.3998 23.1 66.7998 22.6 66.7998 22V1.49999C66.7998 0.899988 67.2998 0.299988 67.9998 0.299988C68.5998 0.299988 69.0998 0.799988 69.0998 1.49999V20.8H88.4998C89.0998 20.8 89.6998 21.3 89.6998 22C89.6998 22.6 89.0998 23.1 88.4998 23.1Z" fill="#221816"/>
<g filter="url(#filter0_dddddd_267_6638)">
<path d="M54.9985 90.0973H36.5555C35.6097 90.0973 34.9004 89.3879 34.9004 88.4421C34.9004 87.4963 35.6097 86.787 36.5555 86.787H54.9985C55.9443 86.787 56.6537 87.4963 56.6537 88.4421C56.6537 89.3879 55.7079 90.0973 54.9985 90.0973Z" fill="#475C65"/>
<path d="M51.9252 105.466H39.3934C38.4476 105.466 37.7383 104.757 37.7383 103.811C37.7383 102.865 38.4476 102.156 39.3934 102.156H51.9252C52.871 102.156 53.5803 102.865 53.5803 103.811C53.5803 104.757 52.871 105.466 51.9252 105.466Z" fill="#475C65"/>
<path d="M40.8115 106.649C41.7573 108.304 43.6489 109.723 45.7769 109.723C47.905 109.723 49.7966 108.54 50.7424 106.649C50.5059 106.649 40.8115 106.649 40.8115 106.649Z" fill="#475C65"/>
<path d="M43.6494 22.9457V30.5121C43.6494 30.985 44.1223 31.4579 44.8317 31.4579C45.541 31.4579 46.0139 30.985 46.0139 30.5121V22.9457C46.0139 22.4728 45.541 21.9999 44.8317 21.9999C44.1223 21.9999 43.6494 22.4728 43.6494 22.9457Z" fill="#475C65"/>
<path d="M17.8761 34.7683L23.3144 40.2066C23.7873 40.6795 24.4966 40.6795 24.9695 40.2066C25.4424 39.7337 25.4424 39.0244 24.9695 38.5515L19.5312 33.1132C19.0583 32.6403 18.349 32.6403 17.8761 33.1132C17.6396 33.8225 17.4032 34.5318 17.8761 34.7683Z" fill="#475C65"/>
<path d="M7.94579 61.2504H15.5122C15.985 61.2504 16.4579 60.7775 16.4579 60.0681C16.4579 59.3588 15.985 58.8859 15.5122 58.8859H7.94579C7.4729 58.8859 7 59.3588 7 60.0681C7 60.7775 7.4729 61.2504 7.94579 61.2504Z" fill="#475C65"/>
<path d="M19.7676 87.0233L25.2059 81.5849C25.6788 81.1121 25.6788 80.4027 25.2059 79.9298C24.733 79.4569 24.0237 79.4569 23.5508 79.9298L18.1125 85.3681C17.6396 85.841 17.6396 86.5504 18.1125 87.0233C18.8218 87.4962 19.5312 87.4962 19.7676 87.0233Z" fill="#475C65"/>
<path d="M72.0233 85.1317L66.585 79.6934C66.1121 79.2205 65.4028 79.2205 64.9299 79.6934C64.457 80.1663 64.457 80.8757 64.9299 81.3486L70.3682 86.7869C70.8411 87.2598 71.5504 87.2598 72.0233 86.7869C72.4962 86.314 72.4962 85.6046 72.0233 85.1317Z" fill="#475C65"/>
<path d="M81.9545 58.6495H74.3882C73.9153 58.6495 73.4424 59.1224 73.4424 59.8317C73.4424 60.5411 73.9153 61.014 74.3882 61.014H81.9545C82.4274 61.014 82.9003 60.5411 82.9003 59.8317C82.9003 59.1224 82.4274 58.6495 81.9545 58.6495Z" fill="#475C65"/>
<path d="M70.1319 32.8765L64.6935 38.3148C64.2206 38.7877 64.2206 39.497 64.6935 39.9699C65.1664 40.4428 65.8758 40.4428 66.3487 39.9699L71.787 34.5316C72.2599 34.0587 72.2599 33.3494 71.787 32.8765C71.3141 32.64 70.6048 32.4036 70.1319 32.8765Z" fill="#475C65"/>
<path d="M42.2302 99.3187C42.2302 99.7916 41.7573 100.028 41.0479 100.028H37.2648C36.5554 100.028 36.0825 99.7916 36.0825 99.3187V97.4271H37.9741V99.0822H40.1021V97.4271L36.5554 95.0626C36.319 94.8262 36.0825 94.5897 36.0825 94.3533V92.4617C36.0825 91.9888 36.5554 91.7523 37.2648 91.7523H41.0479C41.7573 91.7523 42.2302 91.9888 42.2302 92.4617V94.3533H40.3386V92.9346H38.2106V94.3533L41.7573 96.7177C41.9937 96.9542 42.2302 97.1906 42.2302 97.4271V99.3187Z" fill="#475C65"/>
<path d="M46.0146 91.7523H44.123V100.028H46.0146V91.7523Z" fill="#475C65"/>
<path d="M53.8171 100.028H52.162V96.4813H49.561V100.028H47.6694V91.7523H49.561V95.299H52.162V91.7523H53.8171V100.028Z" fill="#475C65"/>
<path d="M54.7636 80.1663C54.7636 80.1663 55.9459 81.8215 58.7833 80.6392C61.6206 79.457 61.1477 76.3832 61.1477 76.1467L60.9113 74.9645L62.0935 75.4374C62.0935 75.4374 63.7487 76.1467 65.6403 74.2551C67.2954 72.3635 66.3496 69.0532 66.3496 69.0532L66.1132 68.3439L66.8225 68.1075C66.8225 68.1075 69.187 67.3981 70.1328 65.0336C70.8421 62.6691 68.4776 60.3046 68.4776 60.3046L67.7683 59.5953L68.7141 59.1224C68.7141 59.1224 70.8421 57.9402 70.1328 55.3392C69.6599 52.5018 66.8225 51.7925 66.8225 51.7925L65.8767 51.556L66.3496 50.6103C66.3496 50.6103 66.3496 50.3738 66.5861 50.3738C67.059 49.6645 67.7683 48.2458 66.5861 46.1177C65.4038 44.2261 62.33 44.2261 62.0935 44.2261H61.1477V43.2803C61.1477 43.2803 61.3842 41.1523 59.9655 39.4972C58.0739 37.3691 55.2365 38.5514 55.0001 38.5514L53.8178 39.0243V37.842C53.8178 37.842 53.8178 37.1327 53.3449 36.6598C53.1085 36.4233 52.3991 36.1869 51.4533 36.1869C48.616 36.1869 48.1431 37.842 48.1431 41.6252V79.457C48.1431 80.1663 48.3795 83.0037 50.9805 83.0037C53.1085 83.0037 53.5814 80.8757 53.5814 80.6392L53.8178 78.9841L54.7636 80.1663Z" fill="#128C45"/>
<path d="M49.7981 51.0833C49.5616 51.0833 49.3252 50.8468 49.3252 50.6104V46.8272C49.3252 46.5908 49.5616 46.3543 49.7981 46.3543H50.9803C51.2168 46.3543 51.4532 46.5908 51.4532 46.8272V50.6104C51.4532 50.8468 51.2168 51.0833 50.9803 51.0833H49.7981ZM49.7981 50.6104H50.9803V46.8272H49.7981V50.6104Z" fill="white"/>
<path d="M54.0536 46.3543H53.8171C53.8171 47.0637 53.3442 47.773 53.3442 47.773H53.8171V51.0833H54.29L54.0536 46.3543Z" fill="white"/>
<path d="M56.655 51.0833C56.4186 51.0833 56.1821 50.8468 56.1821 50.6104V46.8272C56.1821 46.5908 56.4186 46.3543 56.655 46.3543H57.8373C58.0737 46.3543 58.3102 46.5908 58.3102 46.8272V50.6104C58.3102 50.8468 58.0737 51.0833 57.8373 51.0833H56.655ZM56.655 50.6104H57.8373V46.8272H56.655V50.6104Z" fill="white"/>
<path d="M63.5115 51.0833C63.275 51.0833 63.0386 50.8468 63.0386 50.6104V46.8272C63.0386 46.5908 63.275 46.3543 63.5115 46.3543H64.6937C64.9302 46.3543 65.1666 46.5908 65.1666 46.8272V50.6104C65.1666 50.8468 64.9302 51.0833 64.6937 51.0833H63.5115ZM63.5115 50.6104H64.6937V46.8272H63.5115V50.6104Z" fill="white"/>
<path d="M60.91 46.3543H60.6736C60.6736 47.0637 60.2007 47.773 60.2007 47.773H60.6736V51.0833H61.1465L60.91 46.3543Z" fill="white"/>
<path d="M50.2699 38.7881H50.0334C50.0334 39.4974 49.5605 40.2068 49.5605 40.2068H50.0334V43.5171H50.5063L50.2699 38.7881Z" fill="white"/>
<path d="M53.1082 43.5171C52.8717 43.5171 52.6353 43.2806 52.6353 43.0442V39.261C52.6353 39.0245 52.8717 38.7881 53.1082 38.7881H54.2904C54.5268 38.7881 54.7633 39.0245 54.7633 39.261V43.0442C54.7633 43.2806 54.5268 43.5171 54.2904 43.5171H53.1082ZM53.1082 43.0442H54.2904V39.261H53.1082V43.0442Z" fill="white"/>
<path d="M59.4915 43.5171C59.255 43.5171 59.0186 43.2806 59.0186 43.0442V39.261C59.0186 39.0245 59.255 38.7881 59.4915 38.7881H60.6737C60.9101 38.7881 61.1466 39.0245 61.1466 39.261V43.0442C61.1466 43.2806 60.9101 43.5171 60.6737 43.5171H59.4915ZM59.4915 43.0442H60.6737V39.261H59.4915V43.0442Z" fill="white"/>
<path d="M57.1278 38.7881H56.8914C56.8914 39.4974 56.4185 40.2068 56.4185 40.2068H56.8914V43.5171H57.3643L57.1278 38.7881Z" fill="white"/>
<path d="M49.5613 65.743C49.3248 65.743 49.0884 65.5066 49.0884 65.2701V61.4869C49.0884 61.2505 49.3248 61.014 49.5613 61.014H50.7435C50.98 61.014 51.2164 61.2505 51.2164 61.4869V65.2701C51.2164 65.5066 50.98 65.743 50.7435 65.743H49.5613ZM49.5613 65.2701H50.7435V61.4869H49.5613V65.2701Z" fill="white"/>
<path d="M53.8168 61.2507H53.5803C53.5803 61.9601 53.1074 62.6694 53.1074 62.6694H53.5803V65.9797H54.0532L53.8168 61.2507Z" fill="white"/>
<path d="M56.4182 65.743C56.1818 65.743 55.9453 65.5066 55.9453 65.2701V61.4869C55.9453 61.2505 56.1818 61.014 56.4182 61.014H57.6005C57.8369 61.014 58.0733 61.2505 58.0733 61.4869V65.2701C58.0733 65.5066 57.8369 65.743 57.6005 65.743H56.4182ZM56.4182 65.2701H57.6005V61.4869H56.4182V65.2701Z" fill="white"/>
<path d="M50.2703 80.6394C50.0338 80.6394 49.7974 80.4029 49.7974 80.1665V76.3833C49.7974 76.1469 50.0338 75.9104 50.2703 75.9104H51.4525C51.6889 75.9104 51.9254 76.1469 51.9254 76.3833V80.1665C51.9254 80.4029 51.6889 80.6394 51.4525 80.6394H50.2703ZM50.2703 80.1665H51.4525V76.3833H50.2703V80.1665Z" fill="white"/>
<path d="M54.5267 75.9104H54.2903C54.2903 76.6197 53.8174 77.3291 53.8174 77.3291H54.2903V80.6394H54.7632L54.5267 75.9104Z" fill="white"/>
<path d="M57.1272 80.6394C56.8907 80.6394 56.6543 80.4029 56.6543 80.1665V76.3833C56.6543 76.1469 56.8907 75.9104 57.1272 75.9104H58.3094C58.5459 75.9104 58.7823 76.1469 58.7823 76.3833V80.1665C58.7823 80.4029 58.5459 80.6394 58.3094 80.6394H57.1272ZM57.1272 80.1665H58.3094V76.3833H57.1272V80.1665Z" fill="white"/>
<path d="M63.2751 65.743C63.0387 65.743 62.8022 65.5066 62.8022 65.2701V61.4869C62.8022 61.2505 63.0387 61.014 63.2751 61.014H64.4574C64.6938 61.014 64.9303 61.2505 64.9303 61.4869V65.2701C64.9303 65.5066 64.6938 65.743 64.4574 65.743H63.2751ZM63.2751 65.2701H64.4574V61.4869H63.2751V65.2701Z" fill="white"/>
<path d="M60.6747 61.2507H60.4382C60.4382 61.9601 59.9653 62.6694 59.9653 62.6694H60.4382V65.9797H60.9111L60.6747 61.2507Z" fill="white"/>
<path d="M67.2948 61.2507H67.0583C67.0583 61.9601 66.5854 62.6694 66.5854 62.6694H67.0583V65.9797H67.5312L67.2948 61.2507Z" fill="white"/>
<path d="M50.2699 53.6842H50.0334C50.0334 54.3935 49.5605 55.1029 49.5605 55.1029H50.0334V58.4132H50.5063L50.2699 53.6842Z" fill="white"/>
<path d="M53.1082 58.4132C52.8717 58.4132 52.6353 58.1767 52.6353 57.9403V54.1571C52.6353 53.9207 52.8717 53.6842 53.1082 53.6842H54.2904C54.5268 53.6842 54.7633 53.9207 54.7633 54.1571V57.9403C54.7633 58.1767 54.5268 58.4132 54.2904 58.4132H53.1082ZM53.1082 57.9403H54.2904V54.1571H53.1082V57.9403Z" fill="white"/>
<path d="M59.7283 58.4132C59.4918 58.4132 59.2554 58.1767 59.2554 57.9403V54.1571C59.2554 53.9207 59.4918 53.6842 59.7283 53.6842H60.9105C61.147 53.6842 61.3834 53.9207 61.3834 54.1571V57.9403C61.3834 58.1767 61.147 58.4132 60.9105 58.4132H59.7283ZM59.7283 57.9403H60.9105V54.1571H59.7283V57.9403Z" fill="white"/>
<path d="M57.1278 53.6842H56.8914C56.8914 54.3935 56.4185 55.1029 56.4185 55.1029H56.8914V58.4132H57.3643L57.1278 53.6842Z" fill="white"/>
<path d="M66.5847 58.4132C66.3483 58.4132 66.1118 58.1767 66.1118 57.9403V54.1571C66.1118 53.9207 66.3483 53.6842 66.5847 53.6842H67.767C68.0034 53.6842 68.2399 53.9207 68.2399 54.1571V57.9403C68.2399 58.1767 68.0034 58.4132 67.767 58.4132H66.5847ZM66.5847 57.9403H67.767V54.1571H66.5847V57.9403Z" fill="white"/>
<path d="M63.9847 53.6842H63.7483C63.7483 54.3935 63.2754 55.1029 63.2754 55.1029H63.7483V58.4132H64.2212L63.9847 53.6842Z" fill="white"/>
<path d="M50.2699 68.5806H50.0334C50.0334 69.2899 49.5605 69.9993 49.5605 69.9993H50.0334V73.3095H50.5063L50.2699 68.5806Z" fill="white"/>
<path d="M53.1082 73.3095C52.8717 73.3095 52.6353 73.0731 52.6353 72.8366V69.0535C52.6353 68.817 52.8717 68.5806 53.1082 68.5806H54.2904C54.5268 68.5806 54.7633 68.817 54.7633 69.0535V72.8366C54.7633 73.0731 54.5268 73.3095 54.2904 73.3095H53.1082ZM53.1082 72.8366H54.2904V69.0535H53.1082V72.8366Z" fill="white"/>
<path d="M59.7283 73.3095C59.4918 73.3095 59.2554 73.0731 59.2554 72.8366V69.0535C59.2554 68.817 59.4918 68.5806 59.7283 68.5806H60.9105C61.147 68.5806 61.3834 68.817 61.3834 69.0535V72.8366C61.3834 73.0731 61.147 73.3095 60.9105 73.3095H59.7283ZM59.7283 72.8366H60.9105V69.0535H59.7283V72.8366Z" fill="white"/>
<path d="M57.1278 68.5806H56.8914C56.8914 69.2899 56.4185 69.9993 56.4185 69.9993H56.8914V73.3095H57.3643L57.1278 68.5806Z" fill="white"/>
<path d="M63.9847 68.5806H63.7483C63.7483 69.2899 63.2754 69.9993 63.2754 69.9993H63.7483V73.3095H64.2212L63.9847 68.5806Z" fill="white"/>
<path d="M36.0839 78.9841L36.3204 80.6392C36.3204 80.6392 36.7933 83.0037 38.9213 83.0037C41.5223 83.0037 41.7587 79.9299 41.7587 79.457V41.6252C41.7587 37.842 41.2858 36.1869 38.4484 36.1869C37.5026 36.1869 36.7933 36.4233 36.3204 36.8962C35.8475 37.3691 35.8475 38.0785 35.8475 38.0785V39.2607L34.6652 38.7878C34.6652 38.7878 31.8279 37.6056 29.6998 39.7336C28.5176 41.1523 28.754 43.2803 28.754 43.2803V44.2261H27.8082C27.8082 44.2261 24.7344 44.2261 23.3157 46.1177C21.897 48.2458 22.8428 49.9009 23.3157 50.3738C23.3157 50.3738 23.3157 50.6103 23.5522 50.6103L24.0251 51.556L23.0793 51.7925C23.0793 51.7925 20.2419 52.5018 19.769 55.3392C19.2961 57.9402 21.1877 59.1224 21.1877 59.1224L22.1335 59.5953L21.4241 60.3046C21.4241 60.3046 19.0596 62.6691 19.769 65.0336C20.4783 67.3981 22.8428 68.1075 23.0793 68.1075L23.7886 68.3439L23.5522 69.0532C23.5522 69.0532 22.6064 72.3635 24.2615 74.2551C25.9166 76.1467 27.8082 75.4374 27.8082 75.4374L28.9905 74.9645L28.754 76.3832C28.754 76.6196 28.2811 79.6934 31.1185 80.8757C33.9559 82.0579 35.1381 80.4028 35.1381 80.4028L36.0839 78.9841Z" fill="#EF8722"/>
<path d="M38.9202 35.7141H38.4473V42.3346L42.7033 46.1178L42.9398 45.8813L38.9202 42.0982V35.7141Z" fill="white"/>
<path d="M42.9407 43.2803L40.8126 41.3888V35.9504H40.5762V41.6252L42.4678 43.5168L42.9407 43.2803Z" fill="white"/>
<path d="M37.029 35.9504H36.5562V43.2803L42.4674 48.7187L42.7038 48.4822L37.029 43.0439V35.9504Z" fill="white"/>
<path d="M42.2307 61.96L42.4671 61.7235L35.1372 55.5759V47.3002C35.3736 47.3002 35.6101 46.8273 35.6101 46.5908C35.6101 46.1179 35.3736 45.8815 34.9008 45.8815C34.4279 45.8815 34.1914 46.1179 34.1914 46.5908C34.1914 46.8273 34.4279 47.3002 34.6643 47.3002V55.8123L42.2307 61.96Z" fill="white"/>
<path d="M33.0093 45.6449C33.2457 45.6449 33.4822 45.172 33.4822 44.9355C33.4822 44.4626 33.2457 44.2262 32.7728 44.2262C32.2999 44.2262 32.0635 44.4626 32.0635 44.9355C32.0635 45.172 32.2999 45.6449 32.5364 45.6449V56.758L42.2308 64.7972L42.4672 64.5608L33.0093 56.5215V45.6449Z" fill="white"/>
<path d="M21.4235 51.7927H21.187V67.6348H21.4235V51.7927Z" fill="white"/>
<path d="M29.2265 48.4824C29.463 48.4824 29.6994 48.0095 29.6994 47.7731C29.6994 47.3002 29.463 47.0637 28.9901 47.0637C28.5172 47.0637 28.2807 47.5366 28.2807 48.0095C28.2807 48.246 28.5172 48.7189 28.7536 48.7189V66.4525L22.606 71.6544H23.0789L29.2265 66.2161V58.4133L30.8817 59.8319V66.689L23.3153 73.0731L23.5518 73.546L31.3546 67.1619V60.3048L32.7732 61.4871V63.3787C32.5368 63.3787 32.3004 63.8516 32.3004 64.088C32.3004 64.5609 32.5368 64.7974 33.0097 64.7974C33.4826 64.7974 33.719 64.5609 33.719 64.088C33.719 63.8516 33.4826 63.3787 33.2461 63.3787V61.7235L34.9013 63.1422V80.6394H35.1377V63.3787L36.7929 64.7974V73.7824C36.5564 73.7824 36.32 74.2553 36.32 74.4918C36.32 74.9647 36.5564 75.2011 37.0293 75.2011C37.5022 75.2011 37.7387 74.9647 37.7387 74.4918C37.7387 74.2553 37.5022 73.7824 37.2658 73.7824V65.0338L38.6845 66.2161V71.4179C38.448 71.4179 38.2116 71.8908 38.2116 72.1273C38.2116 72.6002 38.448 72.8366 38.9209 72.8366C39.3938 72.8366 39.6303 72.6002 39.6303 72.1273C39.6303 71.8908 39.3938 71.4179 39.1574 71.4179V66.9254L40.8125 68.3441V74.9647C40.5761 74.9647 40.3396 75.4376 40.3396 75.674C40.3396 76.1469 40.5761 76.3833 41.0489 76.3833C41.5218 76.3833 41.7583 76.1469 41.7583 75.674C41.7583 75.4376 41.5218 74.9647 41.2854 74.9647V68.817L42.7041 69.9992L42.9405 69.7628L29.6994 58.6497L29.2265 48.4824Z" fill="white"/>
<path d="M33.009 41.8617C33.4819 41.8617 33.7184 41.6253 33.7184 41.1524C33.7184 40.9159 33.4819 40.443 33.2455 40.443V38.0786H33.009V40.443C32.7726 40.443 32.5361 40.9159 32.5361 41.1524C32.2997 41.3888 32.5361 41.8617 33.009 41.8617Z" fill="white"/>
<path d="M31.1179 54.3934C31.5908 54.3934 31.8272 54.157 31.8272 53.6841C31.8272 53.4477 31.5908 52.9748 31.3544 52.9748V38.3149H31.1179V52.9748C30.8815 52.9748 30.645 53.4477 30.645 53.6841C30.4086 54.157 30.645 54.3934 31.1179 54.3934Z" fill="white"/>
<path d="M31.1175 58.1767C31.354 58.1767 31.354 58.1767 31.5904 58.1767L42.2306 67.1618L42.4671 66.9253L31.8269 57.9403C31.8269 57.9403 31.8269 57.7039 31.8269 57.4674C31.8269 56.9945 31.5904 56.7581 31.1175 56.7581C30.6447 56.7581 30.4082 57.231 30.4082 57.4674C30.4082 57.9403 30.6447 58.1767 31.1175 58.1767Z" fill="white"/>
<path d="M25.2063 56.9944C25.6792 56.9944 25.9156 56.758 25.9156 56.2851C25.9156 56.0486 25.6792 55.5757 25.4427 55.5757V44.2262H25.2063V55.5757C24.9698 55.5757 24.7334 56.0486 24.7334 56.2851C24.4969 56.758 24.9698 56.9944 25.2063 56.9944Z" fill="white"/>
<path d="M27.3347 61.9599C27.8076 61.9599 28.0441 61.7235 28.0441 61.2506C28.0441 61.0141 27.8076 60.5412 27.5712 60.5412V43.7534H27.0983V60.5412C26.8618 60.5412 26.6254 61.0141 26.6254 61.2506C26.3889 61.7235 26.8618 61.9599 27.3347 61.9599Z" fill="white"/>
<path d="M33.0091 65.9796C32.5362 65.9796 32.2998 66.2161 32.2998 66.689C32.2998 66.9254 32.5362 67.3983 32.7727 67.3983V68.3441L24.7334 74.9647L24.9698 75.2011L27.0979 73.546V76.3834H27.3343V73.3095L28.753 72.1273V79.6936H28.9895V71.6544L30.6446 70.2357V81.1123H30.8811V69.9992L32.2998 68.817V81.5852H33.0091V67.6348C33.2455 67.6348 33.482 67.1619 33.482 66.9254C33.7184 66.2161 33.2455 65.9796 33.0091 65.9796Z" fill="white"/>
<path d="M38.6844 77.5654C38.2115 77.5654 37.9751 77.8018 37.9751 78.2747C37.9751 78.5112 38.2115 78.9841 38.448 78.9841V83.4766H38.6844V78.9841C38.9209 78.9841 39.1573 78.5112 39.1573 78.2747C39.3938 77.8018 39.1573 77.5654 38.6844 77.5654Z" fill="white"/>
<path d="M36.7919 77.5654C36.319 77.5654 36.0825 77.8018 36.0825 78.2747C36.0825 78.5112 36.319 78.9841 36.5554 78.9841V81.8214H36.7919V78.9841C37.0283 78.9841 37.2648 78.5112 37.2648 78.2747C37.5012 77.8018 37.2648 77.5654 36.7919 77.5654Z" fill="white"/>
<path d="M40.5756 77.5654C40.1027 77.5654 39.8662 77.8018 39.8662 78.2747C39.8662 78.5112 40.1027 78.9841 40.3391 78.9841V82.7672H40.5756V78.9841C40.812 78.9841 41.0485 78.5112 41.0485 78.2747C41.5214 77.8018 41.0485 77.5654 40.5756 77.5654Z" fill="white"/>
<path d="M23.0789 49.428V69.0532L26.862 65.9794H27.0985C27.5714 65.9794 27.8078 65.7429 27.8078 65.27C27.8078 64.7971 27.5714 64.5607 27.0985 64.5607C26.6256 64.5607 26.3891 64.7971 26.3891 65.27C26.3891 65.5065 26.3891 65.5065 26.6256 65.7429L25.4433 66.6887V59.3588C25.6798 59.3588 25.9162 58.8859 25.9162 58.6495C25.9162 58.1766 25.6798 57.9401 25.2069 57.9401C24.734 57.9401 24.4975 58.1766 24.4975 58.6495C24.4975 58.8859 24.734 59.3588 24.9704 59.3588V66.9252L23.5518 68.3439V49.428C23.7882 49.428 24.0246 48.9551 24.0246 48.7186C24.0246 48.2457 23.7882 48.0093 23.3153 48.0093C22.8424 48.0093 22.606 48.2457 22.606 48.7186C22.606 48.9551 22.8424 49.1915 23.0789 49.428Z" fill="white"/>
<path d="M29.2264 44.4627C29.6993 44.4627 29.9358 44.2263 29.9358 43.7534C29.9358 43.5169 29.6993 43.044 29.4629 43.044V40.2067H28.99V43.044C28.7535 43.2805 28.5171 43.5169 28.5171 43.7534C28.5171 44.2263 28.7535 44.4627 29.2264 44.4627Z" fill="white"/>
<path d="M40.8116 54.6301C41.048 54.6301 41.2845 54.1572 41.2845 53.9207C41.2845 53.4478 41.048 53.2114 40.5752 53.2114C40.1023 53.2114 39.8658 53.4478 39.8658 53.9207C39.8658 54.1572 40.1023 54.6301 40.3387 54.6301V57.7039L38.6836 56.2852V55.3394C38.92 55.3394 39.1565 55.1029 39.1565 54.6301C39.1565 54.1572 38.92 53.9207 38.4471 53.9207C37.9742 53.9207 37.7378 54.1572 37.7378 54.6301C37.7378 54.8665 37.9742 55.3394 38.2107 55.3394V56.0487L36.792 54.8665V46.3544L38.4471 48.0095H38.2107V51.0833C37.9742 51.0833 37.7378 51.5562 37.7378 51.7927C37.7378 52.2656 37.9742 52.502 38.4471 52.502C38.92 52.502 39.1565 52.2656 39.1565 51.7927C39.1565 51.5562 38.92 51.0833 38.6836 51.0833V48.0095L40.3387 49.6646V50.8469C40.1023 50.8469 39.8658 51.3198 39.8658 51.5562C39.8658 52.0291 40.1023 52.2656 40.5752 52.2656C41.048 52.2656 41.2845 52.0291 41.2845 51.5562C41.2845 51.3198 41.048 50.8469 40.8116 50.8469V49.9011L42.2303 51.0833L42.4667 50.8469L35.3733 44.4628V44.2263C35.3733 43.7534 35.1368 43.517 34.6639 43.517C34.191 43.517 33.9546 43.7534 33.9546 44.2263C33.9546 44.6992 34.191 44.9357 34.6639 44.9357C34.9004 44.9357 34.9004 44.9357 35.1368 44.6992L36.5555 45.8815V54.8665L42.2303 59.5955L42.4667 59.359L40.8116 58.1768V54.6301Z" fill="white"/>
<path d="M38.921 84.4226C37.0294 84.4226 35.8471 83.2403 35.3742 82.0581C34.4285 82.531 32.7733 83.0039 30.4088 82.0581C28.0443 81.1123 27.335 78.7478 27.335 77.0927C26.3892 77.0927 24.7341 76.8562 23.3154 75.2011C21.4238 73.3095 21.8967 70.4721 22.1331 69.0534C21.1873 68.5805 19.2957 67.6347 18.5864 65.2702C17.8771 62.9058 19.2957 60.7777 20.0051 59.5955C18.8228 59.1226 17.8771 57.4674 18.3499 55.103C18.8228 52.502 20.7144 51.0833 21.8967 50.6104C21.4238 49.6646 20.9509 47.773 22.3696 45.1721C23.5518 43.2805 26.1528 42.8076 27.335 42.5712C27.335 41.6254 27.5714 39.7338 28.9901 38.5515C30.8817 36.66 33.2462 36.66 34.6649 37.1329C34.6649 36.66 34.9014 36.1871 35.3742 35.7142C36.0836 35.0048 37.2658 34.5319 38.6845 34.5319C43.4135 34.5319 43.4135 38.788 43.4135 41.3889V79.2207C43.4135 81.8216 41.9948 84.4226 38.921 84.4226ZM36.0836 78.9843L36.32 80.6394C36.32 80.6394 36.7929 83.0039 38.921 83.0039C41.5219 83.0039 41.7584 79.9301 41.7584 79.4572V41.6254C41.7584 37.8422 41.2855 36.1871 38.4481 36.1871C37.5023 36.1871 36.7929 36.4235 36.32 36.8964C35.8471 37.3693 35.8471 38.0787 35.8471 38.0787V39.2609L34.6649 38.788C34.6649 38.788 31.8275 37.6058 29.6995 39.7338C28.5172 41.1525 28.7537 43.2805 28.7537 43.2805V44.2263H27.8079C27.8079 44.2263 24.7341 44.2263 23.3154 46.1179C21.8967 48.2459 22.8425 49.9011 23.3154 50.374C23.3154 50.374 23.3154 50.6104 23.5518 50.6104L24.0247 51.5562L23.0789 51.7927C23.0789 51.7927 20.2415 52.502 19.7686 55.3394C19.2957 57.9403 21.1873 59.1226 21.1873 59.1226L22.1331 59.5955L21.4238 60.3048C21.4238 60.3048 19.0593 62.6693 19.7686 65.0338C20.478 67.3983 22.8425 68.1076 23.0789 68.1076L23.7883 68.3441L23.5518 69.0534C23.5518 69.0534 22.606 72.3637 24.2612 74.2553C25.9163 76.1469 27.8079 75.4375 27.8079 75.4375L28.9901 74.9646L28.7537 76.3833C28.7537 76.6198 28.2808 79.6936 31.1182 80.8758C33.9556 82.0581 35.1378 80.403 35.1378 80.403L36.0836 78.9843Z" fill="#EA6324"/>
<path d="M46.7241 79.2207V41.3889C46.7241 38.788 46.7241 34.5319 51.4531 34.5319C52.8718 34.5319 54.054 35.0048 54.7634 35.7142C55.2363 36.1871 55.4727 36.66 55.4727 37.1329C56.655 36.66 59.2559 36.66 61.1475 38.5515C62.5662 39.9702 62.8026 41.6254 62.8026 42.5712C63.9849 42.5712 66.5858 43.0441 67.768 45.1721C69.1867 47.5366 68.7138 49.4282 68.2409 50.6104C69.4232 51.0833 71.3148 52.502 71.7877 55.103C72.2606 57.4674 71.3148 59.1226 70.1325 60.0684C71.0783 61.2506 72.497 63.3787 71.5512 65.7431C70.8419 67.8712 68.9503 69.0534 68.0045 69.5263C68.2409 70.7086 68.4774 73.5459 66.8223 75.674C65.4036 77.3291 63.7484 77.5656 62.8026 77.5656C62.8026 79.2207 62.0933 81.5852 59.4923 82.531C57.1279 83.4768 55.4727 83.0039 54.5269 82.531C54.054 83.7132 52.8718 84.8955 50.9802 84.8955C47.9064 84.4226 46.7241 81.8216 46.7241 79.2207ZM54.7634 80.1665C54.7634 80.1665 55.9456 81.8216 58.783 80.6394C61.6204 79.4572 61.1475 76.3833 61.1475 76.1469L60.911 74.9646L62.0933 75.4375C62.0933 75.4375 63.7484 76.1469 65.64 74.2553C67.2951 72.3637 66.3494 69.0534 66.3494 69.0534L66.1129 68.3441L66.8223 68.1076C66.8223 68.1076 69.1867 67.3983 70.1325 65.0338C70.8419 62.6693 68.4774 60.3048 68.4774 60.3048L67.768 59.5955L68.7138 59.1226C68.7138 59.1226 70.8419 57.9403 70.1325 55.3394C69.6596 52.502 66.8223 51.7927 66.8223 51.7927L65.8765 51.5562L66.3494 50.6104C66.3494 50.6104 66.3494 50.374 66.5858 50.374C67.0587 49.6646 67.768 48.2459 66.5858 46.1179C65.4036 44.2263 62.3297 44.2263 62.0933 44.2263H61.1475V43.2805C61.1475 43.2805 61.3839 41.1525 59.9652 39.4973C58.0737 37.3693 55.2363 38.5515 54.9998 38.5515L53.8176 39.0244V37.8422C53.8176 37.8422 53.8176 37.1329 53.3447 36.66C53.1082 36.4235 52.3989 36.1871 51.4531 36.1871C48.6157 36.1871 48.1428 37.8422 48.1428 41.6254V79.4572C48.1428 80.1665 48.3793 83.0039 50.9802 83.0039C53.1082 83.0039 53.5811 80.8759 53.5811 80.6394L53.8176 78.9843L54.7634 80.1665Z" fill="#0D793D"/>
</g>
<defs>
<filter id="filter0_dddddd_267_6638" x="-73" y="21.9999" width="235.9" height="267.723" filterUnits="userSpaceOnUse" color-interpolation-filters="sRGB">
<feFlood flood-opacity="0" result="BackgroundImageFix"/>
<feColorMatrix in="SourceAlpha" type="matrix" values="0 0 0 0 0 0 0 0 0 0 0 0 0 0 0 0 0 0 127 0" result="hardAlpha"/>
<feOffset dy="2.76726"/>
<feGaussianBlur stdDeviation="1.1069"/>
<feColorMatrix type="matrix" values="0 0 0 0 0 0 0 0 0 0 0 0 0 0 0 0 0 0 0.0196802 0"/>
<feBlend mode="normal" in2="BackgroundImageFix" result="effect1_dropShadow_267_6638"/>
<feColorMatrix in="SourceAlpha" type="matrix" values="0 0 0 0 0 0 0 0 0 0 0 0 0 0 0 0 0 0 127 0" result="hardAlpha"/>
<feOffset dy="6.6501"/>
<feGaussianBlur stdDeviation="2.66004"/>
<feColorMatrix type="matrix" values="0 0 0 0 0 0 0 0 0 0 0 0 0 0 0 0 0 0 0.0282725 0"/>
<feBlend mode="normal" in2="effect1_dropShadow_267_6638" result="effect2_dropShadow_267_6638"/>
<feColorMatrix in="SourceAlpha" type="matrix" values="0 0 0 0 0 0 0 0 0 0 0 0 0 0 0 0 0 0 127 0" result="hardAlpha"/>
<feOffset dy="12.5216"/>
<feGaussianBlur stdDeviation="5.00862"/>
<feColorMatrix type="matrix" values="0 0 0 0 0 0 0 0 0 0 0 0 0 0 0 0 0 0 0.035 0"/>
<feBlend mode="normal" in2="effect2_dropShadow_267_6638" result="effect3_dropShadow_267_6638"/>
<feColorMatrix in="SourceAlpha" type="matrix" values="0 0 0 0 0 0 0 0 0 0 0 0 0 0 0 0 0 0 127 0" result="hardAlpha"/>
<feOffset dy="22.3363"/>
<feGaussianBlur stdDeviation="8.93452"/>
<feColorMatrix type="matrix" values="0 0 0 0 0 0 0 0 0 0 0 0 0 0 0 0 0 0 0.0417275 0"/>
<feBlend mode="normal" in2="effect3_dropShadow_267_6638" result="effect4_dropShadow_267_6638"/>
<feColorMatrix in="SourceAlpha" type="matrix" values="0 0 0 0 0 0 0 0 0 0 0 0 0 0 0 0 0 0 127 0" result="hardAlpha"/>
<feOffset dy="41.7776"/>
<feGaussianBlur stdDeviation="16.711"/>
<feColorMatrix type="matrix" values="0 0 0 0 0 0 0 0 0 0 0 0 0 0 0 0 0 0 0.0503198 0"/>
<feBlend mode="normal" in2="effect4_dropShadow_267_6638" result="effect5_dropShadow_267_6638"/>
<feColorMatrix in="SourceAlpha" type="matrix" values="0 0 0 0 0 0 0 0 0 0 0 0 0 0 0 0 0 0 127 0" result="hardAlpha"/>
<feOffset dy="100"/>
<feGaussianBlur stdDeviation="40"/>
<feColorMatrix type="matrix" values="0 0 0 0 0 0 0 0 0 0 0 0 0 0 0 0 0 0 0.07 0"/>
<feBlend mode="normal" in2="effect5_dropShadow_267_6638" result="effect6_dropShadow_267_6638"/>
<feBlend mode="normal" in="SourceGraphic" in2="effect6_dropShadow_267_6638" result="shape"/>
</filter>
</defs>
</svg>
