<svg width="85" height="47" viewBox="0 0 85 47" fill="none" xmlns="http://www.w3.org/2000/svg">
<path d="M31.669 41.217C32.0193 41.3848 32.4029 41.4714 32.7912 41.4702C33.1179 41.4631 33.4399 41.5496 33.7193 41.7194C33.9988 41.8892 34.2241 42.1354 34.3689 42.429C34.7218 43.0475 35.0091 43.7014 35.2261 44.3799C35.3157 44.6163 35.3564 44.8684 35.3458 45.121C35.3351 45.3736 35.2732 45.6214 35.164 45.8493C34.9877 46.1656 34.7306 46.4291 34.4192 46.6129C34.1077 46.7967 33.7531 46.8942 33.3916 46.8953C32.1522 47.0035 30.9063 47.0174 29.6647 46.9368C28.0023 46.8914 26.3666 46.5073 24.857 45.8078C24.491 45.6282 24.1453 45.4097 23.8259 45.1561C23.3791 44.8094 23.0413 44.3411 22.8528 43.8071C22.1905 41.8689 21.738 39.865 21.5028 37.8299C21.2993 36.1411 21.2716 34.4356 21.42 32.741C21.8796 27.6937 23.859 23.3561 27.6605 19.969C31.0473 16.8624 35.1027 14.5799 39.5121 13.2987C40.6472 12.9866 41.8067 12.7713 42.9781 12.6553C43.3425 12.6179 43.7152 12.6096 44.0837 12.5847H44.1417C44.6883 12.5847 45.2349 12.5847 45.7981 12.5847C48.4436 12.7545 51.0273 13.4605 53.3927 14.6601C55.1444 15.5152 56.25 16.9223 57.219 18.5079C57.9561 19.7158 58.6021 20.9694 59.2233 22.2437C59.5421 22.8953 59.9686 23.4889 60.2419 24.1738C61.0795 26.2054 61.6368 28.342 61.8983 30.5245C61.9915 31.3249 62.0123 32.132 61.9605 32.9361C61.855 34.3752 61.584 35.7973 61.153 37.1741C60.7099 38.6269 59.6539 39.482 58.54 40.3329C58.3527 40.0559 58.1825 39.7675 58.0306 39.4695C57.3703 38.3795 56.6356 37.3365 55.8318 36.3481C55.9394 36.3813 55.9684 36.29 56.0015 36.2277C56.1216 36.016 56.2459 35.8126 56.3453 35.5885C56.78 34.5244 57.0752 33.4082 57.2231 32.2679C57.3308 31.5996 57.4178 30.9313 57.484 30.2589C57.5751 29.8174 57.5835 29.3627 57.5089 28.9182C56.9539 26.7838 56.1607 24.7188 55.1444 22.7625C54.1809 20.8251 52.4979 19.3438 50.4567 18.6366C49.906 18.4415 49.3097 18.3502 48.7714 18.126C47.7237 17.7419 46.6195 17.5357 45.5041 17.5159C44.6179 17.4578 43.7317 17.5449 42.8538 17.5159C40.9669 17.4726 39.0958 17.869 37.3877 18.674C34.8113 19.7449 32.5669 21.4859 30.8863 23.7172C28.6709 26.7348 27.7392 30.2008 27.4576 33.8784V33.9531V34.2561V34.6255C27.4576 34.6836 27.4576 34.7459 27.4576 34.8081C27.214 35.9909 27.1958 37.2091 27.4037 38.3986C27.5147 39.0204 27.8023 39.5969 28.232 40.0589C28.8807 40.7015 29.74 41.0864 30.6503 41.1423C30.9872 41.1953 31.328 41.2203 31.669 41.217V41.217Z" fill="#EF6522"/>
<path d="M31.904 41.1742C31.5456 41.1874 31.1867 41.1694 30.8314 41.1203C29.9211 41.0644 29.0619 40.6795 28.4131 40.0369C27.9834 39.5748 27.6959 38.9984 27.5849 38.3766C27.3769 37.1871 27.3952 35.9689 27.6387 34.7861C27.6387 34.7239 27.6387 34.6616 27.6387 34.6035C27.7215 34.4956 27.6843 34.3586 27.7298 34.2382C27.9439 33.3013 28.2533 32.3889 28.6533 31.5153C29.2562 30.2145 30.017 28.9932 30.9184 27.8792C31.6647 26.9633 32.4967 26.121 33.403 25.3638C34.5471 24.4338 35.8567 23.7296 37.2624 23.2884C38.9392 22.6946 40.6702 22.2677 42.4304 22.0141C42.9729 21.9435 43.5112 21.8979 44.0537 21.8605C44.5341 21.8108 45.0184 21.8108 45.4989 21.8605C46.3519 21.9809 47.1843 22.2133 48.0332 22.3669C48.134 22.3798 48.229 22.4215 48.3068 22.487C48.3846 22.5525 48.442 22.6391 48.4721 22.7363C48.7397 23.3976 48.7675 24.132 48.5508 24.8117C48.4763 25.0649 48.4349 25.3264 48.1657 25.4759C47.652 25.7862 47.0674 25.9591 46.4679 25.9781C45.4732 25.9855 44.48 26.0576 43.4946 26.194C42.3035 26.3113 41.121 26.504 39.9541 26.7709C38.7763 27.0375 37.6502 27.4961 36.6206 28.1282C35.9418 28.5806 35.2943 29.0785 34.6826 29.6184C33.979 30.1923 33.3661 30.8696 32.8647 31.6274C32.4506 32.2915 32.1566 33.0054 32.3802 33.8107C32.4479 34.1654 32.5886 34.5021 32.7932 34.7994C32.9978 35.0967 33.2619 35.348 33.5687 35.5374C34.0239 35.7535 34.5289 35.8424 35.0304 35.7948C35.529 35.7829 36.0248 35.7161 36.5088 35.5955C38.5726 35.0368 40.5508 34.199 42.389 33.1051C43.4387 32.4699 44.5483 31.9402 45.7018 31.5236C47.0296 31.0561 48.4518 30.9236 49.8428 31.1376C50.5143 31.2137 51.1548 31.4625 51.7021 31.8598C54.2573 34.0195 56.4557 36.5705 58.2159 39.4184C58.3678 39.7165 58.5379 40.0048 58.7253 40.2818C58.8495 40.6969 59.0648 41.0788 59.1973 41.498C59.6777 43.0338 58.9903 44.03 57.5409 44.4285C57.2147 44.5861 56.8425 44.62 56.4933 44.5239C55.9537 44.2851 55.4549 43.963 55.0149 43.5692L54.3814 42.9923C54.1867 42.7515 53.9673 42.544 53.7561 42.3074C53.1374 41.578 52.5832 40.7961 52.0997 39.9705C51.6856 39.2856 51.4537 38.5219 51.0023 37.8702C50.5421 37.1138 49.9712 36.431 49.3086 35.8446C48.8513 35.4902 48.3133 35.2554 47.743 35.1612C47.1727 35.067 46.5879 35.1164 46.0414 35.305C44.9221 35.664 43.8596 36.1811 42.8859 36.8408C41.3786 37.7706 39.9417 38.8166 38.3308 39.5803C37.1792 40.0897 35.9809 40.4859 34.753 40.7633C33.8175 40.9853 32.864 41.1228 31.904 41.1742V41.1742Z" fill="#FAE203"/>
<path d="M2.44472 4.80444C2.55653 4.80444 2.66834 4.80444 2.78015 4.80444C3.02714 4.81083 3.27031 4.86705 3.49514 4.96975C3.71997 5.07244 3.92185 5.21951 4.0887 5.40216C5.12523 6.43991 6.26121 7.37281 7.48019 8.18735C10.0849 10.076 12.7724 11.8442 15.5137 13.5253C16.6898 14.2475 17.9652 14.8037 19.1992 15.4305C20.1517 15.9162 21.1 16.3935 22.0524 16.8667C22.6797 17.1717 23.2249 17.6229 23.6425 18.1825C23.7378 18.307 23.8247 18.4357 23.9283 18.5519C24.7813 19.5315 24.86 20.6564 24.5411 21.8726C24.4417 22.242 24.3217 22.6073 24.214 22.9725C24.152 23.192 24.0473 23.397 23.906 23.5758C23.7647 23.7546 23.5896 23.9036 23.3906 24.0143C23.1917 24.125 22.9729 24.1952 22.7467 24.2209C22.5206 24.2465 22.2917 24.2271 22.0731 24.1638C21.5648 24.0411 21.1257 23.7217 20.8515 23.2755C20.1931 22.2337 19.4021 21.2873 18.6526 20.3077C18.4834 20.1168 18.3257 19.9158 18.1805 19.7059C16.737 17.3685 14.8351 15.3492 12.5902 13.7702C11.704 13.131 10.9338 12.3631 10.0021 11.7612C7.69552 10.2545 5.2896 8.91375 2.86711 7.61039C2.22111 7.26172 1.57097 6.91859 0.916693 6.58099C0.773086 6.49359 0.656523 6.36793 0.580001 6.21801C0.503479 6.06809 0.470008 5.89981 0.483321 5.73194C0.496633 5.56407 0.556205 5.4032 0.655393 5.26728C0.754582 5.13136 0.889487 5.02573 1.04506 4.96217C1.2809 4.86609 1.53187 4.81269 1.7863 4.80444H1.84842H2.34948H2.44472Z" fill="#EF6522"/>
<path d="M64.4639 19.1661C65.0851 19.191 65.7062 19.245 66.3315 19.2408C67.896 19.1959 69.4274 18.779 70.7997 18.0247C71.8711 17.4573 72.8754 16.7708 73.7936 15.9783C75.3007 14.6794 77.1526 13.8486 79.1231 13.5874C79.8353 13.4961 80.5434 13.4131 81.264 13.3716C82.071 13.2819 82.887 13.3197 83.6823 13.4837C84.1261 13.6151 84.5228 13.8715 84.8252 14.2225C85.0986 14.5214 85.0447 14.7995 84.6927 15.0195C84.3997 15.2135 84.0477 15.2973 83.6989 15.2561C82.5921 15.1648 81.4778 15.2687 80.4068 15.5632C79.707 15.721 79.0196 15.9368 78.3363 16.1609C77.8507 16.3249 77.3979 16.5737 76.9987 16.8956C75.8895 17.8257 74.7326 18.6972 73.5327 19.5065C72.7376 20.0212 71.8763 20.4114 71.0481 20.8763C69.7106 21.6317 68.4558 22.5117 67.1763 23.3667C66.4082 23.8819 65.504 24.1551 64.5799 24.1512C64.1566 24.164 63.7377 24.062 63.3674 23.856C62.9972 23.65 62.6893 23.3476 62.4762 22.9807C62.0998 22.4014 61.8985 21.7253 61.8965 21.034C61.8965 20.017 62.762 19.245 63.88 19.1869C64.0705 19.1869 64.261 19.1869 64.4515 19.1869L64.4639 19.1661Z" fill="#EF6522"/>
<path d="M14.7513 30.6761C15.4139 30.6761 16.0806 30.7301 16.7431 30.7342C17.2821 30.7685 17.7913 30.9936 18.1801 31.3693C18.6219 31.6729 18.9822 32.0809 19.2292 32.5572C19.4762 33.0336 19.6023 33.5637 19.5963 34.1005C19.5673 35.1175 19.1201 35.6654 18.1676 36.0058C17.9072 36.1074 17.6269 36.1479 17.3484 36.1242C17.0699 36.1004 16.8005 36.0131 16.5609 35.8688C15.3585 35.2144 14.1981 34.4852 13.0866 33.6855C12.3491 33.1875 11.4901 32.9005 10.602 32.8553C9.24698 32.7658 7.90267 32.5546 6.58525 32.2244C5.97563 32.0708 5.3503 31.9886 4.72179 31.9795C3.73562 31.9453 2.75446 31.8231 1.78996 31.6142C0.700873 31.3652 0.514529 30.4893 0.597349 29.7463C0.6072 29.605 0.663907 29.4711 0.75845 29.3658C0.852993 29.2605 0.979944 29.1899 1.11912 29.1652C1.68859 29.029 2.28442 29.052 2.84177 29.2316C3.92735 29.5864 5.0412 29.8475 6.17114 30.012C7.07803 30.1531 7.98491 30.2984 8.89593 30.3648C9.44254 30.4063 9.9933 30.4561 10.5523 30.4935C11.9313 30.589 13.3102 30.6305 14.6933 30.6678L14.7513 30.6761Z" fill="#EF6522"/>
<path d="M33.0409 14.0693C32.3804 13.9911 31.733 13.8265 31.1153 13.5795C29.8233 13.1644 29.2187 12.189 28.8543 10.9769C28.5661 10.1038 28.3731 9.20196 28.2787 8.28719C28.1434 6.60158 27.8438 4.9333 27.3842 3.30622C27.1937 2.64209 26.8956 2.01117 26.7382 1.33458C26.7123 1.19745 26.7123 1.05664 26.7382 0.919502C26.7386 0.857967 26.7609 0.798591 26.8012 0.752139C26.8414 0.705687 26.897 0.675235 26.9577 0.666303C27.1689 0.666303 27.4049 0.595738 27.5582 0.811581C27.7942 1.14365 28.0261 1.47571 28.2497 1.81608C29.2477 3.33112 30.1836 4.88352 31.2644 6.34046C31.8358 7.10836 32.5812 7.71853 33.1982 8.44492C33.6123 8.95547 34.1051 9.42451 34.5399 9.93091C34.9502 10.4609 35.2157 11.0889 35.3101 11.7531C35.3707 12.0158 35.3819 12.2874 35.3433 12.5542C35.219 13.3844 34.6641 13.8949 33.7117 14.0444C33.4896 14.0768 33.2647 14.0852 33.0409 14.0693V14.0693Z" fill="#EF6522"/>
<path d="M50.8639 12.4261C50.0937 12.5133 49.1413 11.6831 48.8928 11.019C48.8281 10.842 48.7994 10.6538 48.8082 10.4655C48.8171 10.2772 48.8633 10.0926 48.9443 9.92247C49.0254 9.75234 49.1394 9.60015 49.2799 9.47483C49.4204 9.3495 49.5844 9.25356 49.7624 9.19265C51.0959 8.67797 52.2383 7.76328 53.0338 6.57349C53.4687 5.93079 53.7454 5.19396 53.8413 4.42337C53.8772 4.1743 53.9469 3.9313 54.0484 3.70112C54.47 2.63592 54.7485 1.51926 54.8766 0.380477C54.8766 0.309913 54.9014 0.2435 54.9097 0.172936C54.9387 -0.00139754 55.0381 -0.0346025 55.1913 0.0318105C55.4773 0.143912 55.7118 0.358238 55.8494 0.633423C55.9871 0.908609 56.0181 1.22515 55.9367 1.52195C55.7172 2.48494 55.4563 3.43962 55.3238 4.42752C55.212 5.25768 54.9097 6.00067 54.7937 6.81423C54.7441 7.19196 54.7937 7.57383 54.7316 7.9557C54.6749 8.28053 54.5673 8.59434 54.4128 8.88549C54.1146 9.4334 53.92 10.0311 53.6177 10.5749C53.2972 11.2661 52.7568 11.8311 52.0814 12.1812C51.6973 12.3478 51.2824 12.4313 50.8639 12.4261V12.4261Z" fill="#EE6422"/>
<path d="M52.0885 39.9661C52.5721 40.7917 53.1263 41.5736 53.745 42.303C53.9479 42.5396 54.1591 42.7471 54.3702 42.9879C54.2377 43.0501 54.1011 43.1041 53.9561 43.1788C53.588 43.4154 53.1445 43.5043 52.7138 43.4278C52.078 43.3758 51.4523 43.2362 50.8545 43.0128C50.7318 42.9792 50.6185 42.9179 50.5233 42.8334C50.4281 42.7489 50.3536 42.6435 50.3056 42.5255C50.2575 42.4075 50.2372 42.28 50.2462 42.1529C50.2553 42.0258 50.2934 41.9024 50.3576 41.7924C50.6071 41.2182 50.9674 40.6991 51.4177 40.2649C51.6206 40.0864 51.8774 40.0864 52.0885 39.9661Z" fill="#EF6522"/>
<path d="M44.3959 12.5416H44.3379C44.3586 12.5208 44.3752 12.5167 44.3959 12.5416Z" fill="#61290C"/>
</svg>
