<svg width="59" height="64" viewBox="0 0 59 64" fill="none" xmlns="http://www.w3.org/2000/svg">
<g filter="url(#filter0_d_553_5856)">
<path d="M45.9792 6.916C45.7525 6.916 45.5258 6.86 45.3274 6.748C39.8863 3.976 35.182 2.8 29.5425 2.8C23.9314 2.8 18.6036 4.116 13.7576 6.748C13.0775 7.112 12.2273 6.86 11.8306 6.188C11.4621 5.516 11.7172 4.648 12.3973 4.284C17.6684 1.456 23.4496 0 29.5425 0C35.5787 0 40.8498 1.316 46.631 4.256C47.3395 4.62 47.5945 5.46 47.2261 6.132C46.9711 6.636 46.4893 6.916 45.9792 6.916ZM5.42591 21.616C5.14252 21.616 4.85913 21.532 4.60407 21.364C3.95227 20.916 3.81058 20.048 4.264 19.404C7.06958 15.484 10.6403 12.404 14.8912 10.248C23.7897 5.712 35.182 5.684 44.1088 10.22C48.3597 12.376 51.9304 15.428 54.736 19.32C55.1894 19.936 55.0477 20.832 54.3959 21.28C53.7441 21.728 52.8656 21.588 52.4122 20.944C49.8617 17.416 46.631 14.644 42.8052 12.712C34.6719 8.596 24.2714 8.596 16.1664 12.74C12.3123 14.7 9.08166 17.5 6.53113 21.028C6.30442 21.42 5.87933 21.616 5.42591 21.616ZM23.1379 55.412C22.7695 55.412 22.401 55.272 22.146 54.992C19.6805 52.556 18.3486 50.988 16.4498 47.6C14.4944 44.156 13.4742 39.956 13.4742 35.448C13.4742 27.132 20.6724 20.356 29.5142 20.356C38.356 20.356 45.5541 27.132 45.5541 35.448C45.5541 36.232 44.9307 36.848 44.1372 36.848C43.3437 36.848 42.7202 36.232 42.7202 35.448C42.7202 28.672 36.7973 23.156 29.5142 23.156C22.231 23.156 16.3081 28.672 16.3081 35.448C16.3081 39.48 17.215 43.204 18.9437 46.228C20.7574 49.448 22.0043 50.82 24.1864 53.004C24.7249 53.564 24.7249 54.432 24.1864 54.992C23.8747 55.272 23.5063 55.412 23.1379 55.412ZM43.457 50.232C40.0847 50.232 37.1091 49.392 34.6719 47.74C30.4494 44.912 27.9272 40.32 27.9272 35.448C27.9272 34.664 28.5506 34.048 29.3441 34.048C30.1376 34.048 30.7611 34.664 30.7611 35.448C30.7611 39.396 32.8015 43.12 36.2589 45.416C38.271 46.76 40.6231 47.404 43.457 47.404C44.1372 47.404 45.2707 47.32 46.4043 47.124C47.1694 46.984 47.9063 47.488 48.048 48.272C48.1897 49.028 47.6796 49.756 46.8861 49.896C45.2707 50.204 43.8538 50.232 43.457 50.232ZM37.7609 56C37.6475 56 37.5058 55.972 37.3924 55.944C32.8865 54.712 29.9393 53.06 26.8503 50.064C22.8828 46.172 20.7007 40.992 20.7007 35.448C20.7007 30.912 24.6115 27.216 29.4292 27.216C34.2468 27.216 38.1576 30.912 38.1576 35.448C38.1576 38.444 40.7931 40.88 44.0521 40.88C47.3111 40.88 49.9467 38.444 49.9467 35.448C49.9467 24.892 40.7365 16.324 29.4008 16.324C21.3525 16.324 13.9843 20.748 10.6686 27.608C9.56342 29.876 8.99664 32.536 8.99664 35.448C8.99664 37.632 9.19501 41.076 10.8954 45.556C11.1788 46.284 10.8103 47.096 10.0735 47.348C9.33671 47.628 8.51487 47.236 8.25982 46.536C6.8712 42.868 6.19106 39.228 6.19106 35.448C6.19106 32.088 6.84286 29.036 8.11813 26.376C11.8872 18.564 20.2473 13.496 29.4008 13.496C42.2951 13.496 52.7806 23.324 52.7806 35.42C52.7806 39.956 48.8698 43.652 44.0521 43.652C39.2345 43.652 35.3237 39.956 35.3237 35.42C35.3237 32.424 32.6882 29.988 29.4292 29.988C26.1702 29.988 23.5346 32.424 23.5346 35.42C23.5346 40.208 25.405 44.688 28.834 48.048C31.5262 50.68 34.1051 52.136 38.1009 53.228C38.8661 53.424 39.2912 54.208 39.0928 54.936C38.9511 55.58 38.356 56 37.7609 56Z" fill="white"/>
</g>
<defs>
<filter id="filter0_d_553_5856" x="0" y="0" width="59" height="64" filterUnits="userSpaceOnUse" color-interpolation-filters="sRGB">
<feFlood flood-opacity="0" result="BackgroundImageFix"/>
<feColorMatrix in="SourceAlpha" type="matrix" values="0 0 0 0 0 0 0 0 0 0 0 0 0 0 0 0 0 0 127 0" result="hardAlpha"/>
<feOffset dy="4"/>
<feGaussianBlur stdDeviation="2"/>
<feColorMatrix type="matrix" values="0 0 0 0 0 0 0 0 0 0 0 0 0 0 0 0 0 0 0.25 0"/>
<feBlend mode="normal" in2="BackgroundImageFix" result="effect1_dropShadow_553_5856"/>
<feBlend mode="normal" in="SourceGraphic" in2="effect1_dropShadow_553_5856" result="shape"/>
</filter>
</defs>
</svg>
