<svg width="23" height="26" viewBox="0 0 23 26" fill="none" xmlns="http://www.w3.org/2000/svg">
<path d="M11.106 1.23887V3.36099C11.1131 3.44433 11.1512 3.52197 11.2128 3.57855C11.2744 3.63512 11.3549 3.66651 11.4385 3.66651C11.5221 3.66651 11.6027 3.63512 11.6643 3.57855C11.7259 3.52197 11.764 3.44433 11.7711 3.36099V1.23887C11.764 1.15553 11.7259 1.07789 11.6643 1.02132C11.6027 0.964742 11.5221 0.93335 11.4385 0.93335C11.3549 0.93335 11.2744 0.964742 11.2128 1.02132C11.1512 1.07789 11.1131 1.15553 11.106 1.23887Z" fill="#475C65"/>
<path d="M3.92448 4.52723L5.42407 6.02747C5.45488 6.05925 5.49164 6.08464 5.53226 6.1022C5.57288 6.11977 5.61656 6.12915 5.66081 6.12983C5.70505 6.1305 5.749 6.12245 5.79013 6.10613C5.83127 6.08982 5.86879 6.06555 5.90055 6.03473C5.93231 6.00391 5.9577 5.96713 5.97525 5.92649C5.99281 5.88585 6.00219 5.84215 6.00286 5.79789C6.00354 5.75362 5.99549 5.70966 5.97918 5.66851C5.96287 5.62735 5.93862 5.58982 5.90781 5.55804L4.40822 4.0578C4.34483 4.00313 4.26264 3.97533 4.17909 3.9803C4.09555 3.98527 4.01723 4.02262 3.96076 4.08442C3.89909 4.14007 3.86193 4.21787 3.8574 4.30083C3.85287 4.3838 3.88133 4.46519 3.93657 4.52723" fill="#475C65"/>
<path d="M1.17209 11.9342H3.2957C3.37546 11.9224 3.44832 11.8823 3.50099 11.8212C3.55366 11.7602 3.58264 11.6822 3.58264 11.6015C3.58264 11.5208 3.55366 11.4429 3.50099 11.3818C3.44832 11.3207 3.37546 11.2806 3.2957 11.2688H1.17209C1.08878 11.2759 1.01118 11.314 0.954629 11.3757C0.898078 11.4373 0.866699 11.5179 0.866699 11.6015C0.866699 11.6852 0.898078 11.7658 0.954629 11.8274C1.01118 11.889 1.08878 11.9271 1.17209 11.9342Z" fill="#475C65"/>
<path d="M4.46171 19.1185L5.9613 17.6183C6.01015 17.5536 6.03383 17.4734 6.02793 17.3926C6.02203 17.3118 5.98695 17.2359 5.92922 17.179C5.8715 17.1221 5.79507 17.0882 5.7142 17.0836C5.63332 17.0789 5.55351 17.1038 5.48966 17.1537L3.99249 18.6515C3.96072 18.6824 3.93534 18.7191 3.91779 18.7598C3.90023 18.8004 3.89085 18.8441 3.89018 18.8884C3.8895 18.9326 3.89755 18.9766 3.91386 19.0178C3.93017 19.0589 3.95442 19.0964 3.98523 19.1282C4.01604 19.16 4.0528 19.1854 4.09342 19.203C4.13404 19.2205 4.17772 19.2299 4.22197 19.2306C4.26621 19.2312 4.31016 19.2232 4.3513 19.2069C4.39243 19.1906 4.42995 19.1663 4.46171 19.1355" fill="#475C65"/>
<path d="M19.044 18.5787L17.5517 17.0785C17.4875 17.0143 17.4005 16.9783 17.3098 16.9783C17.2191 16.9783 17.1321 17.0143 17.068 17.0785C17.0038 17.1427 16.9678 17.2297 16.9678 17.3205C16.9678 17.4112 17.0038 17.4983 17.068 17.5624L18.5675 19.0627C18.6312 19.1168 18.7133 19.1442 18.7966 19.1392C18.88 19.1343 18.9582 19.0973 19.015 19.0361C19.0768 18.98 19.114 18.9018 19.1186 18.8184C19.1231 18.7351 19.0946 18.6533 19.0392 18.5908" fill="#475C65"/>
<path d="M21.7962 11.1743H19.675C19.5917 11.1814 19.5141 11.2196 19.4576 11.2812C19.401 11.3428 19.3696 11.4234 19.3696 11.507C19.3696 11.5907 19.401 11.6713 19.4576 11.7329C19.5141 11.7945 19.5917 11.8326 19.675 11.8397H21.7962C21.8795 11.8326 21.9571 11.7945 22.0137 11.7329C22.0702 11.6713 22.1016 11.5907 22.1016 11.507C22.1016 11.4234 22.0702 11.3428 22.0137 11.2812C21.9571 11.2196 21.8795 11.1814 21.7962 11.1743Z" fill="#475C65"/>
<path d="M18.5189 3.99264L17.0193 5.49046C16.9883 5.52224 16.9639 5.55981 16.9474 5.60102C16.931 5.64223 16.9228 5.68629 16.9234 5.73066C16.9239 5.77504 16.9332 5.81887 16.9507 5.85966C16.9682 5.90044 16.9936 5.93738 17.0253 5.96836C17.0571 5.99934 17.0946 6.02376 17.1358 6.04023C17.177 6.05669 17.2211 6.06487 17.2654 6.06431C17.3098 6.06375 17.3536 6.05445 17.3944 6.03695C17.4351 6.01945 17.472 5.99409 17.503 5.96231L19.0002 4.46207C19.0624 4.39822 19.0967 4.31225 19.0956 4.22308C19.0945 4.13391 19.058 4.04884 18.9941 3.98659C18.9303 3.92434 18.8444 3.89001 18.7552 3.89114C18.6661 3.89227 18.5811 3.92879 18.5189 3.99264Z" fill="#475C65"/>
<path d="M14.2499 19.9798H9.08599C9.02533 19.9798 8.96525 19.9678 8.9092 19.9446C8.85316 19.9214 8.80223 19.8873 8.75933 19.8444C8.71643 19.8015 8.6824 19.7505 8.65919 19.6945C8.63597 19.6384 8.62402 19.5783 8.62402 19.5176C8.62402 19.4569 8.63597 19.3968 8.65919 19.3407C8.6824 19.2847 8.71643 19.2337 8.75933 19.1908C8.80223 19.1479 8.85316 19.1138 8.9092 19.0906C8.96525 19.0674 9.02533 19.0554 9.08599 19.0554H14.262C14.3227 19.0554 14.3827 19.0674 14.4388 19.0906C14.4948 19.1138 14.5458 19.1479 14.5887 19.1908C14.6316 19.2337 14.6656 19.2847 14.6888 19.3407C14.712 19.3968 14.724 19.4569 14.724 19.5176C14.724 19.5783 14.712 19.6384 14.6888 19.6945C14.6656 19.7505 14.6316 19.8015 14.5887 19.8444C14.5458 19.8873 14.4948 19.9214 14.4388 19.9446C14.3827 19.9678 14.3227 19.9798 14.262 19.9798" fill="#475C65"/>
<path d="M13.4178 24.2361H9.90826C9.78574 24.2361 9.66823 24.1874 9.5816 24.1007C9.49496 24.0141 9.44629 23.8965 9.44629 23.7739C9.44629 23.6514 9.49496 23.5338 9.5816 23.4471C9.66823 23.3605 9.78574 23.3118 9.90826 23.3118H13.4178C13.5401 23.3124 13.6572 23.3613 13.7437 23.4478C13.8302 23.5344 13.8791 23.6516 13.8797 23.7739C13.8779 23.8959 13.8286 24.0124 13.7424 24.0987C13.6561 24.1849 13.5397 24.2342 13.4178 24.2361Z" fill="#475C65"/>
<path d="M10.2954 24.5701C10.4238 24.8211 10.619 25.0318 10.8595 25.179C11.1 25.3261 11.3764 25.404 11.6583 25.404C11.9402 25.404 12.2167 25.3261 12.4572 25.179C12.6976 25.0318 12.8929 24.8211 13.0213 24.5701H10.2954Z" fill="#475C65"/>
<path d="M10.738 22.5547C10.738 22.6975 10.634 22.7677 10.4284 22.7677H9.4029C9.19973 22.7677 9.09814 22.6975 9.09814 22.5547V21.9934H9.60849V22.4773H10.2301V22.0175L9.2094 21.3545C9.17614 21.3362 9.14847 21.3092 9.1293 21.2764C9.11014 21.2436 9.10021 21.2062 9.10056 21.1682V20.648C9.10056 20.5052 9.20215 20.4326 9.40532 20.4326H10.4308C10.6364 20.4326 10.7404 20.5028 10.7404 20.6456V21.1682H10.2277V20.7278H9.60607V21.1513L10.6268 21.8094C10.6604 21.8286 10.6883 21.8564 10.7074 21.8901C10.7266 21.9237 10.7363 21.9619 10.7356 22.0006V22.5547H10.738Z" fill="#475C65"/>
<path d="M11.7491 20.4299H11.2388V22.765H11.7491V20.4299Z" fill="#475C65"/>
<path d="M13.9693 22.7677H13.4565V21.7199H12.7672V22.7677H12.2568V20.4326H12.7672V21.3957H13.4565V20.4326H13.9693V22.7677Z" fill="#475C65"/>
<path d="M14.2452 17.2094C14.2452 17.2094 14.608 17.6426 15.3916 17.3328C16.1753 17.0231 16.0326 16.1399 16.0326 16.1084L15.9745 15.7503L16.3107 15.881C16.4865 15.9258 16.6716 15.9186 16.8433 15.8602C17.0151 15.8018 17.1662 15.6947 17.2782 15.5519C17.762 15.0244 17.4983 14.0855 17.4911 14.0807L17.433 13.8726L17.6386 13.8145C17.841 13.7512 18.0266 13.643 18.1815 13.498C18.3364 13.3531 18.4568 13.1751 18.5335 12.9773C18.7343 12.3482 18.0498 11.6634 18.0498 11.6561L17.849 11.4553L18.103 11.3198C18.2773 11.2092 18.4117 11.0458 18.4865 10.8534C18.5614 10.6609 18.5728 10.4496 18.519 10.2502C18.4652 10.0129 18.3493 9.79412 18.1831 9.61638C18.0169 9.43863 17.8064 9.30832 17.5733 9.2388L17.3314 9.17588L17.4403 8.93391C17.451 8.90939 17.464 8.8859 17.479 8.86374C17.5969 8.68285 17.6574 8.47057 17.6526 8.25468C17.6479 8.0388 17.5781 7.82939 17.4524 7.65386C17.1234 7.10216 16.243 7.13362 16.2285 7.13362L15.9866 7.14814L16.0205 6.90616C16.0372 6.72219 16.0167 6.53674 15.9602 6.36087C15.9037 6.18501 15.8123 6.02235 15.6916 5.88261C15.1328 5.29703 14.3443 5.60434 14.3105 5.61644L13.9936 5.73985L14.0202 5.4035C14.0204 5.28028 13.9767 5.16102 13.8969 5.06716C13.8168 4.99498 13.7225 4.94046 13.62 4.90711C13.5175 4.87376 13.4091 4.86234 13.3019 4.87358C12.511 4.87358 12.3804 5.34059 12.3804 6.3835V16.9505C12.3804 17.1199 12.4191 17.9475 13.1785 17.9475C13.7469 17.9475 13.8848 17.3401 13.8848 17.3135L13.967 16.8658L14.2452 17.2094Z" fill="#098C38"/>
<path d="M12.8396 9.03778C12.8051 9.03715 12.7723 9.02319 12.7479 8.99882C12.7236 8.97445 12.7096 8.94157 12.709 8.90711V7.8521C12.7096 7.81764 12.7236 7.78477 12.7479 7.76039C12.7723 7.73602 12.8051 7.72206 12.8396 7.72144H13.1976C13.232 7.72206 13.2649 7.73602 13.2892 7.76039C13.3136 7.78477 13.3275 7.81764 13.3282 7.8521V8.90711C13.3275 8.94157 13.3136 8.97445 13.2892 8.99882C13.2649 9.02319 13.232 9.03715 13.1976 9.03778H12.8396ZM12.8396 8.90711H13.1976V7.8521H12.8444L12.8396 8.90711Z" fill="white"/>
<path d="M13.9913 7.7334H13.909C13.8839 7.86017 13.8441 7.98359 13.7905 8.1012H13.9236V9.01586H14.0517V7.7334H13.9913Z" fill="white"/>
<path d="M14.7556 9.03778C14.7214 9.03714 14.6888 9.0231 14.6648 8.99866C14.6409 8.97422 14.6274 8.94135 14.6274 8.90711V7.8521C14.6274 7.81786 14.6409 7.78499 14.6648 7.76055C14.6888 7.73612 14.7214 7.72207 14.7556 7.72144H15.1136C15.1478 7.72207 15.1804 7.73612 15.2044 7.76055C15.2284 7.78499 15.2418 7.81786 15.2418 7.8521V8.90711C15.2418 8.94135 15.2284 8.97422 15.2044 8.99866C15.1804 9.0231 15.1478 9.03714 15.1136 9.03778H14.7556ZM14.7556 8.90711H15.1136V7.8521H14.7629L14.7556 8.90711Z" fill="white"/>
<path d="M16.6374 9.03778C16.6028 9.03778 16.5696 9.02401 16.5451 8.9995C16.5206 8.975 16.5068 8.94176 16.5068 8.90711V7.8521C16.5068 7.81745 16.5206 7.78421 16.5451 7.75971C16.5696 7.7352 16.6028 7.72144 16.6374 7.72144H16.993C17.0272 7.72207 17.0598 7.73612 17.0838 7.76055C17.1078 7.78499 17.1212 7.81786 17.1212 7.8521V8.90711C17.1212 8.94135 17.1078 8.97422 17.0838 8.99866C17.0598 9.0231 17.0272 9.03714 16.993 9.03778H16.6374ZM16.6374 8.90711H16.993V7.8521H16.6423L16.6374 8.90711Z" fill="white"/>
<path d="M15.9117 7.7334H15.827C15.8022 7.85994 15.7632 7.98331 15.7109 8.1012H15.8585V9.01586H15.9891V7.7334H15.9117Z" fill="white"/>
<path d="M12.9732 5.65967H12.891C12.8658 5.78456 12.8268 5.90629 12.7749 6.02263H12.9103V6.94213H13.041V5.65967H12.9732Z" fill="white"/>
<path d="M13.74 6.96165C13.7055 6.96103 13.6727 6.94706 13.6483 6.92269C13.624 6.89832 13.61 6.86544 13.6094 6.83098V5.78081C13.61 5.74635 13.624 5.71348 13.6483 5.68911C13.6727 5.66473 13.7055 5.65077 13.74 5.65015H14.0955C14.1298 5.65078 14.1624 5.66483 14.1863 5.68926C14.2103 5.7137 14.2237 5.74657 14.2237 5.78081V6.83582C14.2237 6.87006 14.2103 6.90293 14.1863 6.92737C14.1624 6.95181 14.1298 6.96585 14.0955 6.96649H13.74V6.96165ZM13.74 6.8334H14.0955V5.78081H13.7448L13.74 6.8334Z" fill="white"/>
<path d="M15.5344 6.96165C15.5002 6.96101 15.4676 6.94697 15.4436 6.92253C15.4197 6.8981 15.4062 6.86522 15.4063 6.83098V5.78081C15.4062 5.74657 15.4197 5.7137 15.4436 5.68926C15.4676 5.66483 15.5002 5.65078 15.5344 5.65015H15.89C15.9244 5.65077 15.9573 5.66473 15.9817 5.68911C16.006 5.71348 16.02 5.74635 16.0206 5.78081V6.83582C16.02 6.87028 16.006 6.90316 15.9817 6.92753C15.9573 6.9519 15.9244 6.96587 15.89 6.96649H15.5344V6.96165ZM15.5344 6.8334H15.89V5.78081H15.5417L15.5344 6.8334Z" fill="white"/>
<path d="M14.8912 5.65967H14.8065C14.7821 5.78447 14.744 5.90619 14.6929 6.02263H14.8283V6.94213H14.9589V5.65967H14.8912Z" fill="white"/>
<path d="M12.7678 13.1899C12.7336 13.1899 12.7007 13.1765 12.6763 13.1525C12.6519 13.1285 12.6378 13.0959 12.6372 13.0617V12.0066C12.6372 11.972 12.651 11.9388 12.6755 11.9142C12.7 11.8897 12.7332 11.876 12.7678 11.876H13.1234C13.158 11.876 13.1912 11.8897 13.2157 11.9142C13.2402 11.9388 13.254 11.972 13.254 12.0066V13.0617C13.2533 13.0959 13.2393 13.1285 13.2149 13.1525C13.1904 13.1765 13.1576 13.1899 13.1234 13.1899H12.7678ZM12.7678 13.0617H13.1234V12.0066H12.7751L12.7678 13.0617Z" fill="white"/>
<path d="M13.9234 11.8882H13.8387C13.8134 12.0157 13.7736 12.1399 13.7202 12.2584H13.8581V13.1731H13.9863V11.8882H13.9234Z" fill="white"/>
<path d="M14.6853 13.1899C14.6513 13.1899 14.6187 13.1764 14.5947 13.1523C14.5706 13.1283 14.5571 13.0957 14.5571 13.0617V12.0066C14.5571 11.9724 14.5706 11.9395 14.5945 11.9151C14.6185 11.8907 14.6511 11.8766 14.6853 11.876H15.0433C15.0775 11.8766 15.1101 11.8907 15.1341 11.9151C15.1581 11.9395 15.1715 11.9724 15.1715 12.0066V13.0617C15.1715 13.0957 15.158 13.1283 15.1339 13.1523C15.1099 13.1764 15.0773 13.1899 15.0433 13.1899H14.6853ZM14.6853 13.0617H15.0433V12.0066H14.6902L14.6853 13.0617Z" fill="white"/>
<path d="M12.9807 17.3254C12.9465 17.3254 12.9136 17.312 12.8892 17.288C12.8648 17.264 12.8507 17.2314 12.8501 17.1971V16.1397C12.8507 16.1055 12.8648 16.0729 12.8892 16.0489C12.9136 16.0249 12.9465 16.0115 12.9807 16.0115H13.3363C13.3705 16.0115 13.4033 16.0249 13.4278 16.0489C13.4522 16.0729 13.4662 16.1055 13.4669 16.1397V17.1971C13.4662 17.2314 13.4522 17.264 13.4278 17.288C13.4033 17.312 13.3705 17.3254 13.3363 17.3254H12.9807ZM12.9807 17.1971H13.3363V16.1397H12.988L12.9807 17.1971Z" fill="white"/>
<path d="M14.1343 16.0308H14.052C14.0236 16.1587 13.9805 16.2829 13.9238 16.401H14.0617V17.3156H14.1899V16.0308H14.1343Z" fill="white"/>
<path d="M14.8909 17.3254C14.8569 17.3254 14.8243 17.3119 14.8002 17.2878C14.7762 17.2638 14.7627 17.2312 14.7627 17.1971V16.1397C14.7627 16.1057 14.7762 16.0731 14.8002 16.049C14.8243 16.025 14.8569 16.0115 14.8909 16.0115H15.2489C15.2829 16.0115 15.3155 16.025 15.3395 16.049C15.3635 16.0731 15.377 16.1057 15.377 16.1397V17.1971C15.377 17.2312 15.3635 17.2638 15.3395 17.2878C15.3155 17.3119 15.2829 17.3254 15.2489 17.3254H14.8909ZM14.8909 17.1971H15.2489V16.1397H14.9054L14.8909 17.1971Z" fill="white"/>
<path d="M16.5647 13.1899C16.5305 13.1899 16.4976 13.1765 16.4732 13.1525C16.4488 13.1285 16.4347 13.0959 16.4341 13.0617V12.0066C16.4341 11.972 16.4478 11.9388 16.4723 11.9142C16.4968 11.8897 16.5301 11.876 16.5647 11.876H16.9202C16.9545 11.8766 16.9871 11.8907 17.011 11.9151C17.035 11.9395 17.0484 11.9724 17.0484 12.0066V13.0617C17.0484 13.0957 17.0349 13.1283 17.0109 13.1523C16.9868 13.1764 16.9542 13.1899 16.9202 13.1899H16.5647ZM16.5647 13.0617H16.9202V12.0066H16.5695L16.5647 13.0617Z" fill="white"/>
<path d="M15.8394 11.8882H15.7548C15.7297 12.0155 15.6908 12.1396 15.6387 12.2584H15.7741V13.1731H15.9047V11.8882H15.8394Z" fill="white"/>
<path d="M17.7305 11.8882H17.6483C17.6229 12.0157 17.5832 12.1399 17.5298 12.2584H17.6677V13.1731H17.7934V11.8882H17.7305Z" fill="white"/>
<path d="M12.9732 9.80713H12.891C12.8661 9.93368 12.8272 10.057 12.7749 10.1749H12.9103V11.0896H13.041V9.80713H12.9732Z" fill="white"/>
<path d="M13.74 11.1042C13.7055 11.1036 13.6727 11.0897 13.6483 11.0653C13.624 11.0409 13.61 11.008 13.6094 10.9736V9.92583C13.61 9.89137 13.624 9.8585 13.6483 9.83412C13.6727 9.80975 13.7055 9.79579 13.74 9.79517H14.0955C14.1298 9.7958 14.1624 9.80985 14.1863 9.83428C14.2103 9.85872 14.2237 9.89159 14.2237 9.92583V10.9808C14.2237 11.0151 14.2103 11.048 14.1863 11.0724C14.1624 11.0968 14.1298 11.1109 14.0955 11.1115L13.74 11.1042ZM13.74 10.9736H14.0955V9.92583H13.7448L13.74 10.9736Z" fill="white"/>
<path d="M15.6164 11.1042C15.582 11.1036 15.5491 11.0897 15.5248 11.0653C15.5004 11.0409 15.4865 11.008 15.4858 10.9736V9.92583C15.4865 9.89137 15.5004 9.8585 15.5248 9.83412C15.5491 9.80975 15.582 9.79579 15.6164 9.79517H15.972C16.0064 9.79579 16.0393 9.80975 16.0637 9.83412C16.088 9.8585 16.102 9.89137 16.1026 9.92583V10.9808C16.102 11.0153 16.088 11.0482 16.0637 11.0725C16.0393 11.0969 16.0064 11.1109 15.972 11.1115L15.6164 11.1042ZM15.6164 10.9736H15.972V9.92583H15.6164V10.9736Z" fill="white"/>
<path d="M14.8917 9.80713H14.807C14.7821 9.93368 14.7432 10.057 14.6909 10.1749H14.8264V11.0896H14.957V9.80713H14.8917Z" fill="white"/>
<path d="M17.53 11.1042C17.4954 11.1042 17.4622 11.0905 17.4377 11.066C17.4132 11.0415 17.3994 11.0082 17.3994 10.9736V9.92583C17.3994 9.89118 17.4132 9.85794 17.4377 9.83344C17.4622 9.80893 17.4954 9.79517 17.53 9.79517H17.8856C17.9198 9.7958 17.9524 9.80985 17.9764 9.83428C18.0003 9.85872 18.0138 9.89159 18.0138 9.92583V10.9808C18.0138 11.0151 18.0003 11.048 17.9764 11.0724C17.9524 11.0968 17.9198 11.1109 17.8856 11.1115L17.53 11.1042ZM17.53 10.9736H17.8856V9.92583H17.5349L17.53 10.9736Z" fill="white"/>
<path d="M16.8038 9.80713H16.7191C16.6942 9.93368 16.6553 10.057 16.603 10.1749H16.7385V11.0896H16.8691V9.80713H16.8038Z" fill="white"/>
<path d="M12.9732 13.95H12.891C12.8659 14.0772 12.827 14.2014 12.7749 14.3202H12.9103V15.2348H13.041V13.95H12.9732Z" fill="white"/>
<path d="M13.74 15.2517C13.7053 15.2517 13.6721 15.2379 13.6476 15.2134C13.6231 15.1889 13.6094 15.1557 13.6094 15.121V14.066C13.61 14.0318 13.624 13.9991 13.6485 13.9752C13.6729 13.9512 13.7058 13.9377 13.74 13.9377H14.0955C14.1295 13.9377 14.1621 13.9513 14.1862 13.9753C14.2102 13.9994 14.2237 14.032 14.2237 14.066V15.121C14.2237 15.1552 14.2103 15.1881 14.1863 15.2125C14.1624 15.237 14.1298 15.251 14.0955 15.2517H13.74ZM13.74 15.121H14.0955V14.066H13.7448L13.74 15.121Z" fill="white"/>
<path d="M15.6164 15.2517C15.5818 15.2517 15.5486 15.2379 15.5241 15.2134C15.4996 15.1889 15.4858 15.1557 15.4858 15.121V14.066C15.4865 14.0318 15.5005 13.9991 15.5249 13.9752C15.5494 13.9512 15.5822 13.9377 15.6164 13.9377H15.972C16.0062 13.9377 16.0391 13.9512 16.0635 13.9752C16.0879 13.9991 16.102 14.0318 16.1026 14.066V15.121C16.1026 15.1557 16.0888 15.1889 16.0644 15.2134C16.0399 15.2379 16.0066 15.2517 15.972 15.2517H15.6164ZM15.6164 15.121H15.972V14.066H15.6164V15.121Z" fill="white"/>
<path d="M14.8917 13.95H14.807C14.7819 14.0772 14.743 14.2014 14.6909 14.3202H14.8264V15.2348H14.957V13.95H14.8917Z" fill="white"/>
<path d="M16.8038 13.95H16.7191C16.6941 14.0772 16.6551 14.2014 16.603 14.3202H16.7385V15.2348H16.8691V13.95H16.8038Z" fill="white"/>
<path d="M9.02838 16.8581L9.11062 17.3058C9.11062 17.3324 9.24848 17.9422 9.81687 17.9422C10.5763 17.9422 10.615 17.1122 10.615 16.9428V6.37821C10.615 5.33288 10.4796 4.86587 9.69352 4.86587C9.58636 4.85523 9.47815 4.86694 9.37574 4.90026C9.27333 4.93358 9.17893 4.98778 9.09852 5.05945C9.01591 5.15165 8.97177 5.27202 8.97517 5.39579L9.00178 5.73214L8.68493 5.61115C8.65107 5.59663 7.86257 5.29901 7.30386 5.87006C7.18261 6.0095 7.09093 6.17212 7.03439 6.34807C6.97784 6.52401 6.95761 6.70961 6.97491 6.89362L7.00877 7.13559L6.76691 7.12349C6.76691 7.12349 5.87925 7.08962 5.54305 7.64132C5.41474 7.81575 5.34334 8.02553 5.33857 8.24204C5.33381 8.45856 5.39593 8.67128 5.51644 8.85119C5.52725 8.87567 5.5402 8.89915 5.55514 8.92136L5.66398 9.16333L5.42211 9.22625C5.18806 9.29483 4.97676 9.42514 4.81037 9.60352C4.64398 9.78191 4.52863 10.0018 4.4764 10.2401C4.42436 10.4404 4.43785 10.6521 4.5149 10.8442C4.59195 11.0362 4.7285 11.1985 4.90451 11.3072L5.14638 11.4452L4.94563 11.6436C4.94563 11.6436 4.25872 12.338 4.46189 12.9672C4.53865 13.1647 4.65899 13.3424 4.81394 13.4869C4.9689 13.6315 5.15446 13.7392 5.35681 13.802L5.5624 13.8601L5.50435 14.0682C5.50435 14.0682 5.23829 15.0143 5.71719 15.5394C6.19609 16.0644 6.68467 15.8757 6.68467 15.8684L7.02087 15.7402L6.96282 16.0959C6.96282 16.1346 6.83221 17.0178 7.60377 17.3203C8.37533 17.6228 8.74539 17.2041 8.75023 17.1969L9.02838 16.8581Z" fill="#F08707"/>
<path d="M9.75886 4.76465H9.66211V6.61817L10.8182 7.69496L10.8811 7.62237L9.75886 6.57462V4.76465Z" fill="white"/>
<path d="M10.8807 6.89149L10.3316 6.35189V4.86133H10.2349V6.39061L10.8105 6.96167L10.8807 6.89149Z" fill="white"/>
<path d="M9.24321 4.86133H9.14404V6.86488L10.7646 8.41351L10.8299 8.34092L9.24321 6.82616V4.86133Z" fill="white"/>
<path d="M10.7017 12.1156L10.7646 12.0455L8.71112 10.3081V7.97304C8.76297 7.96675 8.81026 7.94025 8.84271 7.89929C8.87515 7.85833 8.89013 7.80622 8.8844 7.75428C8.87867 7.70233 8.85268 7.65475 8.81208 7.62186C8.77149 7.58897 8.71956 7.57343 8.66758 7.57862C8.61434 7.57862 8.56327 7.59978 8.52563 7.63744C8.48798 7.67511 8.46683 7.72619 8.46683 7.77946C8.46602 7.82509 8.48135 7.86953 8.51012 7.90495C8.53888 7.94037 8.57923 7.96449 8.62404 7.97304V10.3444L10.7017 12.1156Z" fill="white"/>
<path d="M8.16676 7.55928C8.20403 7.55148 8.2383 7.53323 8.26559 7.50668C8.29288 7.48012 8.31206 7.44635 8.3209 7.40931C8.32973 7.37226 8.32785 7.33346 8.31548 7.29744C8.30311 7.26143 8.28076 7.22967 8.25103 7.20588C8.22131 7.18208 8.18543 7.16724 8.14759 7.16307C8.10975 7.1589 8.0715 7.16559 8.03731 7.18234C8.00313 7.1991 7.9744 7.22523 7.9545 7.2577C7.93459 7.29016 7.92433 7.32762 7.9249 7.3657C7.9235 7.41111 7.93831 7.45552 7.96668 7.491C7.99504 7.52647 8.03511 7.55068 8.07969 7.55928V10.6324L10.779 12.8779L10.8467 12.8029L8.18611 10.5791V7.55928H8.16676Z" fill="white"/>
<path d="M4.93854 9.28955H4.8418V13.6959H4.93854V9.28955Z" fill="white"/>
<path d="M7.07119 8.36758C7.10764 8.35938 7.14103 8.34104 7.16752 8.31469C7.19401 8.28833 7.21252 8.25502 7.22092 8.2186C7.22931 8.18219 7.22726 8.14413 7.21499 8.10883C7.20272 8.07353 7.18073 8.04241 7.15156 8.01907C7.12238 7.99572 7.08721 7.98109 7.05009 7.97686C7.01297 7.97263 6.97541 7.97898 6.94174 7.99517C6.90807 8.01136 6.87965 8.03674 6.85977 8.06838C6.83988 8.10001 6.82933 8.13663 6.82933 8.17401C6.82803 8.21976 6.84318 8.26446 6.87203 8.29998C6.90088 8.3355 6.94151 8.35949 6.98654 8.36758V13.2942L5.29346 14.7726L5.35876 14.8428L7.08087 13.3377V11.1745L7.56461 11.5907V13.5265L5.42648 15.2905L5.48937 15.3679L7.64684 13.5991L7.66619 13.5846V11.6681L8.08221 12.0166V12.5368C8.04576 12.545 8.01237 12.5633 7.98588 12.5897C7.95939 12.6161 7.94088 12.6494 7.93249 12.6858C7.92409 12.7222 7.92614 12.7603 7.93841 12.7956C7.95069 12.8309 7.97267 12.862 8.00185 12.8853C8.03102 12.9087 8.06619 12.9233 8.10331 12.9275C8.14043 12.9318 8.17799 12.9254 8.21166 12.9092C8.24533 12.893 8.27375 12.8677 8.29364 12.836C8.31352 12.8044 8.32408 12.7678 8.32408 12.7304C8.32538 12.6846 8.31023 12.6399 8.28137 12.6044C8.25252 12.5689 8.21189 12.5449 8.16686 12.5368V12.1037L8.61432 12.4787V17.3956H8.71107V12.5562L9.14401 12.924V15.4284C9.10003 15.4386 9.06071 15.4632 9.03224 15.4982C9.00377 15.5333 8.98778 15.5768 8.9868 15.622C8.9868 15.6752 9.00795 15.7263 9.0456 15.764C9.08325 15.8017 9.13431 15.8228 9.18755 15.8228C9.24079 15.8228 9.29185 15.8017 9.3295 15.764C9.36715 15.7263 9.3883 15.6752 9.3883 15.622C9.38911 15.5763 9.37378 15.5319 9.34501 15.4965C9.31625 15.4611 9.27589 15.4369 9.23109 15.4284V13.0087L9.66161 13.3716V14.8549C9.62516 14.8631 9.59177 14.8815 9.56529 14.9078C9.5388 14.9342 9.52029 14.9675 9.51189 15.0039C9.50349 15.0403 9.50555 15.0784 9.51782 15.1137C9.53009 15.149 9.55208 15.1801 9.58125 15.2034C9.61042 15.2268 9.6456 15.2414 9.68272 15.2456C9.71983 15.2499 9.75739 15.2435 9.79106 15.2273C9.82474 15.2111 9.85315 15.1858 9.87304 15.1541C9.89293 15.1225 9.90348 15.0859 9.90348 15.0485C9.90488 15.0031 9.89007 14.9587 9.8617 14.9232C9.83334 14.8877 9.79327 14.8635 9.74869 14.8549V13.4611L10.2155 13.858V15.6776C10.1715 15.6878 10.1322 15.7124 10.1037 15.7475C10.0752 15.7825 10.0593 15.8261 10.0583 15.8712C10.0552 15.8993 10.058 15.9277 10.0667 15.9546C10.0753 15.9814 10.0895 16.0062 10.1083 16.0272C10.1271 16.0483 10.1502 16.0651 10.1759 16.0766C10.2017 16.0881 10.2296 16.0941 10.2578 16.0941C10.286 16.0941 10.3139 16.0881 10.3397 16.0766C10.3655 16.0651 10.3885 16.0483 10.4074 16.0272C10.4262 16.0062 10.4404 15.9814 10.449 15.9546C10.4576 15.9277 10.4605 15.8993 10.4574 15.8712C10.4583 15.8259 10.4433 15.7817 10.415 15.7464C10.3867 15.711 10.3469 15.6867 10.3026 15.6776V13.9403L10.675 14.25L10.7379 14.1774L7.04459 11.0487V8.36516H7.07119V8.36758Z" fill="white"/>
<path d="M8.11863 6.45585C8.17123 6.45585 8.22168 6.43494 8.25887 6.39773C8.29607 6.36052 8.31696 6.31005 8.31696 6.25743C8.31836 6.21203 8.30355 6.16761 8.27518 6.13213C8.24682 6.09666 8.20675 6.07246 8.16217 6.06385V5.36938H8.06542V6.06385C8.02124 6.07367 7.98167 6.09813 7.95313 6.13327C7.9246 6.1684 7.90876 6.21216 7.9082 6.25743C7.9124 6.31074 7.93626 6.36058 7.97516 6.39725C8.01405 6.43393 8.06519 6.45481 8.11863 6.45585Z" fill="white"/>
<path d="M7.604 9.9959C7.65725 9.9959 7.70831 9.97474 7.74596 9.93708C7.7836 9.89942 7.80476 9.84833 7.80476 9.79507C7.80556 9.74944 7.79023 9.70499 7.76146 9.66957C7.7327 9.63415 7.69235 9.61004 7.64754 9.60149V5.50244H7.55079V9.59423C7.50686 9.60412 7.46759 9.62867 7.43946 9.66386C7.41132 9.69904 7.396 9.74275 7.396 9.78781C7.39723 9.84261 7.41954 9.89483 7.45828 9.93359C7.49703 9.97235 7.54922 9.99467 7.604 9.9959Z" fill="white"/>
<path d="M7.60404 11.0701C7.64111 11.0705 7.6774 11.0596 7.70805 11.0387L10.6951 13.5528L10.758 13.4826L7.77335 10.9734C7.79191 10.9428 7.80115 10.9075 7.79996 10.8717C7.80124 10.8178 7.78106 10.7656 7.74387 10.7266C7.70667 10.6876 7.65551 10.6649 7.60162 10.6636C7.54774 10.6623 7.49555 10.6825 7.45654 10.7197C7.41753 10.757 7.3949 10.8081 7.39362 10.8621C7.39294 10.8898 7.39794 10.9173 7.4083 10.943C7.41867 10.9688 7.43418 10.9921 7.45389 11.0116C7.4736 11.0311 7.49709 11.0463 7.52291 11.0564C7.54874 11.0665 7.57634 11.0711 7.60404 11.0701Z" fill="white"/>
<path d="M5.98344 10.7145C6.03669 10.7145 6.08775 10.6934 6.1254 10.6557C6.16304 10.6181 6.18419 10.567 6.18419 10.5137C6.18287 10.4697 6.16764 10.4273 6.14069 10.3925C6.11375 10.3577 6.07648 10.3324 6.03424 10.3201V7.13574H5.94233V10.3177C5.89802 10.3281 5.85829 10.3526 5.82907 10.3875C5.79985 10.4224 5.78273 10.4658 5.78027 10.5113C5.78264 10.5644 5.8048 10.6148 5.8424 10.6524C5.88 10.69 5.93032 10.7122 5.98344 10.7145Z" fill="white"/>
<path d="M6.52244 12.1277C6.57504 12.1277 6.62549 12.1068 6.66268 12.0696C6.69988 12.0324 6.72077 11.9819 6.72077 11.9293C6.72217 11.8839 6.70736 11.8395 6.67899 11.804C6.65062 11.7686 6.61056 11.7443 6.56597 11.7357V7.03418H6.46923V11.7333C6.42525 11.7435 6.38592 11.7681 6.35745 11.8031C6.32898 11.8382 6.31299 11.8817 6.31201 11.9269C6.31563 11.9806 6.33924 12.0311 6.3782 12.0682C6.41715 12.1054 6.46861 12.1267 6.52244 12.1277Z" fill="white"/>
<path d="M8.11851 13.1975C8.06527 13.1975 8.01421 13.2187 7.97656 13.2563C7.93891 13.294 7.91776 13.3451 7.91776 13.3983C7.91646 13.4441 7.93161 13.4888 7.96046 13.5243C7.98931 13.5598 8.02995 13.5838 8.07498 13.5919V13.8339L5.81592 15.7019L5.8788 15.7794L6.47622 15.2954V16.0939H6.57297V15.218H6.5512L6.97447 14.8744V17.0086H7.07122V14.7921L7.55496 14.3977V17.4127H7.6517V14.3203L8.06772 13.9767V17.5289H8.16447V13.6064C8.2084 13.5966 8.24767 13.572 8.2758 13.5368C8.30394 13.5016 8.31926 13.4579 8.31926 13.4129C8.32056 13.3855 8.31636 13.3581 8.30692 13.3323C8.29747 13.3065 8.28297 13.2829 8.26426 13.2629C8.24555 13.2428 8.22302 13.2267 8.19799 13.2154C8.17296 13.2042 8.14593 13.1981 8.11851 13.1975Z" fill="white"/>
<path d="M9.71546 16.4639C9.66264 16.4645 9.6122 16.4859 9.57507 16.5235C9.53794 16.5611 9.51713 16.6119 9.51713 16.6647C9.51622 16.71 9.53121 16.7542 9.55949 16.7895C9.58778 16.8249 9.62756 16.8492 9.67193 16.8583V18.0899H9.76867V16.8583C9.81246 16.8477 9.85155 16.823 9.87996 16.7881C9.90836 16.7531 9.9245 16.7097 9.92589 16.6647C9.92174 16.6112 9.89796 16.561 9.85912 16.524C9.82028 16.4869 9.76912 16.4655 9.71546 16.4639Z" fill="white"/>
<path d="M9.19001 16.4639C9.13677 16.4639 9.08571 16.485 9.04806 16.5227C9.01041 16.5604 8.98926 16.6114 8.98926 16.6647C8.98893 16.7102 9.00443 16.7544 9.03312 16.7897C9.06181 16.8251 9.10188 16.8493 9.14648 16.8583V17.6786H9.24323V16.8583C9.28676 16.8476 9.32554 16.8228 9.35354 16.7878C9.38153 16.7528 9.39718 16.7095 9.39802 16.6647C9.39499 16.6112 9.37189 16.5608 9.33333 16.5235C9.29477 16.4863 9.24359 16.465 9.19001 16.4639Z" fill="white"/>
<path d="M10.2789 16.4639C10.2256 16.4639 10.1746 16.485 10.1369 16.5227C10.0993 16.5604 10.0781 16.6114 10.0781 16.6647C10.0778 16.7102 10.0933 16.7544 10.122 16.7897C10.1507 16.8251 10.1908 16.8493 10.2353 16.8583V17.9327H10.3321V16.8583C10.3789 16.8453 10.4194 16.8159 10.4461 16.7754C10.4729 16.7348 10.484 16.686 10.4776 16.6378C10.4711 16.5897 10.4474 16.5456 10.4108 16.5136C10.3743 16.4816 10.3274 16.4639 10.2789 16.4639Z" fill="white"/>
<path d="M5.39523 8.57564V14.0636L6.42559 13.2288C6.45229 13.2407 6.48104 13.2473 6.51025 13.2482C6.54995 13.2482 6.58877 13.2364 6.62178 13.2143C6.65479 13.1922 6.68052 13.1609 6.69572 13.1242C6.71091 13.0875 6.71489 13.0471 6.70714 13.0081C6.6994 12.9692 6.68028 12.9334 6.6522 12.9053C6.62413 12.8772 6.58835 12.8581 6.54941 12.8503C6.51047 12.8426 6.47011 12.8466 6.43342 12.8618C6.39674 12.877 6.36539 12.9027 6.34333 12.9357C6.32127 12.9688 6.3095 13.0076 6.3095 13.0473C6.30909 13.0904 6.32362 13.1323 6.35061 13.1659L6.02651 13.4321V11.3704C6.07837 11.3642 6.12566 11.3377 6.1581 11.2967C6.19055 11.2557 6.20553 11.2036 6.19979 11.1517C6.19406 11.0997 6.16807 11.0522 6.12748 11.0193C6.08688 10.9864 6.03495 10.9708 5.98297 10.976C5.92973 10.976 5.87867 10.9972 5.84102 11.0348C5.80337 11.0725 5.78222 11.1236 5.78222 11.1769C5.78141 11.2225 5.79675 11.2669 5.82551 11.3024C5.85428 11.3378 5.89463 11.3619 5.93944 11.3704V13.5095L5.49924 13.8652V8.57564C5.5365 8.56783 5.57077 8.54959 5.59806 8.52303C5.62535 8.49648 5.64453 8.46271 5.65337 8.42566C5.6622 8.38862 5.66032 8.34982 5.64795 8.3138C5.63558 8.27778 5.61323 8.24603 5.5835 8.22223C5.55378 8.19844 5.5179 8.1836 5.48006 8.17943C5.44222 8.17526 5.40397 8.18195 5.36978 8.1987C5.3356 8.21545 5.30688 8.24159 5.28697 8.27405C5.26707 8.30652 5.2568 8.34398 5.25737 8.38206C5.2527 8.42561 5.26416 8.46936 5.28956 8.50503C5.31497 8.54071 5.35256 8.56582 5.39523 8.57564Z" fill="white"/>
<path d="M7.07866 7.23254C7.13126 7.23254 7.18171 7.21164 7.2189 7.17443C7.2561 7.13722 7.27699 7.08675 7.27699 7.03412C7.27839 6.98872 7.26358 6.9443 7.23521 6.90883C7.20684 6.87336 7.16678 6.84915 7.12219 6.84054V6.07349H7.02545V6.84054C6.98261 6.85175 6.94468 6.87681 6.91756 6.91182C6.89044 6.94683 6.87565 6.98983 6.87549 7.03412C6.87675 7.08719 6.89871 7.13765 6.93668 7.17473C6.97464 7.21181 7.0256 7.23256 7.07866 7.23254Z" fill="white"/>
<path d="M10.3319 10.042C10.3692 10.0342 10.4035 10.016 10.4307 9.9894C10.458 9.96285 10.4772 9.92908 10.486 9.89203C10.4949 9.85499 10.493 9.81619 10.4806 9.78017C10.4683 9.74415 10.4459 9.71239 10.4162 9.6886C10.3865 9.66481 10.3506 9.64996 10.3127 9.6458C10.2749 9.64163 10.2367 9.64831 10.2025 9.66507C10.1683 9.68182 10.1396 9.70796 10.1197 9.74042C10.0997 9.77289 10.0895 9.81035 10.09 9.84843C10.0887 9.89383 10.1035 9.93825 10.1318 9.97372C10.1602 10.0092 10.2003 10.0334 10.2448 10.042V10.9107L9.78045 10.5139V10.2477C9.82613 10.2382 9.86716 10.2134 9.89667 10.1772C9.92618 10.1411 9.94236 10.0959 9.94251 10.0493C9.94239 10.012 9.9319 9.97544 9.91221 9.94377C9.89251 9.9121 9.86439 9.88655 9.83099 9.86997C9.7976 9.85339 9.76025 9.84644 9.72313 9.8499C9.686 9.85336 9.65058 9.8671 9.62082 9.88956C9.59106 9.91203 9.56815 9.94235 9.55464 9.97711C9.54114 10.0119 9.53757 10.0497 9.54435 10.0864C9.55113 10.1231 9.56799 10.1571 9.59303 10.1848C9.61807 10.2124 9.6503 10.2325 9.68613 10.2428V10.4292L9.2556 10.0662V7.69969L9.71031 8.13283H9.66678V8.9628C9.62034 8.97432 9.57972 9.00245 9.55258 9.04187C9.52545 9.0813 9.51367 9.12929 9.51947 9.1768C9.52527 9.22432 9.54826 9.26806 9.58408 9.29979C9.6199 9.33152 9.6661 9.34903 9.71394 9.34903C9.76179 9.34903 9.80798 9.33152 9.8438 9.29979C9.87963 9.26806 9.90261 9.22432 9.90841 9.1768C9.91421 9.12929 9.90243 9.0813 9.8753 9.04187C9.84816 9.00245 9.80754 8.97432 9.76111 8.9628V8.20058L10.2279 8.64823V8.9991C10.1907 9.0069 10.1564 9.02515 10.1291 9.0517C10.1018 9.07825 10.0826 9.11202 10.0738 9.14907C10.0649 9.18612 10.0668 9.22491 10.0792 9.26093C10.0916 9.29695 10.1139 9.32871 10.1436 9.3525C10.1734 9.37629 10.2092 9.39114 10.2471 9.39531C10.2849 9.39947 10.3232 9.39279 10.3574 9.37603C10.3916 9.35928 10.4203 9.33315 10.4402 9.30068C10.4601 9.26822 10.4704 9.23076 10.4698 9.19268C10.4711 9.14692 10.4559 9.10222 10.4271 9.0667C10.3982 9.03118 10.3576 9.00719 10.3126 8.9991V8.75712L10.6826 9.10799L10.7479 9.03781L8.81298 7.20365C8.82752 7.1769 8.83572 7.14717 8.83694 7.11675C8.83815 7.08632 8.83235 7.05603 8.81999 7.02821C8.80763 7.00039 8.78903 6.97579 8.76564 6.95631C8.74224 6.93683 8.71469 6.923 8.6851 6.91589C8.6555 6.90878 8.62467 6.90857 8.59499 6.91529C8.56531 6.92201 8.53757 6.93548 8.51392 6.95464C8.49027 6.97381 8.47135 6.99816 8.45862 7.02581C8.44589 7.05347 8.43969 7.08368 8.4405 7.11412C8.4405 7.16674 8.4614 7.21721 8.49859 7.25442C8.53578 7.29163 8.58623 7.31254 8.63883 7.31254C8.6817 7.31426 8.72376 7.30052 8.75735 7.27382L9.12499 7.62226V10.1122L10.6802 11.4285L10.7431 11.3559L10.3101 10.993V10.042H10.3319Z" fill="white"/>
<path d="M9.81189 18.3635C9.59572 18.3629 9.38438 18.2994 9.2036 18.1809C9.02281 18.0623 8.88037 17.8937 8.79363 17.6956C8.55737 17.8172 8.29399 17.8764 8.02844 17.8676C7.7629 17.8589 7.504 17.7824 7.27629 17.6454C7.04857 17.5085 6.85958 17.3157 6.72724 17.0852C6.59489 16.8547 6.52358 16.5942 6.52006 16.3285C6.3062 16.3357 6.09349 16.2944 5.89787 16.2076C5.70225 16.1209 5.5288 15.9909 5.39053 15.8276C4.89228 15.2904 4.96967 14.5064 5.03498 14.1337C4.80561 14.0396 4.5987 13.898 4.42781 13.7182C4.25692 13.5385 4.1259 13.3247 4.04332 13.0908C3.84498 12.4496 4.2489 11.8302 4.49077 11.5301C4.30427 11.3608 4.16595 11.1451 4.08989 10.905C4.01384 10.6648 4.00278 10.4088 4.05783 10.1629C4.11238 9.88875 4.23236 9.6318 4.40755 9.41399C4.58274 9.19617 4.80795 9.02393 5.064 8.91194C4.95164 8.67496 4.90324 8.41269 4.9236 8.15119C4.94397 7.88969 5.0324 7.63809 5.1801 7.42138C5.52355 6.85758 6.20321 6.73417 6.55392 6.69546C6.56252 6.27345 6.72313 5.86874 7.00621 5.55576C7.21095 5.35446 7.46392 5.20915 7.7409 5.13373C8.01788 5.05831 8.30957 5.05532 8.58804 5.12504C8.62464 4.98868 8.69255 4.86274 8.78637 4.75724C8.90565 4.64044 9.04848 4.55045 9.20531 4.49328C9.36214 4.43611 9.52936 4.41308 9.6958 4.42574C11.0358 4.42574 11.0358 5.63561 11.0358 6.36153V16.931C11.0382 17.6375 10.6609 18.3635 9.81189 18.3635ZM9.02098 16.8656L9.10322 17.3133C9.10322 17.3399 9.24108 17.9497 9.80948 17.9497C10.5689 17.9497 10.6076 17.1197 10.6076 16.9503V6.37847C10.6076 5.33314 10.4722 4.86613 9.68612 4.86613C9.57896 4.85549 9.47075 4.8672 9.36834 4.90052C9.26593 4.93384 9.17153 4.98804 9.09112 5.05971C9.00851 5.15191 8.96437 5.27228 8.96777 5.39605L8.99438 5.7324L8.67753 5.61141C8.64367 5.59689 7.85517 5.29927 7.29646 5.87032C7.17521 6.00976 7.08353 6.17238 7.02699 6.34833C6.97044 6.52427 6.95021 6.70987 6.96751 6.89388L7.00138 7.13585L6.75951 7.12375C6.75951 7.12375 5.87185 7.08987 5.53565 7.64158C5.40734 7.81601 5.33594 8.02579 5.33118 8.2423C5.32641 8.45882 5.38853 8.67154 5.50904 8.85145C5.51985 8.87593 5.5328 8.89941 5.54774 8.92162L5.65658 9.16359L5.41471 9.22651C5.18066 9.29509 4.96937 9.4254 4.80297 9.60378C4.63658 9.78217 4.52123 10.0021 4.46901 10.2404C4.41696 10.4407 4.43045 10.6524 4.5075 10.8444C4.58455 11.0365 4.7211 11.1988 4.89711 11.3075L5.13898 11.4454L4.93823 11.6438C4.93823 11.6438 4.25132 12.3383 4.45449 12.9674C4.53125 13.165 4.65159 13.3427 4.80655 13.4872C4.9615 13.6317 5.14706 13.7394 5.34941 13.8022L5.555 13.8603L5.49695 14.0684C5.49695 14.0684 5.23089 15.0145 5.70979 15.5396C6.1887 16.0647 6.67727 15.876 6.67727 15.8687L7.01347 15.7405L6.95542 16.0962C6.95542 16.1349 6.82481 17.0181 7.59637 17.3205C8.36794 17.623 8.738 17.2044 8.74283 17.1971L9.02098 16.8656Z" fill="#EB600A"/>
<path d="M11.9448 16.9384V6.3714C11.9448 5.64547 11.9448 4.4356 13.2848 4.4356C13.451 4.42279 13.6181 4.44551 13.7749 4.50225C13.9317 4.55898 14.0746 4.64845 14.1942 4.76469C14.2908 4.86917 14.359 4.99661 14.3925 5.13491C14.6707 5.06393 14.9626 5.06606 15.2397 5.1411C15.5169 5.21614 15.7699 5.36154 15.9744 5.5632C16.2627 5.87387 16.4241 6.28141 16.4267 6.70532C16.7822 6.73194 17.4643 6.86261 17.8005 7.43124C17.9507 7.6478 18.0406 7.90042 18.061 8.16321C18.0814 8.426 18.0316 8.68949 17.9166 8.92665C18.1739 9.03747 18.4001 9.20966 18.5755 9.42816C18.7509 9.64666 18.8701 9.90482 18.9227 10.1801C18.9773 10.4259 18.966 10.6818 18.89 10.9219C18.8139 11.1619 18.6759 11.3777 18.4898 11.5472C18.7317 11.8449 19.1235 12.474 18.9179 13.108C18.8352 13.3421 18.7042 13.5561 18.5333 13.7362C18.3625 13.9163 18.1556 14.0584 17.9262 14.1533C17.9891 14.5163 18.069 15.3002 17.5707 15.8471C17.4328 16.0101 17.2597 16.1397 17.0645 16.226C16.8692 16.3124 16.6569 16.3533 16.4436 16.3456C16.4483 16.644 16.3635 16.937 16.2001 17.1868C16.0367 17.4365 15.8022 17.6315 15.5269 17.7466C15.3128 17.8488 15.0772 17.8978 14.8401 17.8894C14.603 17.881 14.3715 17.8154 14.1652 17.6982C14.078 17.8953 13.9357 18.063 13.7555 18.181C13.5753 18.2991 13.3648 18.3625 13.1493 18.3636C12.3197 18.3636 11.9448 17.6377 11.9448 16.9384ZM14.245 17.2094C14.245 17.2094 14.6078 17.6426 15.3915 17.3328C16.1751 17.0231 16.0324 16.1399 16.0324 16.1084L15.9744 15.7503L16.3106 15.881C16.4864 15.9258 16.6714 15.9186 16.8431 15.8602C17.0149 15.8018 17.166 15.6947 17.278 15.5519C17.7618 15.0244 17.4981 14.0855 17.4909 14.0807L17.4328 13.8726L17.6384 13.8145C17.8409 13.7512 18.0264 13.643 18.1813 13.498C18.3363 13.3531 18.4566 13.1751 18.5333 12.9773C18.7341 12.3482 18.0496 11.6634 18.0496 11.6561L17.8488 11.4553L18.1028 11.3198C18.2771 11.2092 18.4115 11.0458 18.4864 10.8533C18.5612 10.6609 18.5726 10.4496 18.5188 10.2502C18.465 10.0129 18.3491 9.79412 18.1829 9.61637C18.0167 9.43863 17.8063 9.30832 17.5731 9.23879L17.3312 9.17588L17.4401 8.93391C17.4508 8.90939 17.4638 8.8859 17.4788 8.86373C17.5967 8.68285 17.6572 8.47056 17.6525 8.25468C17.6477 8.0388 17.5779 7.82938 17.4522 7.65386C17.1232 7.10216 16.2428 7.13362 16.2283 7.13362L15.9865 7.14813L16.0203 6.90616C16.0371 6.72219 16.0166 6.53673 15.96 6.36087C15.9035 6.18501 15.8121 6.02235 15.6914 5.88261C15.1327 5.29703 14.3442 5.60434 14.3103 5.61644L13.9935 5.73984L14.0201 5.4035C14.0203 5.28027 13.9765 5.16102 13.8967 5.06716C13.8166 4.99498 13.7223 4.94045 13.6198 4.9071C13.5173 4.87376 13.4089 4.86233 13.3017 4.87358C12.5108 4.87358 12.3802 5.34059 12.3802 6.3835V16.9505C12.3802 17.1199 12.4189 17.9474 13.1784 17.9474C13.7467 17.9474 13.8846 17.3401 13.8846 17.3135L13.9669 16.8658L14.245 17.2094Z" fill="#077834"/>
</svg>
