<svg width="60" height="60" viewBox="0 0 60 60" fill="none" xmlns="http://www.w3.org/2000/svg">
<path d="M29.9853 7.34934C32.0137 7.34934 33.6894 5.67369 33.6894 3.67467C33.6894 1.64625 32.0137 0 29.9853 0C27.9569 0 26.3106 1.61685 26.3106 3.67467C26.3106 5.67369 28.0157 7.34934 29.9853 7.34934ZM46.0069 13.9931C47.4179 15.4042 49.7991 15.4042 51.2102 13.9931C52.6801 12.5527 52.6801 10.2303 51.2102 8.78981C49.7403 7.31994 47.4767 7.31994 46.0069 8.78981C44.5958 10.2009 44.5958 12.5821 46.0069 13.9931ZM8.76041 14.0225C10.1715 15.4336 12.5527 15.4336 13.9637 14.0225C15.4336 12.5233 15.4336 10.2891 13.9637 8.81921C12.5233 7.34934 10.2009 7.34934 8.76041 8.81921C7.34934 10.2303 7.34934 12.5821 8.76041 14.0225ZM29.9853 45.4483C38.4223 45.4483 45.3895 38.4811 45.3895 30.0441C45.3895 21.6365 38.4223 14.6693 29.9853 14.6693C21.5777 14.6693 14.6105 21.6365 14.6105 30.0441C14.6105 38.4811 21.5777 45.4483 29.9853 45.4483ZM3.67467 33.7188C5.67369 33.7188 7.34934 32.0137 7.34934 30.0441C7.34934 27.9863 5.73248 26.34 3.67467 26.34C1.64625 26.34 0 28.0157 0 30.0441C0 32.0431 1.67565 33.7188 3.67467 33.7188ZM56.3253 33.8657C58.3831 33.8657 60 32.2489 60 30.1911C60 28.2215 58.3243 26.5164 56.3253 26.5164C54.2969 26.5164 52.6507 28.1921 52.6507 30.1911C52.6507 32.2195 54.2969 33.8657 56.3253 33.8657ZM8.78981 51.2102C10.2303 52.6801 12.5527 52.6801 13.9931 51.2102C15.4042 49.7991 15.4042 47.4473 13.9931 46.0069C12.5821 44.5958 10.2009 44.5958 8.78981 46.0069C7.31994 47.4767 7.31994 49.7697 8.78981 51.2102ZM45.8599 51.3572C47.3591 52.7976 49.5933 52.7976 51.0926 51.3572C52.5037 49.9461 52.5037 47.5649 51.0926 46.1538C49.6227 44.7134 47.3003 44.7134 45.8599 46.1538C44.4194 47.5943 44.4194 49.9167 45.8599 51.3572ZM29.9853 60C32.0137 60 33.6894 58.3537 33.6894 56.3253C33.6894 54.3263 32.0137 52.6507 29.9853 52.6507C28.0157 52.6507 26.3106 54.3263 26.3106 56.3253C26.3106 58.3831 27.9569 60 29.9853 60Z" fill="#FFC122"/>
</svg>
