<svg width="133" height="109" viewBox="0 0 133 109" fill="none" xmlns="http://www.w3.org/2000/svg">
<path fill-rule="evenodd" clip-rule="evenodd" d="M15.9677 83.1226H5.5871L5.5871 108.876H55.8236V83.1226H45.3776L45.3776 1.95942L30.9323 1.76017L0.755859 19.5195L0.755859 51.4133L15.9677 42.3384L15.9677 83.1226ZM9.52021 104.944V87.0552L9.51968 87.0552V104.944L9.52021 104.944ZM19.9003 87.0552V35.4135L19.9008 35.4132V87.0552L19.9003 87.0552ZM31.9789 5.70757L31.9784 5.70756L4.68844 21.7682L4.68844 44.4881L4.68896 44.4878L4.68896 21.7682L31.9789 5.70757ZM95.6532 48.8447L60.3133 86.4102V108.876L132.747 108.876V80.9682L100.923 80.9682L123.038 57.0613L123.057 57.0401C125.974 53.7941 128.324 50.3568 130.069 46.7238C131.952 42.8535 132.878 38.6727 132.878 34.238C132.878 28.932 131.92 24.0773 129.892 19.7673C127.922 15.5799 125.21 12.0085 121.759 9.10447C118.395 6.2382 114.512 4.08592 110.152 2.63185C105.854 1.1838 101.339 0.469238 96.6283 0.469238C91.6393 0.469238 86.8999 1.25453 82.4389 2.85464C77.9549 4.46306 73.9885 6.84551 70.5812 10.0059C67.1773 13.16 64.5407 17.0306 62.6461 21.5462C60.7111 26.1138 59.791 31.2177 59.791 36.7842V40.7168L87.2105 40.7168L87.3064 36.8825C87.3398 35.5444 87.5719 34.3099 87.9878 33.1581C88.3889 32.0474 88.9364 31.1258 89.6171 30.3522C90.2943 29.6291 91.1362 29.0404 92.1997 28.5973L92.2239 28.5872L92.248 28.5768C93.2715 28.1342 94.593 27.8552 96.3018 27.8552C97.637 27.8552 98.6746 28.0821 99.4915 28.4395L99.5584 28.4688L99.6264 28.4956C100.594 28.8769 101.295 29.3602 101.817 29.9053L101.877 29.9684L101.94 30.0289C102.552 30.6142 102.999 31.2702 103.31 32.0203L103.319 32.0431L103.329 32.0658C103.652 32.8201 103.794 33.5351 103.794 34.238C103.794 36.4507 103.2 38.7106 101.881 41.0634C100.496 43.5333 98.4699 46.1108 95.7174 48.7824L95.6532 48.8447ZM64.2464 104.944V87.9692L98.4568 51.6043C101.417 48.7317 103.702 45.8591 105.312 42.9865C106.922 40.1138 107.728 37.1977 107.728 34.238C107.728 32.9758 107.466 31.7353 106.944 30.5166C106.422 29.2544 105.66 28.1445 104.659 27.187C103.702 26.1859 102.505 25.4025 101.068 24.8367C99.8495 24.3034 98.4807 24.0035 96.9618 23.9369C98.4804 24.0036 99.8491 24.3035 101.068 24.8367C102.504 25.4025 103.701 26.1859 104.659 27.187C105.66 28.1445 106.421 29.2544 106.944 30.5166C107.466 31.7353 107.727 32.9758 107.727 34.238C107.727 37.1977 106.922 40.1138 105.311 42.9865C103.701 45.8591 101.416 48.7317 98.4563 51.6044L64.2459 87.9692V104.944L64.2464 104.944ZM93.2537 4.53648C89.9323 4.80579 86.7699 5.47906 83.7667 6.55629C79.7625 7.99261 76.2587 10.1036 73.2555 12.8891C70.2958 15.6312 67.9673 19.0261 66.2698 23.0739C65.0185 26.0257 64.2284 29.2849 63.8995 32.8516C63.7822 34.1234 63.7236 35.4342 63.7236 36.7842L83.375 36.7842L63.7241 36.7842C63.7241 31.6483 64.5729 27.0782 66.2703 23.0739C67.9678 19.0261 70.2963 15.6312 73.256 12.8891C76.2592 10.1035 79.763 7.9926 83.7672 6.55629C86.7703 5.47911 89.9324 4.80581 93.2537 4.53648Z" fill="#6191C2"/>
</svg>
