<svg width="77" height="111" viewBox="0 0 77 111" fill="none" xmlns="http://www.w3.org/2000/svg">
<path fill-rule="evenodd" clip-rule="evenodd" d="M46.4917 32.0979L46.5133 32.1479L46.5364 32.1973C46.9281 33.0367 47.0815 33.7776 47.0815 34.4515C47.0815 35.477 46.8937 36.3142 46.5768 37.0212L46.5534 37.0734L46.5315 37.1262C46.2445 37.82 45.8221 38.4125 45.2254 38.9346C44.6218 39.4628 43.8042 39.9458 42.6876 40.3287L42.6709 40.3344L42.6542 40.3403C41.6758 40.6856 40.4348 40.8995 38.8707 40.8995H25.6673V66.5881H38.7401C40.4468 66.5881 41.8818 66.8366 43.0914 67.2708C44.3535 67.7239 45.3163 68.3153 46.0572 69.0013L46.0865 69.0284L46.1163 69.0549C46.8152 69.6761 47.3617 70.4462 47.7545 71.4282L47.78 71.492L47.8078 71.555C48.2235 72.4974 48.4525 73.5622 48.4525 74.7989C48.4525 75.8417 48.2253 76.7675 47.7792 77.6333L47.7574 77.6757L47.7366 77.7186C47.275 78.6706 46.6432 79.5132 45.813 80.2609C44.9713 80.9762 43.9399 81.5969 42.6764 82.0986C41.5543 82.5195 40.2974 82.7485 38.8707 82.7485C35.3803 82.7485 33.1351 81.8736 31.6571 80.5713C30.3345 79.3303 29.2478 77.102 29.0213 73.1382L28.8094 69.43H0.592773L0.662976 73.4315C0.708947 76.0518 0.893081 78.595 1.21853 81.0591L1.22329 81.0951L1.22872 81.1311C1.66899 84.0479 2.95072 87.3802 4.81658 91.0209L4.83007 91.0473L4.84396 91.0734C6.90022 94.9411 9.59841 98.3247 12.9207 101.207L12.9332 101.218L12.9459 101.229C16.2853 104.077 20.1364 106.285 24.4594 107.87L24.4726 107.875C28.8981 109.48 33.621 110.265 38.6095 110.265C43.9116 110.265 48.9229 109.331 53.6041 107.43C58.1983 105.563 62.2334 103.023 65.6606 99.7913C69.1179 96.5288 71.8344 92.738 73.7885 88.439C75.7651 84.0905 76.7525 79.4871 76.7525 74.6683C76.7525 71.9124 76.4091 69.244 75.7077 66.6764C75.067 64.1742 74.1489 61.83 72.9415 59.66C71.7934 57.5196 70.4265 55.5896 68.831 53.8912C68.5017 53.5406 68.1649 53.2022 67.8207 52.8763C69.5551 51.0195 71.0203 48.9034 72.2154 46.5433L72.2242 46.5255C74.2608 42.4523 75.2509 37.9908 75.2509 33.211C75.2509 28.7471 74.2694 24.4711 72.3241 20.4243C70.445 16.4249 67.8267 12.9022 64.5013 9.87018C61.1647 6.82798 57.2684 4.45138 52.856 2.72259C48.3587 0.916568 43.5538 0.0298462 38.4789 0.0298462C33.1413 0.0298462 28.1871 0.960923 23.6765 2.89401C19.2669 4.78385 15.4314 7.37882 12.2183 10.6907L12.2077 10.7017L12.1972 10.7127C9.06286 13.9939 6.62057 17.7862 4.87239 22.0595C3.11346 26.3591 2.21272 30.8775 2.16418 35.5861L2.12348 39.5338L30.3334 39.7152V35.7572C30.3334 34.4543 30.4085 33.4522 30.5281 32.711C30.5872 32.3447 30.6524 32.0719 30.712 31.8772C30.7413 31.7814 30.7672 31.7113 30.787 31.6633C30.806 31.6172 30.8174 31.5962 30.8178 31.5953L30.8324 31.5691L30.8466 31.5426C31.2513 30.7873 31.7903 30.1173 32.4925 29.5218C33.2625 28.9053 34.152 28.4043 35.1875 28.0278L35.2178 28.0168L35.248 28.0052C36.272 27.6137 37.3405 27.4158 38.4789 27.4158C39.8866 27.4158 41.0478 27.6596 42.0222 28.0772L42.0405 28.085L42.0588 28.0926C43.2324 28.5817 44.1346 29.1777 44.8304 29.8457L44.8582 29.8723L44.8864 29.8984C45.649 30.6023 46.1611 31.3351 46.4917 32.0979ZM38.7401 62.6555C38.7397 62.6555 38.7394 62.6555 38.739 62.6555L29.5999 62.6555H38.7401ZM38.4789 23.4833C36.8685 23.4833 35.3234 23.7662 33.8435 24.332C32.4072 24.8543 31.1233 25.5724 29.9916 26.4865C28.9035 27.4005 28.033 28.4668 27.3801 29.6855C26.7636 30.7953 26.4382 32.6619 26.4039 35.2854C26.4018 35.4401 26.4008 35.5973 26.4008 35.7572L26.3998 35.7572C26.3998 32.8846 26.7262 30.8607 27.3791 29.6855C28.032 28.4668 28.9025 27.4005 29.9906 26.4865C31.1222 25.5724 32.4062 24.8543 33.8425 24.332C35.3223 23.7662 36.8675 23.4832 38.4779 23.4832C38.4782 23.4832 38.4786 23.4833 38.4789 23.4833ZM25.0951 73.3626C25.3562 77.9326 26.662 81.3058 29.0123 83.482C31.2566 85.4815 34.285 86.5437 38.0977 86.6686C34.2845 86.5438 31.2557 85.4816 29.0113 83.482C26.6609 81.3058 25.3552 77.9326 25.094 73.3625L25.0951 73.3626ZM37.7562 106.324C38.0394 106.33 38.3239 106.333 38.6095 106.333C39.2134 106.333 39.8122 106.319 40.4059 106.293C44.5618 106.107 48.4678 105.272 52.1239 103.786C56.3023 102.089 59.9148 99.8038 62.9616 96.9312C66.0518 94.015 68.4674 90.6419 70.2084 86.8117C71.9494 82.9815 72.8199 78.9337 72.8199 74.6683C72.8199 72.2309 72.5152 69.9023 71.9059 67.6826C71.3401 65.4628 70.5349 63.4172 69.4903 61.5456C68.4892 59.674 67.314 58.0201 65.9648 56.5838C65.6224 56.2193 65.273 55.8731 64.9167 55.5451C63.8686 54.5804 62.7598 53.7732 61.5905 53.1236C62.7259 52.3173 63.771 51.4177 64.726 50.4249C66.2971 48.7914 67.624 46.9054 68.7068 44.7668C70.4478 41.2849 71.3183 37.4329 71.3183 33.211C71.3183 29.3373 70.4696 25.6377 68.7721 22.1122C67.1182 18.5867 64.8114 15.4747 61.8517 12.7762C58.892 10.0776 55.41 7.94494 51.4058 6.37805C47.7847 4.92175 43.9145 4.12392 39.7951 3.98455" fill="#6A5B5A"/>
</svg>
