<svg width="77" height="109" viewBox="0 0 77 109" fill="none" xmlns="http://www.w3.org/2000/svg">
<path fill-rule="evenodd" clip-rule="evenodd" d="M45.6086 36.1421L66.0233 0.399841L34.0789 0.399841L8.48126 46.6804L8.47727 46.6876C7.4178 48.5859 6.40145 50.464 5.42837 52.3217C4.40429 54.2768 3.49563 56.2796 2.70294 58.3297C1.88707 60.3957 1.24051 62.5291 0.762128 64.7274C0.26097 66.9859 0.0175781 69.338 0.0175781 71.7739C0.0175781 76.8714 1.01631 81.6908 3.04146 86.1856L3.04881 86.2019L3.0563 86.2182C5.08908 90.6225 7.84 94.4756 11.3053 97.7457L11.3161 97.7558L11.3269 97.7659C14.7763 100.972 18.7684 103.506 23.2697 105.373L23.2929 105.383L23.3162 105.392C27.9323 107.238 32.8038 108.154 37.8994 108.154C43.0722 108.154 47.9884 107.242 52.6132 105.392L52.6328 105.384C57.2418 103.512 61.3165 100.924 64.8211 97.614C68.342 94.2888 71.0996 90.3546 73.0894 85.8467C75.1579 81.2605 76.173 76.3135 76.173 71.0558C76.173 66.7062 75.39 62.5535 73.8043 58.6313C72.295 54.7914 70.1932 51.3386 67.5005 48.2973C64.8557 45.2176 61.7272 42.6562 58.1385 40.6168C54.538 38.5272 50.668 37.0923 46.5482 36.3144C46.2362 36.2522 45.923 36.1948 45.6086 36.1421ZM8.91198 54.1464C9.86952 52.3184 10.8706 50.4686 11.9152 48.597L36.3978 4.33243L59.2483 4.33243L36.3982 4.33244L11.9155 48.5971C10.8709 50.4686 9.86988 52.3184 8.91234 54.1465C7.95479 55.9745 7.10606 57.8461 6.36614 59.7611C5.62622 61.6327 5.03864 63.5695 4.60339 65.5717C4.16814 67.5303 3.95052 69.5977 3.95052 71.774C3.95052 76.344 4.84278 80.6095 6.62729 84.5702C8.45533 88.531 10.9145 91.9694 14.0047 94.8856C17.095 97.7582 20.6858 100.043 24.7771 101.741C26.8122 102.555 28.9053 103.169 31.0564 103.582C28.9052 103.169 26.8119 102.555 24.7767 101.741C20.6854 100.043 17.0946 97.7582 14.0044 94.8856C10.9141 91.9694 8.45497 88.531 6.62693 84.5702C4.84242 80.6095 3.95016 76.344 3.95016 71.7739C3.95016 69.5977 4.16779 67.5303 4.60303 65.5717C5.03828 63.5695 5.62586 61.6327 6.36578 59.7611C7.1057 57.846 7.95443 55.9745 8.91198 54.1464ZM39.9478 39.6078C39.6596 39.616 39.3686 39.6309 39.075 39.6527L39.0749 39.6527C39.3686 39.631 39.6596 39.616 39.9478 39.6078ZM32.0022 63.2181L32.0185 63.2108L32.0349 63.2033C33.6422 62.4639 35.4887 62.0615 37.6383 62.0615C39.3112 62.0615 40.8192 62.3217 42.1914 62.8117C43.6057 63.3168 44.7989 64.0034 45.8093 64.8559C46.7702 65.6667 47.512 66.6297 48.0557 67.7775L48.0736 67.8153L48.0923 67.8527C48.6183 68.9046 48.9176 70.1424 48.9176 71.6434C48.9176 73.1958 48.5903 74.4587 48.0166 75.5242L48.0078 75.5406L47.9991 75.557C47.3656 76.7607 46.5676 77.7322 45.6043 78.5149C44.5899 79.3391 43.4151 79.9899 42.0475 80.4569C40.6381 80.9381 39.3042 81.1599 38.03 81.1599C35.8932 81.1599 34.2498 80.818 32.9935 80.2696C31.5404 79.5892 30.4471 78.7945 29.6316 77.9272C28.7356 76.9299 28.101 75.9038 27.6816 74.8471C27.2609 73.6303 27.0771 72.5247 27.0771 71.5128C27.0771 70.3135 27.2114 69.297 27.4422 68.4376C27.7269 67.5307 28.0595 66.6975 28.4356 65.9329C29.3886 64.7633 30.5617 63.8649 32.0022 63.2181ZM39.1807 58.1902C40.6986 58.3126 42.1431 58.6186 43.5141 59.1083C45.3421 59.7611 46.9526 60.6751 48.3453 61.8503C49.7381 63.0255 50.8263 64.44 51.6097 66.094C52.4367 67.7479 52.8502 69.5977 52.8502 71.6434C52.8502 73.7761 52.3931 75.6912 51.4791 77.3886C50.6086 79.0426 49.477 80.4354 48.0842 81.567C46.6914 82.6986 45.1028 83.5691 43.3182 84.1785C42.132 84.5835 40.9553 84.854 39.7883 84.9898C40.9554 84.854 42.1322 84.5836 43.3186 84.1785C45.1031 83.5691 46.6918 82.6987 48.0846 81.567C49.4773 80.4354 50.609 79.0426 51.4795 77.3886C52.3935 75.6912 52.8505 73.7761 52.8505 71.6434C52.8505 69.5977 52.437 67.7479 51.6101 66.094C50.8266 64.44 49.7385 63.0255 48.3457 61.8503C46.9529 60.6752 45.3425 59.7611 43.5145 59.1083C42.1433 58.6186 40.6987 58.3125 39.1807 58.1902ZM38.6839 85.0782C38.4656 85.0877 38.2476 85.0925 38.03 85.0925C38.0301 85.0925 38.0302 85.0925 38.0304 85.0925C38.2479 85.0925 38.4657 85.0877 38.6839 85.0782Z" fill="#6A5B5A"/>
</svg>
