<svg width="77" height="109" viewBox="0 0 77 109" fill="none" xmlns="http://www.w3.org/2000/svg">
<path fill-rule="evenodd" clip-rule="evenodd" d="M31.2085 72.5362L10.883 108.288H42.8119L68.4095 62.0072L68.4135 62.0001C69.473 60.1017 70.4893 58.2236 71.4624 56.3659C72.4766 54.4297 73.3788 52.4656 74.1677 50.474C75.0329 48.4013 75.7084 46.2757 76.192 44.0996L76.1959 44.0819C76.6943 41.7889 76.9385 39.4188 76.9385 36.979C76.9385 31.8738 75.9148 27.0485 73.842 22.5511C71.8482 18.1313 69.0892 14.27 65.5755 10.9978C62.115 7.73472 58.0859 5.1938 53.5257 3.3675C48.9065 1.47373 44.029 0.533447 38.9261 0.533447C33.7459 0.533447 28.8073 1.47012 24.1439 3.36212C19.5233 5.19336 15.4564 7.76734 11.9845 11.0925C8.51691 14.4136 5.77027 18.3365 3.74308 22.8253L3.73583 22.8413L3.72871 22.8575C1.7082 27.4406 0.717773 32.3815 0.717773 37.6319C0.717773 41.9729 1.47592 46.1184 3.01343 50.0366L3.02128 50.0566L3.02934 50.0765C4.58311 53.9124 6.70473 57.3793 9.39175 60.4571L9.40201 60.4689L9.41236 60.4806C12.0931 63.5025 15.2295 66.0512 18.8005 68.1262L18.8177 68.1362L18.8351 68.1461C22.4237 70.1829 26.2768 71.5897 30.3754 72.3671C30.6509 72.4265 30.9286 72.4829 31.2085 72.5362ZM17.643 104.355L37.6861 69.1002C37.686 69.1002 37.6858 69.1002 37.6856 69.1002L17.6425 104.355H17.643ZM34.3914 69.0467C34.358 69.0429 34.3246 69.0389 34.2912 69.0349C33.2031 68.9043 32.1585 68.7302 31.1574 68.5126C27.4578 67.8162 23.9976 66.554 20.7768 64.726C17.556 62.8544 14.7486 60.5694 12.3548 57.8708C9.96089 55.1288 8.06757 52.0385 6.67478 48.6001C5.32551 45.1616 4.65088 41.5056 4.65088 37.6319C4.65088 32.8877 5.54314 28.4917 7.32765 24.4439C9.15569 20.3961 11.6148 16.8923 14.7051 13.9327C17.7953 10.973 21.4296 8.66617 25.608 7.01223C29.2639 5.52701 33.1198 4.69152 37.1755 4.50582C33.1196 4.69148 29.2636 5.52695 25.6075 7.01223C21.4291 8.66617 17.7948 10.973 14.7046 13.9327C11.6143 16.8923 9.15516 20.3961 7.32713 24.4439C5.54261 28.4917 4.65036 32.8877 4.65036 37.6319C4.65036 41.5055 5.32499 45.1616 6.67426 48.6001C8.06705 52.0385 9.96037 55.1288 12.3542 57.8708C14.7481 60.5694 17.5554 62.8544 20.7763 64.726C23.9971 66.554 27.4573 67.8162 31.1569 68.5126C31.843 68.6618 32.5495 68.7905 33.2765 68.8987C33.6102 68.9484 33.9483 68.9938 34.2907 69.0349C34.3242 69.0389 34.3578 69.0429 34.3914 69.0467ZM49.2201 40.407L49.2077 40.4456L49.196 40.4843C48.912 41.4311 48.5638 42.3025 48.1563 43.1047C47.2136 44.2351 46.073 45.0926 44.6934 45.7015C43.1435 46.342 41.3687 46.6914 39.3178 46.6914C37.6456 46.6914 36.105 46.4314 34.6719 45.9315C33.2254 45.4269 32.0302 44.7473 31.0399 43.9169C30.1115 43.1032 29.3498 42.1219 28.7525 40.9387C28.257 39.8778 27.9732 38.6245 27.9732 37.1096C27.9732 35.5242 28.2927 34.2751 28.8264 33.2612L28.8361 33.2427L28.8456 33.2241C29.4832 31.9809 30.278 31.0043 31.2211 30.2381L31.2315 30.2296C32.3111 29.3463 33.4925 28.6826 34.7922 28.2259C36.1759 27.7551 37.5486 27.5277 38.9261 27.5277C41.0062 27.5277 42.5779 27.8867 43.764 28.4515L43.8144 28.4754L43.8653 28.498C45.2851 29.1253 46.3138 29.8921 47.0594 30.7481L47.0827 30.7748L47.1065 30.8012C47.9985 31.7888 48.6096 32.8217 48.9914 33.9083L49.0069 33.9526L49.0235 33.9965C49.4917 35.2337 49.6831 36.3066 49.6831 37.2401C49.6831 38.4399 49.517 39.4866 49.2201 40.407ZM46.2382 49.3182C48.3274 48.4042 50.0684 47.0549 51.4612 45.2704C52.0705 44.1388 52.571 42.9201 52.9628 41.6144C53.398 40.2651 53.6156 38.807 53.6156 37.2401C53.6156 35.7603 53.311 34.2152 52.7016 32.6047C52.1358 30.9943 51.2435 29.5145 50.0249 28.1652C48.8497 26.816 47.3263 25.7278 45.4548 24.9009C43.8552 24.1392 41.9891 23.7107 39.8564 23.6155C41.9893 23.7107 43.8556 24.1391 45.4553 24.9009C47.3268 25.7278 48.8502 26.816 50.0254 28.1652C51.2441 29.5145 52.1363 30.9943 52.7021 32.6048C53.3115 34.2152 53.6162 35.7603 53.6162 37.2401C53.6162 38.807 53.3985 40.2651 52.9633 41.6144C52.5716 42.9201 52.071 44.1388 51.4617 45.2704C50.0689 47.0549 48.3279 48.4042 46.2387 49.3182C44.436 50.0694 42.4713 50.4964 40.3446 50.5994C42.4711 50.4963 44.4357 50.0693 46.2382 49.3182ZM39.7886 50.6189C39.6325 50.6223 39.4756 50.624 39.3178 50.624C39.318 50.624 39.3181 50.624 39.3183 50.624C39.4759 50.624 39.6327 50.6223 39.7886 50.6189Z" fill="#6191C2"/>
</svg>
