<svg width="72" height="59" viewBox="0 0 72 59" fill="none" xmlns="http://www.w3.org/2000/svg">
<g clip-path="url(#clip0_293_6665)">
<path d="M36 3.8455V2.87226C36 1.28183 34.704 0 33.108 0H2.892C1.296 0 0 1.28183 0 2.86039V54.5254H72V6.69403C72 5.11547 70.704 3.83364 69.108 3.83364H36V3.8455Z" fill="#585858"/>
<path d="M69.4684 7.96399H3.19238V55.0477H69.4684V7.96399Z" fill="white"/>
<path d="M33.9 17.0325H34.075L34.1349 16.8681L35.2023 13.9382C35.2024 13.9378 35.2026 13.9374 35.2027 13.9371C35.5863 12.9086 36.5835 12.2148 37.7016 12.2257V12.2257H37.704H69.096C70.5565 12.2257 71.738 13.3982 71.738 14.8361V56.1396C71.738 57.5775 70.5565 58.75 69.096 58.75H2.892C1.43147 58.75 0.25 57.5775 0.25 56.1396V19.6548C0.25 18.2044 1.43215 17.0325 2.892 17.0325H33.9Z" fill="url(#paint0_linear_293_6665)" stroke="url(#paint1_linear_293_6665)" stroke-width="0.5"/>
<path d="M57.7109 53.3798C57.7109 53.4913 57.7553 53.5985 57.8342 53.6773C57.9132 53.7563 58.0202 53.8006 58.1318 53.8006H65.4175C65.6498 53.8006 65.8383 53.6123 65.8383 53.3798C65.8383 53.1473 65.6498 52.959 65.4175 52.959H58.1318C58.0202 52.959 57.9132 53.0033 57.8342 53.0823C57.7553 53.1611 57.7109 53.2682 57.7109 53.3798V53.3798Z" fill="white"/>
<path d="M59.9565 55.9179H57.3806C56.4741 55.9179 55.6362 55.4342 55.1829 54.649C54.7295 53.8637 54.7295 52.8963 55.1829 52.111C55.6362 51.3258 56.4741 50.8421 57.3806 50.8421H59.9565C60.1889 50.8421 60.3774 50.6536 60.3774 50.4213C60.3774 50.1887 60.1889 50.0003 59.9565 50.0003H57.3806C56.1728 50.0003 55.0568 50.6447 54.4529 51.6907C53.849 52.7367 53.849 54.0254 54.4529 55.0714C55.0568 56.1173 56.1729 56.7617 57.3806 56.7617H59.9565C60.1889 56.7617 60.3774 56.5732 60.3774 56.3409C60.3774 56.1084 60.1889 55.92 59.9565 55.92V55.9179Z" fill="white"/>
<path d="M65.6676 50H63.0917C62.8594 50 62.6709 50.1885 62.6709 50.421C62.6709 50.6534 62.8594 50.8418 63.0917 50.8418H65.6676C66.5747 50.8418 67.4128 51.3257 67.8664 52.1113C68.3198 52.8967 68.3198 53.8647 67.8664 54.6501C67.4128 55.4357 66.5747 55.9197 65.6676 55.9197H63.0917C62.8594 55.9197 62.6709 56.108 62.6709 56.3406C62.6709 56.5729 62.8594 56.7614 63.0917 56.7614H65.6676C66.875 56.7614 67.9907 56.1173 68.5945 55.0715C69.1981 54.026 69.1981 52.7376 68.5945 51.692C67.9908 50.6462 66.875 50.0021 65.6676 50.0021V50Z" fill="white"/>
<path d="M36.6067 43.4305C36.6279 44.3488 36.4243 45.2583 36.0135 46.0799C35.6027 46.9014 34.9973 47.6101 34.2499 48.144C33.481 48.7005 32.6191 49.1155 31.7046 49.3696C30.6928 49.657 29.6454 49.7998 28.5936 49.7938H16.5977V25.0005H29.8899C30.7104 24.9888 31.5208 25.1833 32.2467 25.5661C32.921 25.9399 33.5203 26.4353 34.0142 27.0273C34.5128 27.6276 34.8963 28.3147 35.1455 29.0542C35.4256 29.8077 35.5615 30.6072 35.5461 31.4109C35.5567 32.6094 35.2476 33.789 34.6505 34.8283C34.046 35.8852 33.1101 36.7135 31.9874 37.185C33.3815 37.5318 34.6125 38.3504 35.4717 39.5017C36.3309 40.6529 36.7652 42.0661 36.701 43.5012L36.6067 43.4305ZM21.429 29.1484V35.3939H27.863C28.2463 35.4016 28.6272 35.3325 28.9833 35.1909C29.3395 35.0492 29.6637 34.8378 29.937 34.569C30.2407 34.2601 30.4754 33.8904 30.6258 33.4841C30.7761 33.0779 30.8385 32.6444 30.809 32.2122C30.8421 31.7856 30.7881 31.3567 30.6504 30.9516C30.5126 30.5464 30.294 30.1735 30.0077 29.8555C29.7658 29.5846 29.4673 29.3703 29.1333 29.2277C28.7993 29.0852 28.4381 29.0179 28.0751 29.0306L21.429 29.1484ZM31.7517 42.5349C31.7579 42.0993 31.6778 41.6668 31.516 41.2623C31.3835 40.8648 31.1755 40.4967 30.9033 40.1781C30.6494 39.8908 30.3461 39.6513 30.0077 39.4711C29.646 39.3021 29.2521 39.2137 28.8529 39.2119H21.429V45.7401H28.4994C28.9275 45.7484 29.3527 45.6681 29.7484 45.5044C30.1183 45.3406 30.4541 45.1088 30.7383 44.821C31.3288 44.1781 31.6568 43.3371 31.6575 42.4642L31.7517 42.5349Z" fill="white"/>
<path d="M46.9995 49.8411C45.6747 49.8652 44.3591 49.6165 43.1344 49.1105C42.059 48.6531 41.0871 47.9831 40.2771 47.1407C39.4672 46.2983 38.8358 45.3009 38.4209 44.2084C37.9764 43.0997 37.7522 41.9149 37.761 40.7204C37.7534 39.5052 37.9691 38.2989 38.3973 37.1616C38.8029 36.0554 39.4301 35.0437 40.2407 34.1886C41.0512 33.3335 42.0279 32.653 43.1109 32.1888C44.3504 31.6749 45.6814 31.4183 47.0231 31.4347C48.3572 31.4182 49.6806 31.6749 50.9118 32.1888C52.6503 32.9788 54.0995 34.2906 55.0583 35.942C56.017 37.5934 56.4376 39.5024 56.2617 41.4038C56.2796 41.6313 56.2796 41.8598 56.2617 42.0873H42.5217C42.5766 42.7321 42.7441 43.3622 43.0166 43.9492C43.2826 44.4733 43.642 44.9445 44.0771 45.3397C44.5026 45.723 44.999 46.0192 45.5384 46.2117C46.0803 46.4173 46.6556 46.5211 47.2352 46.518C48.1266 46.5226 49.0037 46.2952 49.7805 45.8582C50.5207 45.492 51.1058 44.8735 51.4303 44.1141L55.319 45.1983C54.6354 46.6043 53.5428 47.7709 52.1845 48.5449C50.6139 49.4594 48.8158 49.909 46.9995 49.8411V49.8411ZM51.5953 39.1413C51.5407 37.9242 51.0171 36.7755 50.1341 35.9361C49.2702 35.137 48.1289 34.7058 46.9524 34.7342C46.3784 34.7211 45.8076 34.8227 45.2734 35.0332C44.7392 35.2436 44.2523 35.5586 43.8415 35.9597C43.4235 36.3501 43.0801 36.8133 42.828 37.3266C42.5665 37.8982 42.4146 38.5137 42.3803 39.1413H51.5953Z" fill="white"/>
<path d="M41.0859 26.1553H52.8698V29.1248H41.0859V26.1553Z" fill="white"/>
</g>
<defs>
<linearGradient id="paint0_linear_293_6665" x1="61.4508" y1="18.8587" x2="30.9959" y2="65.481" gradientUnits="userSpaceOnUse">
<stop stop-color="#006EF5"/>
<stop offset="0.78" stop-color="#2131AE"/>
<stop offset="1" stop-color="#2B1E99"/>
</linearGradient>
<linearGradient id="paint1_linear_293_6665" x1="36" y1="112.869" x2="36" y2="-5.98559" gradientUnits="userSpaceOnUse">
<stop stop-color="#E2E2E2"/>
<stop offset="1" stop-opacity="0"/>
</linearGradient>
<clipPath id="clip0_293_6665">
<rect width="72" height="59" fill="white"/>
</clipPath>
</defs>
</svg>
