<svg width="72" height="59" viewBox="0 0 72 59" fill="none" xmlns="http://www.w3.org/2000/svg">
<g clip-path="url(#clip0_293_6678)">
<path d="M36 3.8455V2.87226C36 1.28183 34.704 0 33.108 0H2.892C1.296 0 0 1.28183 0 2.86039V54.5254H72V6.69403C72 5.11547 70.704 3.83364 69.108 3.83364H36V3.8455Z" fill="#585858"/>
<path d="M69.4684 7.96399H3.19238V55.0477H69.4684V7.96399Z" fill="white"/>
<path d="M33.9 17.0325H34.075L34.1349 16.8681L35.2023 13.9382C35.2024 13.9378 35.2026 13.9374 35.2027 13.9371C35.5863 12.9086 36.5835 12.2148 37.7016 12.2257V12.2257H37.704H69.096C70.5565 12.2257 71.738 13.3982 71.738 14.8361V56.1396C71.738 57.5775 70.5565 58.75 69.096 58.75H2.892C1.43147 58.75 0.25 57.5775 0.25 56.1396V19.6548C0.25 18.2044 1.43215 17.0325 2.892 17.0325H33.9Z" fill="url(#paint0_linear_293_6678)" stroke="url(#paint1_linear_293_6678)" stroke-width="0.5"/>
<path d="M57.7109 53.3798C57.7109 53.4913 57.7553 53.5985 57.8342 53.6773C57.9132 53.7563 58.0202 53.8006 58.1318 53.8006H65.4175C65.6498 53.8006 65.8383 53.6123 65.8383 53.3798C65.8383 53.1473 65.6498 52.959 65.4175 52.959H58.1318C58.0202 52.959 57.9132 53.0033 57.8342 53.0823C57.7553 53.1611 57.7109 53.2682 57.7109 53.3798V53.3798Z" fill="white"/>
<path d="M59.9565 55.9179H57.3806C56.4741 55.9179 55.6362 55.4342 55.1829 54.649C54.7295 53.8637 54.7295 52.8963 55.1829 52.111C55.6362 51.3258 56.4741 50.8421 57.3806 50.8421H59.9565C60.1889 50.8421 60.3774 50.6536 60.3774 50.4213C60.3774 50.1887 60.1889 50.0003 59.9565 50.0003H57.3806C56.1728 50.0003 55.0568 50.6447 54.4529 51.6907C53.849 52.7367 53.849 54.0254 54.4529 55.0714C55.0568 56.1173 56.1729 56.7617 57.3806 56.7617H59.9565C60.1889 56.7617 60.3774 56.5732 60.3774 56.3409C60.3774 56.1084 60.1889 55.92 59.9565 55.92V55.9179Z" fill="white"/>
<path d="M65.6676 50H63.0917C62.8594 50 62.6709 50.1885 62.6709 50.421C62.6709 50.6534 62.8594 50.8418 63.0917 50.8418H65.6676C66.5747 50.8418 67.4128 51.3257 67.8664 52.1113C68.3198 52.8967 68.3198 53.8647 67.8664 54.6501C67.4128 55.4357 66.5747 55.9197 65.6676 55.9197H63.0917C62.8594 55.9197 62.6709 56.108 62.6709 56.3406C62.6709 56.5729 62.8594 56.7614 63.0917 56.7614H65.6676C66.875 56.7614 67.9907 56.1173 68.5945 55.0715C69.1981 54.026 69.1981 52.7376 68.5945 51.692C67.9908 50.6462 66.875 50.0021 65.6676 50.0021V50Z" fill="white"/>
<path d="M35.5 25C33.0271 25 30.6097 25.7335 28.5538 27.1077C26.4978 28.4819 24.8957 30.435 23.9501 32.72C23.0044 35.0049 22.7578 37.5191 23.2413 39.9442C23.7249 42.3694 24.9169 44.5966 26.6666 46.3442C28.4162 48.0917 30.6449 49.2811 33.0707 49.7617C35.4965 50.2423 38.0103 49.9925 40.2941 49.0441C42.5779 48.0957 44.5291 46.4912 45.9008 44.4335C47.2724 42.3759 48.003 39.9577 48 37.4848C47.9919 34.1735 46.6719 31.0003 44.329 28.6602C41.9861 26.3202 38.8113 25.004 35.5 25V25ZM43.7269 30.9002C45.2065 32.7202 46.0265 34.9874 46.0535 37.3327C44.4456 37.0173 42.8107 36.8595 41.1721 36.8613C40.3691 36.8547 39.5665 36.9004 38.7695 36.9982L38.5566 36.4963C38.3437 35.9945 38.1156 35.4927 37.8723 34.9757C40.1367 34.1187 42.1498 32.707 43.7269 30.8698V30.9002ZM35.5 26.9465C38.0606 26.9523 40.5333 27.8809 42.4647 29.562C41.0256 31.2895 39.1359 32.5844 37.0055 33.3029C35.8326 31.1982 34.5325 29.1668 33.1125 27.2202C33.8963 27.0441 34.6967 26.9523 35.5 26.9465V26.9465ZM30.9379 27.9805C32.3351 29.9395 33.6294 31.9698 34.8157 34.0633C31.6895 34.866 28.478 35.2897 25.2506 35.3254H25.1442C25.4936 33.7532 26.1952 32.2808 27.1961 31.0191C28.1971 29.7574 29.4713 28.7392 30.9227 28.0414L30.9379 27.9805ZM24.8552 37.5V37.2415H25.1442C28.7144 37.2119 32.2643 36.7004 35.6977 35.7208C35.9815 36.2682 36.2553 36.8309 36.5189 37.4088L36.1539 37.5152C32.5801 38.7961 29.5424 41.2445 27.5316 44.4647C25.8111 42.5417 24.8632 40.0499 24.8704 37.4696L24.8552 37.5ZM35.5 48.0535C33.1677 48.0572 30.9 47.2871 29.0523 45.8637C30.8956 42.7297 33.839 40.3935 37.3096 39.3096C38.3054 41.8733 39.0539 44.5262 39.545 47.2323C38.2559 47.7783 36.8696 48.0577 35.4696 48.0535H35.5ZM41.4763 46.1983C41.0163 43.6761 40.3397 41.1984 39.4538 38.7926C40.1577 38.6793 40.8697 38.6234 41.5827 38.6253C43.0487 38.6242 44.5076 38.829 45.9167 39.2336C45.6845 40.6339 45.1715 41.9729 44.4084 43.1698C43.6453 44.3667 42.6479 45.3969 41.4763 46.1983V46.1983Z" fill="white"/>
</g>
<defs>
<linearGradient id="paint0_linear_293_6678" x1="61.4508" y1="18.8587" x2="30.9959" y2="65.481" gradientUnits="userSpaceOnUse">
<stop stop-color="#F26798"/>
<stop offset="0.87" stop-color="#C82093"/>
<stop offset="1" stop-color="#C11592"/>
</linearGradient>
<linearGradient id="paint1_linear_293_6678" x1="36" y1="112.869" x2="36" y2="-5.98559" gradientUnits="userSpaceOnUse">
<stop stop-color="#E2E2E2"/>
<stop offset="1" stop-opacity="0"/>
</linearGradient>
<clipPath id="clip0_293_6678">
<rect width="72" height="59" fill="white"/>
</clipPath>
</defs>
</svg>
