<svg width="72" height="59" viewBox="0 0 72 59" fill="none" xmlns="http://www.w3.org/2000/svg">
<g clip-path="url(#clip0_312_6532)">
<path d="M36 3.8455V2.87226C36 1.28183 34.704 0 33.108 0H2.892C1.296 0 0 1.28183 0 2.86039V54.5254H72V6.69403C72 5.11547 70.704 3.83364 69.108 3.83364H36V3.8455Z" fill="#585858"/>
<path d="M69.4684 7.96399H3.19238V55.0477H69.4684V7.96399Z" fill="white"/>
<path d="M34.968 13.8509L33.9 16.7825H2.892C1.296 16.7825 0 18.0644 0 19.6548V56.1396C0 57.7182 1.296 59 2.892 59H69.096C70.692 59 71.988 57.7182 71.988 56.1396V14.8361C71.988 13.2575 70.692 11.9757 69.096 11.9757H37.704C36.48 11.9638 35.388 12.7234 34.968 13.8509Z" fill="black"/>
<path d="M57.7109 53.3798C57.7109 53.4913 57.7553 53.5985 57.8342 53.6773C57.9132 53.7563 58.0202 53.8006 58.1318 53.8006H65.4175C65.6498 53.8006 65.8383 53.6123 65.8383 53.3798C65.8383 53.1473 65.6498 52.959 65.4175 52.959H58.1318C58.0202 52.959 57.9132 53.0033 57.8342 53.0823C57.7553 53.1611 57.7109 53.2682 57.7109 53.3798V53.3798Z" fill="white"/>
<path d="M59.9565 55.9179H57.3806C56.4741 55.9179 55.6362 55.4342 55.1829 54.649C54.7295 53.8637 54.7295 52.8963 55.1829 52.111C55.6362 51.3258 56.4741 50.8421 57.3806 50.8421H59.9565C60.1889 50.8421 60.3774 50.6536 60.3774 50.4213C60.3774 50.1887 60.1889 50.0003 59.9565 50.0003H57.3806C56.1728 50.0003 55.0568 50.6447 54.4529 51.6907C53.849 52.7367 53.849 54.0254 54.4529 55.0714C55.0568 56.1173 56.1729 56.7617 57.3806 56.7617H59.9565C60.1889 56.7617 60.3774 56.5732 60.3774 56.3409C60.3774 56.1084 60.1889 55.92 59.9565 55.92V55.9179Z" fill="white"/>
<path d="M65.6676 50H63.0917C62.8594 50 62.6709 50.1885 62.6709 50.421C62.6709 50.6534 62.8594 50.8418 63.0917 50.8418H65.6676C66.5747 50.8418 67.4128 51.3257 67.8664 52.1113C68.3198 52.8967 68.3198 53.8647 67.8664 54.6501C67.4128 55.4357 66.5747 55.9197 65.6676 55.9197H63.0917C62.8594 55.9197 62.6709 56.108 62.6709 56.3406C62.6709 56.5729 62.8594 56.7614 63.0917 56.7614H65.6676C66.875 56.7614 67.9907 56.1173 68.5945 55.0715C69.1981 54.026 69.1981 52.7376 68.5945 51.692C67.9908 50.6462 66.875 50.0021 65.6676 50.0021V50Z" fill="white"/>
<path d="M36 23C29.374 23 24 28.373 24 35C24 40.302 27.438 44.8 32.207 46.387C32.806 46.498 33 46.126 33 45.81V43.576C29.662 44.302 28.967 42.16 28.967 42.16C28.421 40.773 27.634 40.404 27.634 40.404C26.545 39.659 27.717 39.675 27.717 39.675C28.922 39.759 29.556 40.912 29.556 40.912C30.626 42.746 32.363 42.216 33.048 41.909C33.155 41.134 33.466 40.604 33.81 40.305C31.145 40 28.343 38.971 28.343 34.374C28.343 33.063 28.812 31.993 29.579 31.153C29.455 30.85 29.044 29.629 29.696 27.977C29.696 27.977 30.704 27.655 32.997 29.207C33.954 28.941 34.98 28.808 36 28.803C37.02 28.808 38.047 28.941 39.006 29.207C41.297 27.655 42.303 27.977 42.303 27.977C42.956 29.63 42.545 30.851 42.421 31.153C43.191 31.993 43.656 33.064 43.656 34.374C43.656 38.983 40.849 39.998 38.177 40.295C38.607 40.667 39 41.397 39 42.517V45.81C39 46.129 39.192 46.504 39.801 46.386C44.566 44.797 48 40.3 48 35C48 28.373 42.627 23 36 23Z" fill="white"/>
</g>
<defs>
<clipPath id="clip0_312_6532">
<rect width="72" height="59" fill="white"/>
</clipPath>
</defs>
</svg>
