<svg width="72" height="59" viewBox="0 0 72 59" fill="none" xmlns="http://www.w3.org/2000/svg">
<g clip-path="url(#clip0_293_6602)">
<path d="M36 3.8455V2.87226C36 1.28183 34.704 0 33.108 0H2.892C1.296 0 0 1.28183 0 2.86039V54.5254H72V6.69403C72 5.11547 70.704 3.83364 69.108 3.83364H36V3.8455Z" fill="#585858"/>
<path d="M69.4684 7.96399H3.19238V55.0477H69.4684V7.96399Z" fill="white"/>
<path d="M33.9 17.0325H34.075L34.1349 16.8681L35.2023 13.9382C35.2024 13.9378 35.2026 13.9374 35.2027 13.9371C35.5863 12.9086 36.5835 12.2148 37.7016 12.2257V12.2257H37.704H69.096C70.5565 12.2257 71.738 13.3982 71.738 14.8361V56.1396C71.738 57.5775 70.5565 58.75 69.096 58.75H2.892C1.43147 58.75 0.25 57.5775 0.25 56.1396V19.6548C0.25 18.2044 1.43215 17.0325 2.892 17.0325H33.9Z" fill="url(#paint0_linear_293_6602)"/>
<path d="M33.9 17.0325H34.075L34.1349 16.8681L35.2023 13.9382C35.2024 13.9378 35.2026 13.9374 35.2027 13.9371C35.5863 12.9086 36.5835 12.2148 37.7016 12.2257V12.2257H37.704H69.096C70.5565 12.2257 71.738 13.3982 71.738 14.8361V56.1396C71.738 57.5775 70.5565 58.75 69.096 58.75H2.892C1.43147 58.75 0.25 57.5775 0.25 56.1396V19.6548C0.25 18.2044 1.43215 17.0325 2.892 17.0325H33.9Z" fill="black" fill-opacity="0.2"/>
<path d="M33.9 17.0325H34.075L34.1349 16.8681L35.2023 13.9382C35.2024 13.9378 35.2026 13.9374 35.2027 13.9371C35.5863 12.9086 36.5835 12.2148 37.7016 12.2257V12.2257H37.704H69.096C70.5565 12.2257 71.738 13.3982 71.738 14.8361V56.1396C71.738 57.5775 70.5565 58.75 69.096 58.75H2.892C1.43147 58.75 0.25 57.5775 0.25 56.1396V19.6548C0.25 18.2044 1.43215 17.0325 2.892 17.0325H33.9Z" stroke="url(#paint1_linear_293_6602)" stroke-width="0.5"/>
<path d="M57.7109 53.3798C57.7109 53.4913 57.7553 53.5985 57.8342 53.6773C57.9132 53.7563 58.0202 53.8006 58.1318 53.8006H65.4175C65.6498 53.8006 65.8383 53.6123 65.8383 53.3798C65.8383 53.1473 65.6498 52.959 65.4175 52.959H58.1318C58.0202 52.959 57.9132 53.0033 57.8342 53.0823C57.7553 53.1611 57.7109 53.2682 57.7109 53.3798V53.3798Z" fill="white"/>
<path d="M59.9565 55.9179H57.3806C56.4741 55.9179 55.6362 55.4342 55.1829 54.649C54.7295 53.8637 54.7295 52.8963 55.1829 52.111C55.6362 51.3258 56.4741 50.8421 57.3806 50.8421H59.9565C60.1889 50.8421 60.3774 50.6536 60.3774 50.4213C60.3774 50.1887 60.1889 50.0003 59.9565 50.0003H57.3806C56.1728 50.0003 55.0568 50.6447 54.4529 51.6907C53.849 52.7367 53.849 54.0254 54.4529 55.0714C55.0568 56.1173 56.1729 56.7617 57.3806 56.7617H59.9565C60.1889 56.7617 60.3774 56.5732 60.3774 56.3409C60.3774 56.1084 60.1889 55.92 59.9565 55.92V55.9179Z" fill="white"/>
<path d="M65.6676 50H63.0917C62.8594 50 62.6709 50.1885 62.6709 50.421C62.6709 50.6534 62.8594 50.8418 63.0917 50.8418H65.6676C66.5747 50.8418 67.4128 51.3257 67.8664 52.1113C68.3198 52.8967 68.3198 53.8647 67.8664 54.6501C67.4128 55.4357 66.5747 55.9197 65.6676 55.9197H63.0917C62.8594 55.9197 62.6709 56.108 62.6709 56.3406C62.6709 56.5729 62.8594 56.7614 63.0917 56.7614H65.6676C66.875 56.7614 67.9907 56.1173 68.5945 55.0715C69.1981 54.026 69.1981 52.7376 68.5945 51.692C67.9908 50.6462 66.875 50.0021 65.6676 50.0021V50Z" fill="white"/>
<path d="M42.1554 29.4708C41.8664 29.4708 41.584 29.5565 41.3437 29.717C41.1034 29.8776 40.9161 30.1058 40.8055 30.3727C40.695 30.6397 40.666 30.9335 40.7224 31.2169C40.7788 31.5003 40.9179 31.7607 41.1223 31.965C41.3266 32.1694 41.5869 32.3085 41.8704 32.3649C42.1538 32.4213 42.4476 32.3923 42.7145 32.2817C42.9815 32.1711 43.2097 31.9839 43.3703 31.7436C43.5308 31.5033 43.6165 31.2208 43.6165 30.9319C43.6165 30.5444 43.4626 30.1727 43.1886 29.8987C42.9145 29.6247 42.5429 29.4708 42.1554 29.4708Z" fill="white"/>
<path d="M35.6235 31.385C34.3987 31.3821 33.2006 31.7432 32.1814 32.4225C31.1622 33.1018 30.3678 34.0687 29.8991 35.2003C29.4304 36.3319 29.3085 37.5773 29.5489 38.7783C29.7893 39.9793 30.3811 41.0818 31.2493 41.9459C32.1174 42.8099 33.2228 43.3965 34.4249 43.6312C35.6271 43.8659 36.8718 43.7381 38.0012 43.264C39.1306 42.7899 40.0936 41.9909 40.7681 40.9685C41.4425 39.9461 41.798 38.7463 41.7893 37.5215C41.7777 35.8925 41.1235 34.3339 39.9689 33.1848C38.8142 32.0356 37.2526 31.3888 35.6235 31.385V31.385ZM35.6235 41.5103C34.8398 41.5131 34.0728 41.2834 33.4198 40.8501C32.7667 40.4167 32.2569 39.7994 31.955 39.0761C31.6531 38.3529 31.5726 37.5563 31.7237 36.7873C31.8748 36.0182 32.2508 35.3113 32.804 34.7561C33.3571 34.2009 34.0626 33.8223 34.8311 33.6684C35.5995 33.5144 36.3964 33.592 37.1208 33.8912C37.8451 34.1905 38.4644 34.698 38.9001 35.3494C39.3359 36.0009 39.5685 36.767 39.5685 37.5507C39.557 38.5921 39.1372 39.5873 38.3995 40.3223C37.6617 41.0574 36.6649 41.4734 35.6235 41.481V41.5103Z" fill="white"/>
<path d="M40.5184 50.0575H30.5246C28.5301 50.0537 26.6185 49.2597 25.2082 47.8494C23.7979 46.4391 23.0039 44.5274 23 42.533V32.5246C23.0039 30.5301 23.7979 28.6185 25.2082 27.2082C26.6185 25.7979 28.5301 25.0039 30.5246 25H40.5184C42.5128 25.0039 44.4245 25.7979 45.8348 27.2082C47.2451 28.6185 48.0391 30.5301 48.0429 32.5246V42.533C48.0391 44.5274 47.2451 46.4391 45.8348 47.8494C44.4245 49.2597 42.5128 50.0537 40.5184 50.0575V50.0575ZM30.5246 27.3523C29.154 27.3562 27.8407 27.9024 26.8715 28.8715C25.9024 29.8407 25.3562 31.154 25.3523 32.5246V42.533C25.3562 43.9022 25.9028 45.214 26.8724 46.1808C27.842 47.1477 29.1553 47.6906 30.5246 47.6906H40.5184C41.8876 47.6906 43.201 47.1477 44.1705 46.1808C45.1401 45.214 45.6867 43.9022 45.6906 42.533V32.5246C45.6867 31.154 45.1405 29.8407 44.1714 28.8715C43.2023 27.9024 41.8889 27.3562 40.5184 27.3523H30.5246Z" fill="white"/>
</g>
<defs>
<linearGradient id="paint0_linear_293_6602" x1="61.4508" y1="18.8587" x2="30.9959" y2="65.481" gradientUnits="userSpaceOnUse">
<stop stop-color="#FBE18A"/>
<stop offset="0.21" stop-color="#FCBB45"/>
<stop offset="0.38" stop-color="#F75274"/>
<stop offset="0.52" stop-color="#D53692"/>
<stop offset="0.74" stop-color="#8F39CE"/>
<stop offset="1" stop-color="#5B4FE9"/>
</linearGradient>
<linearGradient id="paint1_linear_293_6602" x1="36" y1="112.869" x2="36" y2="-5.98559" gradientUnits="userSpaceOnUse">
<stop stop-color="#E2E2E2"/>
<stop offset="1" stop-opacity="0"/>
</linearGradient>
<clipPath id="clip0_293_6602">
<rect width="72" height="59" fill="white"/>
</clipPath>
</defs>
</svg>
