<svg width="80" height="109" viewBox="0 0 80 109" fill="none" xmlns="http://www.w3.org/2000/svg">
<path d="M60.5019 1.06763H0.977539V107.927H79.0088V19.5745L60.5019 1.06763Z" fill="url(#paint0_linear_291_6815)"/>
<path d="M60.325 1.06763H0.978516V11.9226H60.325V1.06763Z" fill="#E8E8E8"/>
<path d="M10.4115 7.02901C10.4115 8.00774 9.61077 8.80852 8.63204 8.80852C7.65332 8.80852 6.85254 8.00774 6.85254 7.02901C6.85254 6.05029 7.65332 5.24951 8.63204 5.24951C9.61077 5.24951 10.4115 6.05029 10.4115 7.02901Z" fill="#D25622"/>
<path d="M16.5512 7.02901C16.5512 8.00774 15.7504 8.80852 14.7717 8.80852C13.793 8.80852 12.9922 8.00774 12.9922 7.02901C12.9922 6.05029 13.793 5.24951 14.7717 5.24951C15.7504 5.24951 16.5512 6.05029 16.5512 7.02901Z" fill="#F29C2B"/>
<path d="M22.7797 7.02901C22.7797 8.00774 21.9789 8.80852 21.0002 8.80852C20.0215 8.80852 19.2207 8.00774 19.2207 7.02901C19.2207 6.05029 20.0215 5.24951 21.0002 5.24951C21.9789 5.24951 22.7797 6.05029 22.7797 7.02901Z" fill="#55B06E"/>
<path d="M59.524 3.29213L76.7852 20.4643V105.614H3.20278V3.29213H59.524ZM60.5028 1.06775H1.06738V107.927H79.0986V19.5746L60.5028 1.06775Z" fill="#E7E7E7"/>
<path d="M60.3262 1.15662V19.7524H78.922L60.3262 1.15662Z" fill="#ECECED"/>
<path d="M79.01 108.906H0.978732C0.444881 108.906 0 108.461 0 107.838V1.0677C0 0.533851 0.444881 0 0.978732 0H60.4141C60.6811 0 60.948 0.0889752 61.1259 0.266925L79.7217 18.8627C79.8997 19.0407 79.9887 19.3076 79.9887 19.5745V107.927C80.0776 108.461 79.6328 108.906 79.01 108.906ZM2.04644 106.859H78.0312V20.0194L60.0582 2.04643H2.04644V106.859Z" fill="#221816"/>
<path d="M78.7422 20.5533H60.5023C59.9684 20.5533 59.4346 20.1084 59.4346 19.5746V1.33467C59.4346 0.800819 59.8794 0.266968 60.5023 0.266968C61.0361 0.266968 61.481 0.711844 61.481 1.33467V18.5069H78.7422C79.276 18.5069 79.8099 18.9517 79.8099 19.5746C79.8099 20.1084 79.276 20.5533 78.7422 20.5533Z" fill="#221816"/>
<path d="M18.6836 65.1058V64.4582C18.9218 64.1337 19.2687 63.9042 19.6621 63.8107C21.2469 63.458 22.7351 62.7663 24.0227 61.7836C25.3104 60.801 26.3664 59.5511 27.1171 58.1214C28.5616 55.8087 28.3286 55.1611 25.6494 54.236L25.1835 54.0742C24.593 53.866 24.0418 53.5611 23.5527 53.1722C22.3645 52.1315 23.0634 50.6282 24.4846 50.3044C25.5096 50.05 26.4182 50.7207 27.42 50.8364C28.4218 50.952 28.3752 50.6976 28.282 49.9807C28.0916 48.1522 28.0526 46.3112 28.1655 44.4764C28.2039 42.8579 28.6695 41.2778 29.5158 39.8939C30.362 38.51 31.5593 37.3707 32.988 36.5901C34.9451 35.3557 37.2158 34.7002 39.5345 34.7002C41.8532 34.7002 44.1239 35.3557 46.081 36.5901C47.4047 37.3023 48.5349 38.3223 49.3747 39.5629C50.2146 40.8034 50.7391 42.2275 50.9035 43.7132C51.1015 45.7823 51.1015 47.8653 50.9035 49.9344C50.9035 50.8364 51.02 50.9982 51.9053 50.7901C52.7906 50.582 53.9554 49.9575 55.1203 50.4663C55.4396 50.5828 55.7177 50.7893 55.9205 51.0604C56.1233 51.3316 56.2419 51.6556 56.2618 51.9927C56.2475 52.2224 56.1839 52.4464 56.0755 52.6498C55.967 52.8532 55.8161 53.0313 55.6328 53.1722C55.0589 53.5977 54.4224 53.9331 53.7458 54.1667C53.2565 54.3517 52.7207 54.5136 52.2314 54.7448C51.2297 55.2074 50.9268 55.8318 51.416 56.8263C52.0945 58.5232 53.168 60.0365 54.5488 61.2425C55.9296 62.4484 57.5785 63.3126 59.3604 63.7644C59.8112 63.8553 60.2154 64.1009 60.5019 64.4582V65.1058C60.3171 65.456 60.0629 65.7656 59.7547 66.0159C59.4464 66.2663 59.0904 66.4523 58.708 66.5628C57.9659 66.8906 57.182 67.1162 56.3783 67.2335C56.1389 67.2178 55.8988 67.25 55.6721 67.3282C55.4455 67.4063 55.2369 67.5288 55.0588 67.6884C54.8807 67.848 54.7366 68.0414 54.6351 68.2572C54.5336 68.473 54.4768 68.7069 54.468 68.9449C54.3049 70.055 53.9787 70.2169 52.8372 70.1244H52.0218C50.9606 69.8692 49.8553 69.853 48.787 70.0771C47.7187 70.3012 46.7145 70.7599 45.848 71.4195C45.4865 71.7077 45.105 71.9705 44.7065 72.2058C43.3256 73.2112 41.6723 73.7818 39.961 73.8436C38.2496 73.9055 36.559 73.4558 35.1081 72.5527C34.2228 72.0439 33.3608 71.4426 32.4988 70.8876C31.7907 70.4444 30.9972 70.1529 30.1691 70.0318C28.8357 69.9305 27.4946 70.0161 26.1853 70.2862C25.5096 70.2862 24.8573 70.1706 24.8107 69.4768C24.8107 67.7885 23.6925 67.3722 22.2713 67.1641C21.5964 67.0449 20.9391 66.843 20.3144 66.5628C19.6002 66.3067 19.0151 65.7839 18.6836 65.1058Z" fill="white"/>
<defs>
<linearGradient id="paint0_linear_291_6815" x1="67.587" y1="16.7091" x2="-4.40181" y2="69.2771" gradientUnits="userSpaceOnUse">
<stop stop-color="#FEFB01"/>
<stop offset="1" stop-color="#FCBB45"/>
</linearGradient>
</defs>
</svg>
