<svg width="72" height="59" viewBox="0 0 72 59" fill="none" xmlns="http://www.w3.org/2000/svg">
<g clip-path="url(#clip0_293_6655)">
<path d="M36 3.8455V2.87226C36 1.28183 34.704 0 33.108 0H2.892C1.296 0 0 1.28183 0 2.86039V54.5254H72V6.69403C72 5.11547 70.704 3.83364 69.108 3.83364H36V3.8455Z" fill="#585858"/>
<path d="M69.4684 7.96399H3.19238V55.0477H69.4684V7.96399Z" fill="white"/>
<path d="M33.9 17.0325H34.075L34.1349 16.8681L35.2023 13.9382C35.2024 13.9378 35.2026 13.9374 35.2027 13.9371C35.5863 12.9086 36.5835 12.2148 37.7016 12.2257V12.2257H37.704H69.096C70.5565 12.2257 71.738 13.3982 71.738 14.8361V56.1396C71.738 57.5775 70.5565 58.75 69.096 58.75H2.892C1.43147 58.75 0.25 57.5775 0.25 56.1396V19.6548C0.25 18.2044 1.43215 17.0325 2.892 17.0325H33.9Z" fill="url(#paint0_linear_293_6655)" stroke="url(#paint1_linear_293_6655)" stroke-width="0.5"/>
<path d="M57.7109 53.3798C57.7109 53.4913 57.7553 53.5985 57.8342 53.6773C57.9132 53.7563 58.0202 53.8006 58.1318 53.8006H65.4175C65.6498 53.8006 65.8383 53.6123 65.8383 53.3798C65.8383 53.1473 65.6498 52.959 65.4175 52.959H58.1318C58.0202 52.959 57.9132 53.0033 57.8342 53.0823C57.7553 53.1611 57.7109 53.2682 57.7109 53.3798V53.3798Z" fill="white"/>
<path d="M59.9565 55.9179H57.3806C56.4741 55.9179 55.6362 55.4342 55.1829 54.649C54.7295 53.8637 54.7295 52.8963 55.1829 52.111C55.6362 51.3258 56.4741 50.8421 57.3806 50.8421H59.9565C60.1889 50.8421 60.3774 50.6536 60.3774 50.4213C60.3774 50.1887 60.1889 50.0003 59.9565 50.0003H57.3806C56.1728 50.0003 55.0568 50.6447 54.4529 51.6907C53.849 52.7367 53.849 54.0254 54.4529 55.0714C55.0568 56.1173 56.1729 56.7617 57.3806 56.7617H59.9565C60.1889 56.7617 60.3774 56.5732 60.3774 56.3409C60.3774 56.1084 60.1889 55.92 59.9565 55.92V55.9179Z" fill="white"/>
<path d="M65.6676 50H63.0917C62.8594 50 62.6709 50.1885 62.6709 50.421C62.6709 50.6534 62.8594 50.8418 63.0917 50.8418H65.6676C66.5747 50.8418 67.4128 51.3257 67.8664 52.1113C68.3198 52.8967 68.3198 53.8647 67.8664 54.6501C67.4128 55.4357 66.5747 55.9197 65.6676 55.9197H63.0917C62.8594 55.9197 62.6709 56.108 62.6709 56.3406C62.6709 56.5729 62.8594 56.7614 63.0917 56.7614H65.6676C66.875 56.7614 67.9907 56.1173 68.5945 55.0715C69.1981 54.026 69.1981 52.7376 68.5945 51.692C67.9908 50.6462 66.875 50.0021 65.6676 50.0021V50Z" fill="white"/>
<path d="M46.9826 48.9727C46.8221 49.2507 46.5913 49.4818 46.3134 49.6426C46.0356 49.8035 45.7203 49.8886 45.3993 49.8893C45.0701 49.8907 44.7466 49.8044 44.4618 49.6394C40.0774 47.2949 35.1357 46.1928 30.1706 46.452C27.6719 46.5288 25.1872 46.8568 22.7542 47.4311C22.5132 47.5202 22.2563 47.5583 21.9999 47.5429C21.7434 47.5275 21.493 47.459 21.2644 47.3417C21.0358 47.2244 20.8341 47.0609 20.6721 46.8615C20.5101 46.6621 20.3912 46.4312 20.3231 46.1835C20.255 45.9358 20.2392 45.6766 20.2766 45.4224C20.3139 45.1682 20.4037 44.9246 20.5402 44.7069C20.6768 44.4893 20.857 44.3024 21.0696 44.1581C21.2821 44.0138 21.5224 43.9152 21.775 43.8687C24.46 43.2262 27.203 42.8563 29.9623 42.7646C32.6007 42.6686 35.2416 42.8643 37.837 43.3479C40.8232 43.8785 43.693 44.9291 46.3159 46.452C46.5284 46.5706 46.7147 46.7308 46.8639 46.9231C47.0131 47.1153 47.122 47.3356 47.1842 47.5708C47.2464 47.8061 47.2606 48.0514 47.226 48.2923C47.1913 48.5331 47.1086 48.7645 46.9826 48.9727V48.9727Z" fill="white"/>
<path d="M50.4219 41.8477C50.2254 42.1758 49.9478 42.4477 49.6158 42.6374C49.2838 42.8271 48.9085 42.9283 48.5261 42.9311C48.1361 42.9323 47.7535 42.824 47.422 42.6185C42.2343 39.8398 36.3819 38.5424 30.5059 38.8687C27.5414 38.9329 24.5931 39.3241 21.7145 40.0353C21.162 40.19 20.5706 40.1189 20.0706 39.8376C19.5705 39.5563 19.2026 39.0879 19.0479 38.5354C18.8932 37.9828 18.9643 37.3915 19.2456 36.8914C19.5269 36.3913 19.9953 36.0235 20.5479 35.8688C23.717 35.0669 26.9668 34.6266 30.235 34.5563C33.3613 34.4231 36.4925 34.6468 39.5681 35.223C43.1061 35.8646 46.5089 37.1045 49.6303 38.8895C50.1191 39.1846 50.4746 39.6575 50.6222 40.2091C50.7698 40.7607 50.698 41.348 50.4219 41.8477V41.8477Z" fill="white"/>
<path d="M52.5242 35.3688C52.0477 35.3651 51.5806 35.2358 51.17 34.9938C37.5246 27.0149 19.921 31.7647 19.6293 31.8064C18.966 31.9317 18.2798 31.8026 17.7072 31.445C17.1346 31.0874 16.7175 30.5273 16.539 29.8763C16.3605 29.2252 16.4336 28.5308 16.7437 27.9312C17.0538 27.3315 17.5783 26.8705 18.2127 26.6399C22.1042 25.6926 26.084 25.155 30.0874 25.0358C33.9257 24.8941 37.7679 25.1735 41.5453 25.8691C45.8844 26.6491 50.0565 28.1713 53.8783 30.369C54.3841 30.6684 54.7777 31.1254 54.9989 31.67C55.2201 32.2145 55.2567 32.8166 55.1031 33.3839C54.9494 33.9513 54.614 34.4526 54.1482 34.8111C53.6824 35.1696 53.1119 35.3655 52.5242 35.3688V35.3688Z" fill="white"/>
</g>
<defs>
<linearGradient id="paint0_linear_293_6655" x1="61.4508" y1="18.8587" x2="30.9959" y2="65.481" gradientUnits="userSpaceOnUse">
<stop stop-color="#00D95F"/>
<stop offset="1" stop-color="#199250"/>
</linearGradient>
<linearGradient id="paint1_linear_293_6655" x1="36" y1="112.869" x2="36" y2="-5.98559" gradientUnits="userSpaceOnUse">
<stop stop-color="#E2E2E2"/>
<stop offset="1" stop-opacity="0"/>
</linearGradient>
<clipPath id="clip0_293_6655">
<rect width="72" height="59" fill="white"/>
</clipPath>
</defs>
</svg>
