<svg width="72" height="59" viewBox="0 0 72 59" fill="none" xmlns="http://www.w3.org/2000/svg">
<g clip-path="url(#clip0_293_6691)">
<path d="M36 3.8455V2.87226C36 1.28183 34.704 0 33.108 0H2.892C1.296 0 0 1.28183 0 2.86039V54.5254H72V6.69403C72 5.11547 70.704 3.83364 69.108 3.83364H36V3.8455Z" fill="#585858"/>
<path d="M69.4684 7.96399H3.19238V55.0477H69.4684V7.96399Z" fill="white"/>
<path d="M33.9 17.0325H34.075L34.1349 16.8681L35.2023 13.9382C35.2024 13.9378 35.2026 13.9374 35.2027 13.9371C35.5863 12.9086 36.5835 12.2148 37.7016 12.2257V12.2257H37.704H69.096C70.5565 12.2257 71.738 13.3982 71.738 14.8361V56.1396C71.738 57.5775 70.5565 58.75 69.096 58.75H2.892C1.43147 58.75 0.25 57.5775 0.25 56.1396V19.6548C0.25 18.2044 1.43215 17.0325 2.892 17.0325H33.9Z" fill="url(#paint0_linear_293_6691)" stroke="url(#paint1_linear_293_6691)" stroke-width="0.5"/>
<path d="M57.7109 53.3798C57.7109 53.4913 57.7553 53.5985 57.8342 53.6773C57.9132 53.7563 58.0202 53.8006 58.1318 53.8006H65.4175C65.6498 53.8006 65.8383 53.6123 65.8383 53.3798C65.8383 53.1473 65.6498 52.959 65.4175 52.959H58.1318C58.0202 52.959 57.9132 53.0033 57.8342 53.0823C57.7553 53.1611 57.7109 53.2682 57.7109 53.3798V53.3798Z" fill="white"/>
<path d="M59.9565 55.9179H57.3806C56.4741 55.9179 55.6362 55.4342 55.1829 54.649C54.7295 53.8637 54.7295 52.8963 55.1829 52.111C55.6362 51.3258 56.4741 50.8421 57.3806 50.8421H59.9565C60.1889 50.8421 60.3774 50.6536 60.3774 50.4213C60.3774 50.1887 60.1889 50.0003 59.9565 50.0003H57.3806C56.1728 50.0003 55.0568 50.6447 54.4529 51.6907C53.849 52.7367 53.849 54.0254 54.4529 55.0714C55.0568 56.1173 56.1729 56.7617 57.3806 56.7617H59.9565C60.1889 56.7617 60.3774 56.5732 60.3774 56.3409C60.3774 56.1084 60.1889 55.92 59.9565 55.92V55.9179Z" fill="white"/>
<path d="M65.6676 50H63.0917C62.8594 50 62.6709 50.1885 62.6709 50.421C62.6709 50.6534 62.8594 50.8418 63.0917 50.8418H65.6676C66.5747 50.8418 67.4128 51.3257 67.8664 52.1113C68.3198 52.8967 68.3198 53.8647 67.8664 54.6501C67.4128 55.4357 66.5747 55.9197 65.6676 55.9197H63.0917C62.8594 55.9197 62.6709 56.108 62.6709 56.3406C62.6709 56.5729 62.8594 56.7614 63.0917 56.7614H65.6676C66.875 56.7614 67.9907 56.1173 68.5945 55.0715C69.1981 54.026 69.1981 52.7376 68.5945 51.692C67.9908 50.6462 66.875 50.0021 65.6676 50.0021V50Z" fill="white"/>
<path d="M23.5029 49.925L25.2938 43.246C23.9936 40.8796 23.5072 38.1514 23.9093 35.4813C24.3115 32.8113 25.58 30.3475 27.5196 28.469C29.4592 26.5905 31.9623 25.4015 34.6439 25.0849C37.3254 24.7684 40.0366 25.3419 42.3603 26.7171C44.684 28.0924 46.4913 30.1931 47.5041 32.6961C48.5169 35.1991 48.6791 37.9656 47.9657 40.5697C47.2523 43.1739 45.7028 45.4715 43.5557 47.1088C41.4086 48.7461 38.783 49.6325 36.0829 49.6314C34.0348 49.632 32.0181 49.1279 30.2113 48.1635L23.5029 49.925ZM30.5489 45.624L30.9745 45.8736C33.0653 47.1099 35.5361 47.539 37.9213 47.0799C40.3065 46.6208 42.4415 45.3053 43.924 43.3812C45.4065 41.4571 46.1342 39.0572 45.9699 36.6338C45.8056 34.2104 44.7607 31.9307 43.0321 30.2243C41.3035 28.5178 39.0105 27.5024 36.5852 27.3695C34.1598 27.2365 31.7696 27.995 29.8648 29.5022C27.96 31.0094 26.6721 33.1612 26.2438 35.5521C25.8155 37.9431 26.2764 40.4081 27.5397 42.4827L27.8039 42.9084L26.8057 46.6369L30.5489 45.624Z" fill="white"/>
<path fill-rule="evenodd" clip-rule="evenodd" d="M40.6623 38.9744C40.4157 38.7832 40.1301 38.6487 39.8257 38.5802C39.5213 38.5117 39.2055 38.511 38.9008 38.578C38.4458 38.7689 38.1522 39.4881 37.8439 39.8551C37.7842 39.943 37.6927 40.0043 37.5887 40.0262C37.4847 40.0481 37.3762 40.0289 37.2861 39.9726C35.6059 39.3257 34.1972 38.1241 33.2934 36.567C33.2088 36.4749 33.1619 36.3544 33.1619 36.2294C33.1619 36.1044 33.2088 35.9839 33.2934 35.8918C33.635 35.5726 33.8836 35.1668 34.0127 34.7175C34.0594 34.2065 33.9466 33.6937 33.6898 33.2496C33.4549 32.7358 33.1907 31.9872 32.6622 31.6936C32.4188 31.5985 32.1544 31.5702 31.8964 31.6115C31.6383 31.6527 31.396 31.7622 31.1943 31.9284C30.8411 32.2319 30.5611 32.6114 30.3755 33.0385C30.1899 33.4656 30.1035 33.9292 30.1228 34.3945C30.1238 34.6563 30.1534 34.9171 30.2108 35.1725C30.3806 35.7766 30.6325 36.3544 30.9595 36.89C31.2015 37.3007 31.4661 37.6976 31.7521 38.079C32.6587 39.3483 33.812 40.4217 35.143 41.235C35.8055 41.6542 36.5149 41.9941 37.2568 42.2478C38.0298 42.5936 38.8815 42.7254 39.7228 42.6295C40.1967 42.5759 40.6512 42.411 41.0492 42.1482C41.4472 41.8854 41.7773 41.5323 42.0128 41.1175C42.1269 40.8492 42.1625 40.5539 42.1155 40.2661C41.9247 39.6496 41.132 39.268 40.6623 38.9744Z" fill="white"/>
</g>
<defs>
<linearGradient id="paint0_linear_293_6691" x1="69.2421" y1="26.4826" x2="13.6571" y2="61.7293" gradientUnits="userSpaceOnUse">
<stop stop-color="#60FC7C"/>
<stop offset="1" stop-color="#4AB161"/>
</linearGradient>
<linearGradient id="paint1_linear_293_6691" x1="36" y1="112.869" x2="36" y2="-5.98559" gradientUnits="userSpaceOnUse">
<stop stop-color="#E2E2E2"/>
<stop offset="1" stop-opacity="0"/>
</linearGradient>
<clipPath id="clip0_293_6691">
<rect width="72" height="59" fill="white"/>
</clipPath>
</defs>
</svg>
