<svg width="71" height="43" viewBox="0 0 71 43" fill="none" xmlns="http://www.w3.org/2000/svg">
<path d="M12.9297 21.6875H23.1016C24.6484 21.6875 25.9531 21.1875 27.0156 20.1875C28.0938 19.1875 28.6328 17.7656 28.6328 15.9219C28.6328 14.5625 28.0703 13.3438 26.9453 12.2656C25.8203 11.1719 24.5391 10.625 23.1016 10.625H8.61719V41H6.92969V8.9375H23.1016C25.0078 8.9375 26.6875 9.64844 28.1406 11.0703C29.5938 12.4766 30.3203 14.0938 30.3203 15.9219C30.3203 18.1719 29.6172 19.9766 28.2109 21.3359C26.8047 22.6953 25.1016 23.375 23.1016 23.375H12.9297V21.6875ZM12.9297 25.0625H23.1016C25.5391 25.0625 27.6328 24.2109 29.3828 22.5078C31.1328 20.7891 32.0078 18.5938 32.0078 15.9219C32.0078 13.625 31.1094 11.6094 29.3125 9.875C27.5312 8.125 25.4609 7.25 23.1016 7.25H5.24219V41H3.55469V5.5625H23.1016C24.9609 5.5625 26.7031 6.03906 28.3281 6.99219C29.9688 7.94531 31.2734 9.22656 32.2422 10.8359C33.2109 12.4297 33.6953 14.125 33.6953 15.9219C33.6953 19 32.6484 21.5781 30.5547 23.6562C28.4766 25.7188 25.9922 26.75 23.1016 26.75H12.9297V25.0625ZM12.9297 28.4375H23.1016C25.2891 28.4375 27.3203 27.8984 29.1953 26.8203C31.0703 25.7422 32.5703 24.2422 33.6953 22.3203C34.8203 20.3828 35.3828 18.25 35.3828 15.9219C35.3828 13.8125 34.8203 11.8359 33.6953 9.99219C32.5859 8.13281 31.0859 6.64844 29.1953 5.53906C27.3047 4.42969 25.2734 3.875 23.1016 3.875H1.86719V41H0.179688V2.1875H23.1016C25.5547 2.1875 27.8594 2.82031 30.0156 4.08594C32.1719 5.33594 33.8828 7.02344 35.1484 9.14844C36.4297 11.2578 37.0703 13.5156 37.0703 15.9219C37.0703 18.7031 36.4688 21.1484 35.2656 23.2578C34.0781 25.3672 32.4609 27.0156 30.4141 28.2031L34.7734 41H32.9922L28.8203 29C28.1953 29.25 27.7188 29.4219 27.3906 29.5156L31.3047 41H29.5234L25.7031 29.9141C25.5625 29.9453 25.0625 30 24.2031 30.0781L27.8359 41H26.0547L22.4688 30.125H20.9453L24.3672 41H22.5859L19.1406 30.125H12.9297V28.4375ZM11.9922 41H10.3047V12.3125H23.1016C24.1484 12.3125 25.0469 12.6719 25.7969 13.3906C26.5625 14.0938 26.9453 14.9375 26.9453 15.9219C26.9453 18.6406 25.6641 20 23.1016 20H12.9297V18.3125H23.1016C23.7734 18.3125 24.2969 18.1406 24.6719 17.7969C25.0625 17.4375 25.2578 16.8125 25.2578 15.9219C25.2578 15.375 25.0469 14.9219 24.625 14.5625C24.2188 14.1875 23.7109 14 23.1016 14H11.9922V41ZM56.3594 17.375H53.5234C52.3203 17.375 51.4531 17.0703 50.9219 16.4609C50.3906 15.8359 50.125 15.0156 50.125 14C50.125 11.75 51.8047 10.625 55.1641 10.625C58.3203 10.625 60.6953 11.0938 62.2891 12.0312L60.9297 13.0625C59.8359 12.5625 57.9141 12.3125 55.1641 12.3125C53.8203 12.3125 52.9141 12.4609 52.4453 12.7578C51.9922 13.0547 51.7656 13.4688 51.7656 14C51.7656 14.5312 51.8906 14.9453 52.1406 15.2422C52.3906 15.5391 52.8516 15.6875 53.5234 15.6875H56.4297C58.5391 15.6875 60.4375 16.0469 62.125 16.7656C63.8281 17.4844 65.2266 18.4688 66.3203 19.7188C67.4141 20.9531 68.25 22.3828 68.8281 24.0078C69.4062 25.6172 69.6953 27.3438 69.6953 29.1875C69.6953 30.6875 69.4844 32.1094 69.0625 33.4531C68.6406 34.7969 68 36.0312 67.1406 37.1562C66.2969 38.2812 65.2734 39.2578 64.0703 40.0859C62.8828 40.8984 61.4609 41.5312 59.8047 41.9844C58.1641 42.4531 56.3828 42.6875 54.4609 42.6875C51.4453 42.6875 48.6172 42.2266 45.9766 41.3047C43.3516 40.3984 41.1641 39.125 39.4141 37.4844L40.7734 36.4766C42.3672 37.9141 44.3594 39.0312 46.75 39.8281C49.1562 40.6094 51.7266 41 54.4609 41C56.6016 41 58.5312 40.6953 60.25 40.0859C61.9844 39.4609 63.4062 38.6094 64.5156 37.5312C65.6406 36.4531 66.5 35.2031 67.0938 33.7812C67.7031 32.3594 68.0078 30.8281 68.0078 29.1875C68.0078 27.0156 67.5703 25.0547 66.6953 23.3047C65.8203 21.5391 64.4844 20.1094 62.6875 19.0156C60.9062 17.9219 58.7969 17.375 56.3594 17.375ZM53.5234 19.0625H56.1953C59.3672 19.0625 61.8438 20.0312 63.625 21.9688C65.4219 23.9062 66.3203 26.3125 66.3203 29.1875C66.3203 32.1094 65.2812 34.5312 63.2031 36.4531C61.125 38.3594 58.2109 39.3125 54.4609 39.3125C51.9609 39.3125 49.625 38.9688 47.4531 38.2812C45.2812 37.5938 43.4766 36.625 42.0391 35.375L43.3516 34.3203C44.6328 35.3672 46.2422 36.1797 48.1797 36.7578C50.1328 37.3359 52.2266 37.625 54.4609 37.625C57.7578 37.625 60.2734 36.8359 62.0078 35.2578C63.7578 33.6797 64.6328 31.6562 64.6328 29.1875C64.6328 26.75 63.8984 24.7344 62.4297 23.1406C60.9766 21.5469 58.8906 20.75 56.1719 20.75H53.5234C51.2422 20.75 49.5312 20.125 48.3906 18.875C47.25 17.625 46.6797 16 46.6797 14C46.6797 12 47.3828 10.375 48.7891 9.125C50.2109 7.875 52.3359 7.25 55.1641 7.25C57.1484 7.25 58.9922 7.48438 60.6953 7.95312C62.3984 8.40625 63.8047 9.0625 64.9141 9.92188L63.5781 10.9531C61.625 9.60938 58.8203 8.9375 55.1641 8.9375C52.8047 8.9375 51.0781 9.40625 49.9844 10.3438C48.9062 11.2656 48.3672 12.4844 48.3672 14C48.3672 15.5312 48.7656 16.7578 49.5625 17.6797C50.375 18.6016 51.6953 19.0625 53.5234 19.0625ZM53.5234 22.4375H56.1016C58.3828 22.4375 60.0938 23.0703 61.2344 24.3359C62.375 25.6016 62.9453 27.2188 62.9453 29.1875C62.9453 31.1875 62.2344 32.8125 60.8125 34.0625C59.4062 35.3125 57.2891 35.9375 54.4609 35.9375C52.4766 35.9375 50.625 35.7109 48.9062 35.2578C47.2031 34.7891 45.7969 34.125 44.6875 33.2656L46.0234 32.2344C47.9766 33.5781 50.7891 34.25 54.4609 34.25C56.8203 34.25 58.5391 33.7891 59.6172 32.8672C60.7109 31.9297 61.2578 30.7031 61.2578 29.1875C61.2578 27.6719 60.8516 26.4531 60.0391 25.5312C59.2266 24.5938 57.9062 24.125 56.0781 24.125H53.5234C50.3203 24.125 47.8125 23.1719 46 21.2656C44.2031 19.3438 43.3047 16.9219 43.3047 14C43.3047 11.0781 44.3438 8.66406 46.4219 6.75781C48.5 4.83594 51.4141 3.875 55.1641 3.875C57.6641 3.875 59.9922 4.21875 62.1484 4.90625C64.3203 5.59375 66.125 6.5625 67.5625 7.8125L66.25 8.86719C64.9688 7.82031 63.3594 7.00781 61.4219 6.42969C59.4844 5.85156 57.3984 5.5625 55.1641 5.5625C51.8672 5.5625 49.3438 6.35156 47.5938 7.92969C45.8594 9.50781 44.9922 11.5312 44.9922 14C44.9922 16.4531 45.7266 18.4766 47.1953 20.0703C48.6641 21.6484 50.7734 22.4375 53.5234 22.4375ZM53.5234 25.8125H56.1016C57.3047 25.8125 58.1719 26.125 58.7031 26.75C59.2344 27.375 59.5 28.1875 59.5 29.1875C59.5 31.4375 57.8203 32.5625 54.4609 32.5625C51.2891 32.5625 48.9062 32.0938 47.3125 31.1562L48.6719 30.125C49.7656 30.625 51.6953 30.875 54.4609 30.875C55.8047 30.875 56.7031 30.7266 57.1562 30.4297C57.625 30.1328 57.8594 29.7188 57.8594 29.1875C57.8594 28.6719 57.7266 28.2656 57.4609 27.9688C57.2109 27.6562 56.7422 27.5 56.0547 27.5H53.5234C51.3672 27.5 49.4141 27.1484 47.6641 26.4453C45.9297 25.7422 44.5 24.7734 43.375 23.5391C42.2656 22.3047 41.4141 20.875 40.8203 19.25C40.2266 17.625 39.9297 15.875 39.9297 14C39.9297 12.5 40.1406 11.0781 40.5625 9.73438C40.9844 8.39062 41.6172 7.15625 42.4609 6.03125C43.3203 4.90625 44.3438 3.9375 45.5312 3.125C46.7344 2.29688 48.1562 1.65625 49.7969 1.20312C51.4531 0.734375 53.2422 0.5 55.1641 0.5C58.1797 0.5 61 0.960938 63.625 1.88281C66.25 2.78906 68.4375 4.0625 70.1875 5.70312L68.8281 6.71094C67.2344 5.27344 65.2422 4.16406 62.8516 3.38281C60.4609 2.58594 57.8984 2.1875 55.1641 2.1875C53.0234 2.1875 51.0859 2.5 49.3516 3.125C47.6328 3.73438 46.2109 4.57812 45.0859 5.65625C43.9766 6.73438 43.1172 7.98438 42.5078 9.40625C41.9141 10.8281 41.6172 12.3594 41.6172 14C41.6172 16.2031 42.0625 18.1875 42.9531 19.9531C43.8438 21.7188 45.2031 23.1406 47.0312 24.2188C48.8594 25.2812 51.0234 25.8125 53.5234 25.8125Z" fill="white"/>
</svg>
