<svg width="69" height="107" viewBox="0 0 69 107" fill="none" xmlns="http://www.w3.org/2000/svg">
<path d="M34.5123 0.00089913C22.7784 0.00089913 13.194 9.52258 13.194 21.178C13.194 28.0921 16.58 34.241 21.773 38.1115C9.02781 43.1456 0.000780788 55.4734 0.000780788 69.9269V77.0126L2.94819e-05 77.0118C-0.003727 77.9037 0.351636 78.7589 0.985743 79.3895C1.6206 80.0195 2.48159 80.3717 3.37935 80.3687H9.34845C9.31614 80.8852 9.26956 81.3987 9.26956 81.9233C9.26956 95.7334 20.6113 107 34.5135 107C48.4156 107 59.7574 95.7334 59.7574 81.9233C59.7574 81.3994 59.7108 80.8852 59.6785 80.3687H65.6476C66.5401 80.365 67.3943 80.0098 68.0233 79.3798C68.6521 78.7507 69.0037 77.8991 69 77.0117V69.926C69 55.4719 59.9851 43.1431 47.2469 38.1106C52.4407 34.2409 55.8322 28.0926 55.8322 21.1771C55.8322 9.52092 46.247 0 34.5138 0L34.5123 0.00089913ZM34.5123 6.6947C42.6077 6.6947 49.093 13.1371 49.093 21.1788C49.093 29.2205 42.6077 35.6696 34.5123 35.6696C26.4162 35.6696 19.9249 29.2205 19.9249 21.1788C19.9249 13.1371 26.417 6.6947 34.5123 6.6947ZM34.5123 42.358C49.9539 42.358 62.2662 54.5897 62.2662 69.928V73.6768L58.3218 73.6761C55.2873 65.0784 47.6697 58.6106 38.3959 57.174C38.3854 57.1725 38.3734 57.1755 38.3629 57.174C37.1037 56.9807 35.8235 56.8471 34.511 56.8471C23.5187 56.8471 14.1505 63.9007 10.7 73.6761H6.72924V69.9273C6.72924 54.588 19.0686 42.3573 34.512 42.3573L34.5123 42.358ZM34.5123 63.5352C35.5341 63.5366 36.5349 63.6359 37.5168 63.7964C37.6039 63.8105 37.6926 63.8203 37.7797 63.8352C38.7699 64.0121 39.7398 64.2591 40.6722 64.586C40.685 64.5905 40.6985 64.5942 40.7113 64.5987C46.5242 66.6541 51.0651 71.5261 52.5249 77.7767L52.5241 77.7774C52.5549 77.8991 52.5925 78.0185 52.6361 78.1364C52.8908 79.3567 53.0237 80.6261 53.0237 81.924C53.0237 92.1195 44.7751 100.307 34.5116 100.307C24.248 100.307 15.9994 92.1195 15.9994 81.924C15.9994 80.6097 16.1399 79.3252 16.4006 78.0909C16.4389 77.9879 16.4719 77.8835 16.4997 77.7767C18.1969 70.5082 24.0623 65.1138 31.2449 63.8345C31.332 63.8196 31.4207 63.8091 31.5078 63.7957C32.4898 63.6352 33.4898 63.5352 34.5123 63.5345L34.5123 63.5352ZM35.0187 68.7207C30.9285 68.414 26.9526 70.7433 25.342 74.6174L25.3412 74.6167C24.9979 75.4384 24.9979 76.3623 25.3405 77.1847C25.683 78.0072 26.3404 78.6602 27.1684 79.0005C27.9956 79.3408 28.9257 79.3408 29.753 78.9998C30.5809 78.6595 31.2383 78.0057 31.5802 77.1832C32.1512 75.81 33.587 75.0949 35.0316 75.4786C36.4762 75.8623 37.3629 77.1922 37.1682 78.6655C36.9842 80.0604 35.8963 81.0612 34.5123 81.1665C34.4199 81.1605 34.3282 81.159 34.2358 81.1605C34.0525 81.1627 33.8707 81.1799 33.6904 81.212C32.6235 81.3135 31.6685 81.9135 31.1194 82.8278C30.5702 83.7421 30.4921 84.8616 30.9098 85.8421V91.7717C30.9361 92.9487 31.583 94.0249 32.6138 94.6063C33.6446 95.1869 34.9068 95.1869 35.9368 94.6063C36.9676 94.0249 37.6152 92.9487 37.6415 91.7717V87.2594C40.9044 86.0452 43.3792 83.1203 43.8541 79.5274C44.4822 74.7778 41.4326 70.2505 36.7739 69.0132C36.1916 68.8587 35.6026 68.7632 35.0188 68.7191L35.0187 68.7207Z" fill="white"/>
</svg>
