<svg width="75" height="114" viewBox="0 0 75 114" fill="none" xmlns="http://www.w3.org/2000/svg">
<path d="M75 28.4938V4.74869C75 3.48821 74.5063 2.28076 73.6268 1.38964C72.7472 0.500174 71.5555 0 70.3114 0H4.6886C2.09905 0 1.79603e-06 2.12507 1.79603e-06 4.74861V28.4937C-0.00163333 30.3936 1.11333 32.1128 2.83639 32.8633L22.2663 41.2924C11.7151 46.0444 3.91531 55.4555 1.11839 66.8031C-1.67878 78.1525 0.838844 90.1739 7.94517 99.3929C15.0515 108.612 25.9542 114 37.4993 114C49.0444 114 59.947 108.612 67.0534 99.3929C74.1597 90.1739 76.6775 78.152 73.8801 66.8031C71.083 55.4555 63.2834 46.0444 52.7323 41.2924L72.1622 32.8633C73.8853 32.113 75.0002 30.3937 74.9985 28.4937L75 28.4938ZM65.6245 75.9841C65.6245 83.5402 62.6622 90.7884 57.3865 96.1319C52.1124 101.477 44.9604 104.478 37.5004 104.478C30.0405 104.478 22.8885 101.477 17.6144 96.1319C12.339 90.7884 9.3764 83.5406 9.3764 75.9841C9.3764 68.4264 12.3387 61.1799 17.6144 55.8347C22.8885 50.4912 30.0405 47.4899 37.5004 47.4899C44.9604 47.4899 52.1124 50.4912 57.3865 55.8347C62.6618 61.1794 65.6245 68.4259 65.6245 75.9841ZM65.6245 25.3603L37.5009 37.564L9.37723 25.3586V9.49772H65.6253L65.6245 25.3603Z" fill="white"/>
<path d="M19 76C19 81.0395 20.9502 85.8717 24.4182 89.4337C27.8878 92.9971 32.5931 95 37.5 95C42.4069 95 47.1119 92.9971 50.5818 89.4337C54.0499 85.872 56 81.0395 56 76C56 70.9604 54.0498 66.1283 50.5818 62.5646C47.1122 59.0012 42.4069 57 37.5 57C32.5931 57 27.8881 59.0012 24.4182 62.5646C20.9501 66.128 19 70.9604 19 76ZM46.749 76C46.749 78.5197 45.7747 80.9352 44.0407 82.7177C42.3051 84.4986 39.9533 85.4992 37.4997 85.4992C35.0462 85.4992 32.6944 84.4986 30.9588 82.7177C29.2248 80.9352 28.2505 78.5198 28.2505 76C28.2505 73.4803 29.2248 71.0631 30.9588 69.2823C32.6944 67.5014 35.0462 66.4991 37.4997 66.4991C39.9533 66.4991 42.3051 67.5014 44.0407 69.2823C45.7747 71.0632 46.749 73.4802 46.749 76Z" fill="white"/>
</svg>
