<svg width="88" height="121" viewBox="0 0 88 121" fill="none" xmlns="http://www.w3.org/2000/svg">
<path d="M13.2742 83.0908C10.7067 83.0908 8.61935 81.0033 8.61935 78.4359V13.2742C8.61935 10.7066 10.7068 8.61927 13.2742 8.61927H65.6794C68.247 8.61927 70.3343 10.7068 70.3343 13.2742V45.8993C70.3343 47.1499 70.8836 48.2523 71.733 49.0392C72.5016 49.7511 73.5127 50.209 74.6439 50.209C77.0238 50.209 78.9535 48.2812 78.9535 45.8993V13.2742C78.9535 5.95542 72.9978 0 65.6793 0H13.2742C5.95543 0 0 5.95567 0 13.2742V78.4359C0 85.7546 5.95567 91.71 13.2742 91.71H36.2027C38.5826 91.71 40.5123 89.7822 40.5123 87.4004C40.5123 86.1489 39.9611 85.0455 39.1107 84.2585C38.3421 83.5477 37.332 83.0907 36.2026 83.0907L13.2742 83.0908Z" fill="white"/>
<path d="M27.9737 50.1652H50.9965C53.3764 50.1652 55.3061 48.2374 55.3061 45.8555C55.3061 43.4737 53.3764 41.5459 50.9965 41.5459H27.9737C25.5938 41.5459 23.6641 43.4737 23.6641 45.8555C23.6641 48.2374 25.5938 50.1652 27.9737 50.1652Z" fill="white"/>
<path d="M35.6473 31.6263H43.3219C45.7018 31.6263 47.6315 29.6985 47.6315 27.3167C47.6315 24.9348 45.7018 23.007 43.3219 23.007H35.6473C33.2674 23.007 31.3376 24.9348 31.3376 27.3167C31.3376 29.6985 33.2674 31.6263 35.6473 31.6263Z" fill="white"/>
<path d="M35.8148 60.0773H27.9717C25.5918 60.0773 23.6621 62.0051 23.6621 64.3869C23.6621 66.7688 25.5918 68.6966 27.9717 68.6966H35.8148C38.1947 68.6966 40.1244 66.7688 40.1244 64.3869C40.1244 62.0051 38.1947 60.0773 35.8148 60.0773Z" fill="white"/>
<path d="M87.3853 75.427C87.3853 64.0392 78.8507 54.6984 67.8582 53.2247C66.8741 53.093 65.9006 52.9236 64.8818 52.9236C52.4753 52.9236 42.3804 63.0205 42.3804 75.4271C42.3804 77.0547 42.5737 78.6352 42.9037 80.1657C43.9436 84.993 46.5804 89.1861 50.1771 92.3211V116.36C50.1771 117.992 51.0987 119.482 52.559 120.214C54.0173 120.939 55.768 120.787 57.0725 119.806L64.8818 113.948L72.6911 119.806C73.4501 120.379 74.3621 120.669 75.2769 120.669C75.9339 120.669 76.5938 120.518 77.2047 120.214C78.665 119.482 79.5865 117.992 79.5865 116.36V92.3221C84.3242 88.1932 87.3853 82.1887 87.3853 75.427ZM67.4676 105.114C66.7019 104.538 65.7909 104.251 64.8818 104.251C63.9728 104.251 63.0618 104.537 62.2961 105.114L58.7964 107.74V96.9875C60.7453 97.5397 62.7598 97.9302 64.8818 97.9302C67.0049 97.9302 69.0193 97.5397 70.9673 96.9885V107.74L67.4676 105.114ZM64.8818 89.3109C57.2264 89.3109 50.9996 83.0821 50.9996 75.4268C50.9996 67.7714 57.2264 61.5426 64.8818 61.5426C72.5372 61.5426 78.766 67.7714 78.766 75.4268C78.766 83.0821 72.5372 89.3109 64.8818 89.3109Z" fill="white"/>
<path d="M64.9677 79.7366C67.3476 79.7366 69.2773 77.8088 69.2773 75.427C69.2773 73.0451 67.3476 71.1174 64.9677 71.1174H64.9234C62.5435 71.1174 60.637 73.0451 60.637 75.427C60.637 77.8088 62.5878 79.7366 64.9677 79.7366Z" fill="white"/>
</svg>
