<svg width="76" height="95" viewBox="0 0 76 95" fill="none" xmlns="http://www.w3.org/2000/svg">
<path d="M71.8123 68.813C72.8576 69.2104 73.7658 69.9073 74.4211 70.8182C74.4211 70.8182 74.4211 70.8183 74.4211 70.8183L74.0152 71.1102C74.6564 72.0014 75.0007 73.0714 75 74.1697L71.8123 68.813ZM71.8123 68.813L71.8097 68.8065L71.5873 68.7322L71.1468 68.5852V9.71863V9.71802C71.1438 7.27423 70.1739 4.93156 68.448 3.20309C66.7221 1.47459 64.3824 0.502881 61.9416 0.5H61.941L33.2699 0.499942L33.2623 0.500058C31.2167 0.531087 29.2603 1.34389 27.7932 2.77176L27.7932 2.77173L27.7882 2.77678L2.77167 27.8301L2.77163 27.8301L2.76645 27.8354C1.34232 29.3048 0.531773 31.2634 0.50006 33.3106H0.5V33.3183L0.5 85.2814L0.5 85.282C0.502996 87.7258 1.47291 90.0684 3.1988 91.7969C4.92471 93.5254 7.26432 94.4971 9.70521 94.5H9.7058L62.6244 94.5L62.6313 94.5C64.1409 94.479 65.5846 93.8797 66.666 92.8255L66.6707 92.8207L73.824 85.6576C73.8241 85.6575 73.8242 85.6575 73.8242 85.6574L71.8123 68.813ZM75.5 81.6049V74.1701L73.4711 85.3034C74.453 84.325 75.0035 82.9932 75 81.6062H75.5V81.6049ZM7.30468 85.3184V85.2796V34.921H25.6673H25.6679C28.1087 34.918 30.4483 33.9463 32.1742 32.2179C33.9002 30.4895 34.8702 28.1467 34.8731 25.7029V25.7023V7.31197H61.941C62.5776 7.31255 63.1881 7.56616 63.6388 8.01742C64.0894 8.46865 64.3428 9.08035 64.3434 9.71871V66.3129L45.3158 59.961L45.3156 59.9609C44.5124 59.6931 43.6378 59.7347 42.8636 60.0774C42.0894 60.4202 41.4709 61.0398 41.1281 61.8145L41.1279 61.8149C40.7858 62.5898 40.7444 63.4651 41.0117 64.269L41.0117 64.2692L48.8057 87.6856H9.70679C9.07015 87.685 8.45966 87.4314 8.009 86.9801C7.56769 86.5382 7.31547 85.9424 7.30468 85.3184ZM64.687 78.8522L64.3332 79.2054L64.687 78.8521C63.8275 77.9914 62.5748 77.6551 61.4008 77.9705C60.227 78.2858 59.3104 79.204 58.9958 80.3787C58.6813 81.5535 59.0165 82.8075 59.876 83.6682L63.0317 86.8292L62.1763 87.6859H55.9781L49.6177 68.5789L68.6954 74.9483L68.6962 81.1563L67.8417 82.0121L64.687 78.8522ZM25.6667 28.1088H12.114L28.0692 12.1308V25.7021C28.0686 26.3403 27.8151 26.952 27.3645 27.4034C26.9139 27.8547 26.3035 28.1082 25.6667 28.1088Z" fill="white" stroke="white"/>
<path d="M56.1105 43.3763L56.1112 43.4047C57.3269 43.4047 58.4458 42.7415 59.0482 41.6743C59.6506 40.6085 59.6506 39.2961 59.0482 38.2304C58.4458 37.1634 57.3273 36.5003 56.1119 36.5C49.0643 36.49 42.1522 38.4595 36.1305 42.1893C33.8333 40.8286 31.0625 40.5509 28.5417 41.4429L28.5416 41.4429C25.922 42.3701 23.858 44.4585 22.925 47.1178L56.1105 43.3763ZM56.1105 43.3763L56.1105 43.4047C50.5815 43.3921 45.1469 44.8574 40.3451 47.6521C40.9605 49.7702 40.8213 52.0481 39.943 54.077C39.0114 56.2316 37.315 57.9492 35.1916 58.8816C33.2003 59.7561 30.9737 59.8784 28.9089 59.2351C27.7481 61.394 26.8179 63.6747 26.1356 66.0378L26.1348 66.0404C25.7879 67.2178 24.8497 68.1235 23.6668 68.4077C22.4835 68.6922 21.2444 68.3081 20.4159 67.4083L20.4156 67.4079C19.5891 66.5085 19.2967 65.231 19.643 64.0548C20.5765 60.8396 21.8998 57.7562 23.5812 54.8765M56.1105 43.3763L23.5812 54.8765M23.5812 54.8765C22.268 52.5151 22.0248 49.682 22.925 47.1179L23.5812 54.8765ZM31.5802 52.7379H31.5553C30.9256 52.7379 30.319 52.482 29.8702 52.0233C29.421 51.5641 29.1665 50.939 29.1665 50.2856C29.1665 49.6322 29.421 49.007 29.8702 48.5481C30.3191 48.0894 30.9258 47.8334 31.5553 47.8334C32.1849 47.8334 32.7916 48.0893 33.2404 48.548C33.6895 49.007 33.944 49.632 33.9441 50.2852L31.5802 52.7379ZM31.5802 52.7379C32.201 52.7305 32.7968 52.4753 33.2397 52.0227C33.689 51.5635 33.9435 50.9389 33.9441 50.2852L31.5802 52.7379Z" fill="white" stroke="white"/>
</svg>
