<svg width="88" height="94" viewBox="0 0 88 94" fill="none" xmlns="http://www.w3.org/2000/svg">
<mask id="path-1-outside-1_779_8696" maskUnits="userSpaceOnUse" x="0" y="0" width="88" height="94" fill="black">
<rect fill="white" width="88" height="94"/>
<path d="M83.3529 56.641L76.9184 52.1026H76.9176C77.4893 48.5587 77.4893 44.945 76.9176 41.401L83.3527 36.862C84.8057 35.8464 85.8246 34.3214 86.2053 32.5899C86.5862 30.8584 86.302 29.0468 85.4084 27.5151L81.2059 20.2362C80.3262 18.6973 78.8986 17.5448 77.2091 17.0091C75.5186 16.4735 73.6888 16.5922 72.0819 17.3433L64.903 20.6612C62.1322 18.3917 59.0141 16.5841 55.6683 15.3072L54.9541 7.4542C54.8018 5.68753 53.9901 4.04279 52.6804 2.84702C51.3707 1.65124 49.6598 0.991877 47.8866 1.00008H39.4833C37.71 0.991885 35.9991 1.65122 34.6895 2.84702C33.3798 4.04281 32.5682 5.68748 32.4158 7.4542L31.7016 15.3072C28.3558 16.584 25.2377 18.3917 22.4668 20.6612L15.288 17.3442C13.681 16.5931 11.8512 16.4743 10.1608 17.01C8.47031 17.5456 7.04358 18.6972 6.16316 20.2362L1.96232 27.5151C1.06875 29.0459 0.784532 30.8575 1.16457 32.5899C1.54542 34.3213 2.56432 35.8463 4.0172 36.862L10.4517 41.401H10.4525C9.88082 44.945 9.88082 48.5587 10.4525 52.1026L4.01739 56.641C2.5644 57.6567 1.54553 59.1817 1.16476 60.9132C0.783906 62.6446 1.06893 64.4563 1.96169 65.9879L6.16421 73.266C7.04467 74.8049 8.47147 75.9565 10.1619 76.4931C11.8516 77.0287 13.6813 76.91 15.2882 76.1605L22.4671 72.8418C25.2379 75.1113 28.356 76.9198 31.7018 78.1967L32.416 86.0488C32.5683 87.8155 33.38 89.4602 34.6897 90.656C35.9993 91.8526 37.7103 92.5119 39.4835 92.5037H47.8868C49.66 92.5119 51.371 91.8526 52.6806 90.656C53.9903 89.4602 54.8019 87.8155 54.9543 86.0488L55.6685 78.1967C59.0143 76.9198 62.1324 75.1113 64.9032 72.8418L72.0821 76.1605C73.6891 76.9108 75.5189 77.0303 77.2093 76.4939C78.8998 75.9582 80.3265 74.8058 81.2069 73.2668L85.4078 65.9879C86.3013 64.4563 86.5855 62.6455 86.2047 60.9131C85.8247 59.1817 84.806 57.6567 83.3529 56.641ZM81.2364 63.58L77.0356 70.858H77.0364C76.45 71.8851 75.1739 72.2897 74.1035 71.7877L65.5223 67.8219C64.6492 67.4197 63.6213 67.5737 62.9047 68.2142C59.9414 70.8867 56.4524 72.9105 52.6611 74.1547C51.7478 74.4537 51.0992 75.2678 51.0123 76.2244L50.1589 85.6122V85.613C50.0573 86.7908 49.0688 87.6926 47.8869 87.6876H39.4835C38.3016 87.6926 37.313 86.7908 37.2115 85.613L36.358 76.2252V76.2244C36.2712 75.2678 35.6234 74.4537 34.7093 74.1547C30.918 72.9106 27.4288 70.8867 24.4656 68.2142C23.749 67.5737 22.7211 67.4189 21.8481 67.8219L13.2669 71.7885C12.1972 72.2889 10.9211 71.8843 10.3348 70.8589L6.13313 63.58C5.5377 62.5595 5.82516 61.2522 6.79409 60.5758L14.4881 55.1488V55.1496C15.2736 54.5959 15.6536 53.6286 15.457 52.6884C14.6339 48.7734 14.6339 44.7298 15.457 40.8148C15.6536 39.8753 15.2736 38.908 14.4889 38.3544L6.79491 32.9274H6.79409C5.82516 32.2509 5.53767 30.9437 6.13395 29.9224L10.3339 22.6443C10.922 21.6197 12.1964 21.2159 13.2669 21.7155L21.848 25.6813C22.7211 26.0835 23.749 25.9295 24.4656 25.289C27.429 22.6165 30.9179 20.5933 34.7093 19.3493C35.6225 19.0504 36.2712 18.2363 36.358 17.2796L37.2115 7.891V7.89018C37.3138 6.71321 38.3016 5.81063 39.4835 5.81637H47.8868C49.0679 5.81146 50.0566 6.71321 50.1589 7.89018L51.0123 17.2788V17.2796C51.0991 18.2363 51.747 19.0504 52.6611 19.3493C56.4524 20.5935 59.9416 22.6165 62.9047 25.289C63.6214 25.9295 64.6493 26.0835 65.5223 25.6813L74.1035 21.7147H74.1026C75.1731 21.2143 76.4491 21.6189 77.0356 22.6451L81.2381 29.9232H81.2373C81.8327 30.9437 81.5452 32.251 80.5763 32.9274L72.8823 38.3544H72.8815C72.0968 38.9081 71.716 39.8754 71.9134 40.8147C72.7365 44.7306 72.7365 48.7733 71.9134 52.6892C71.716 53.6287 72.0968 54.596 72.8815 55.1496L80.5755 60.5766L80.5763 60.5758C81.5452 61.2523 81.8327 62.5595 81.2364 63.58Z"/>
</mask>
<path d="M83.3529 56.641L76.9184 52.1026H76.9176C77.4893 48.5587 77.4893 44.945 76.9176 41.401L83.3527 36.862C84.8057 35.8464 85.8246 34.3214 86.2053 32.5899C86.5862 30.8584 86.302 29.0468 85.4084 27.5151L81.2059 20.2362C80.3262 18.6973 78.8986 17.5448 77.2091 17.0091C75.5186 16.4735 73.6888 16.5922 72.0819 17.3433L64.903 20.6612C62.1322 18.3917 59.0141 16.5841 55.6683 15.3072L54.9541 7.4542C54.8018 5.68753 53.9901 4.04279 52.6804 2.84702C51.3707 1.65124 49.6598 0.991877 47.8866 1.00008H39.4833C37.71 0.991885 35.9991 1.65122 34.6895 2.84702C33.3798 4.04281 32.5682 5.68748 32.4158 7.4542L31.7016 15.3072C28.3558 16.584 25.2377 18.3917 22.4668 20.6612L15.288 17.3442C13.681 16.5931 11.8512 16.4743 10.1608 17.01C8.47031 17.5456 7.04358 18.6972 6.16316 20.2362L1.96232 27.5151C1.06875 29.0459 0.784532 30.8575 1.16457 32.5899C1.54542 34.3213 2.56432 35.8463 4.0172 36.862L10.4517 41.401H10.4525C9.88082 44.945 9.88082 48.5587 10.4525 52.1026L4.01739 56.641C2.5644 57.6567 1.54553 59.1817 1.16476 60.9132C0.783906 62.6446 1.06893 64.4563 1.96169 65.9879L6.16421 73.266C7.04467 74.8049 8.47147 75.9565 10.1619 76.4931C11.8516 77.0287 13.6813 76.91 15.2882 76.1605L22.4671 72.8418C25.2379 75.1113 28.356 76.9198 31.7018 78.1967L32.416 86.0488C32.5683 87.8155 33.38 89.4602 34.6897 90.656C35.9993 91.8526 37.7103 92.5119 39.4835 92.5037H47.8868C49.66 92.5119 51.371 91.8526 52.6806 90.656C53.9903 89.4602 54.8019 87.8155 54.9543 86.0488L55.6685 78.1967C59.0143 76.9198 62.1324 75.1113 64.9032 72.8418L72.0821 76.1605C73.6891 76.9108 75.5189 77.0303 77.2093 76.4939C78.8998 75.9582 80.3265 74.8058 81.2069 73.2668L85.4078 65.9879C86.3013 64.4563 86.5855 62.6455 86.2047 60.9131C85.8247 59.1817 84.806 57.6567 83.3529 56.641ZM81.2364 63.58L77.0356 70.858H77.0364C76.45 71.8851 75.1739 72.2897 74.1035 71.7877L65.5223 67.8219C64.6492 67.4197 63.6213 67.5737 62.9047 68.2142C59.9414 70.8867 56.4524 72.9105 52.6611 74.1547C51.7478 74.4537 51.0992 75.2678 51.0123 76.2244L50.1589 85.6122V85.613C50.0573 86.7908 49.0688 87.6926 47.8869 87.6876H39.4835C38.3016 87.6926 37.313 86.7908 37.2115 85.613L36.358 76.2252V76.2244C36.2712 75.2678 35.6234 74.4537 34.7093 74.1547C30.918 72.9106 27.4288 70.8867 24.4656 68.2142C23.749 67.5737 22.7211 67.4189 21.8481 67.8219L13.2669 71.7885C12.1972 72.2889 10.9211 71.8843 10.3348 70.8589L6.13313 63.58C5.5377 62.5595 5.82516 61.2522 6.79409 60.5758L14.4881 55.1488V55.1496C15.2736 54.5959 15.6536 53.6286 15.457 52.6884C14.6339 48.7734 14.6339 44.7298 15.457 40.8148C15.6536 39.8753 15.2736 38.908 14.4889 38.3544L6.79491 32.9274H6.79409C5.82516 32.2509 5.53767 30.9437 6.13395 29.9224L10.3339 22.6443C10.922 21.6197 12.1964 21.2159 13.2669 21.7155L21.848 25.6813C22.7211 26.0835 23.749 25.9295 24.4656 25.289C27.429 22.6165 30.9179 20.5933 34.7093 19.3493C35.6225 19.0504 36.2712 18.2363 36.358 17.2796L37.2115 7.891V7.89018C37.3138 6.71321 38.3016 5.81063 39.4835 5.81637H47.8868C49.0679 5.81146 50.0566 6.71321 50.1589 7.89018L51.0123 17.2788V17.2796C51.0991 18.2363 51.747 19.0504 52.6611 19.3493C56.4524 20.5935 59.9416 22.6165 62.9047 25.289C63.6214 25.9295 64.6493 26.0835 65.5223 25.6813L74.1035 21.7147H74.1026C75.1731 21.2143 76.4491 21.6189 77.0356 22.6451L81.2381 29.9232H81.2373C81.8327 30.9437 81.5452 32.251 80.5763 32.9274L72.8823 38.3544H72.8815C72.0968 38.9081 71.716 39.8754 71.9134 40.8147C72.7365 44.7306 72.7365 48.7733 71.9134 52.6892C71.716 53.6287 72.0968 54.596 72.8815 55.1496L80.5755 60.5766L80.5763 60.5758C81.5452 61.2523 81.8327 62.5595 81.2364 63.58Z" fill="white"/>
<path d="M83.3529 56.641L76.9184 52.1026H76.9176C77.4893 48.5587 77.4893 44.945 76.9176 41.401L83.3527 36.862C84.8057 35.8464 85.8246 34.3214 86.2053 32.5899C86.5862 30.8584 86.302 29.0468 85.4084 27.5151L81.2059 20.2362C80.3262 18.6973 78.8986 17.5448 77.2091 17.0091C75.5186 16.4735 73.6888 16.5922 72.0819 17.3433L64.903 20.6612C62.1322 18.3917 59.0141 16.5841 55.6683 15.3072L54.9541 7.4542C54.8018 5.68753 53.9901 4.04279 52.6804 2.84702C51.3707 1.65124 49.6598 0.991877 47.8866 1.00008H39.4833C37.71 0.991885 35.9991 1.65122 34.6895 2.84702C33.3798 4.04281 32.5682 5.68748 32.4158 7.4542L31.7016 15.3072C28.3558 16.584 25.2377 18.3917 22.4668 20.6612L15.288 17.3442C13.681 16.5931 11.8512 16.4743 10.1608 17.01C8.47031 17.5456 7.04358 18.6972 6.16316 20.2362L1.96232 27.5151C1.06875 29.0459 0.784532 30.8575 1.16457 32.5899C1.54542 34.3213 2.56432 35.8463 4.0172 36.862L10.4517 41.401H10.4525C9.88082 44.945 9.88082 48.5587 10.4525 52.1026L4.01739 56.641C2.5644 57.6567 1.54553 59.1817 1.16476 60.9132C0.783906 62.6446 1.06893 64.4563 1.96169 65.9879L6.16421 73.266C7.04467 74.8049 8.47147 75.9565 10.1619 76.4931C11.8516 77.0287 13.6813 76.91 15.2882 76.1605L22.4671 72.8418C25.2379 75.1113 28.356 76.9198 31.7018 78.1967L32.416 86.0488C32.5683 87.8155 33.38 89.4602 34.6897 90.656C35.9993 91.8526 37.7103 92.5119 39.4835 92.5037H47.8868C49.66 92.5119 51.371 91.8526 52.6806 90.656C53.9903 89.4602 54.8019 87.8155 54.9543 86.0488L55.6685 78.1967C59.0143 76.9198 62.1324 75.1113 64.9032 72.8418L72.0821 76.1605C73.6891 76.9108 75.5189 77.0303 77.2093 76.4939C78.8998 75.9582 80.3265 74.8058 81.2069 73.2668L85.4078 65.9879C86.3013 64.4563 86.5855 62.6455 86.2047 60.9131C85.8247 59.1817 84.806 57.6567 83.3529 56.641ZM81.2364 63.58L77.0356 70.858H77.0364C76.45 71.8851 75.1739 72.2897 74.1035 71.7877L65.5223 67.8219C64.6492 67.4197 63.6213 67.5737 62.9047 68.2142C59.9414 70.8867 56.4524 72.9105 52.6611 74.1547C51.7478 74.4537 51.0992 75.2678 51.0123 76.2244L50.1589 85.6122V85.613C50.0573 86.7908 49.0688 87.6926 47.8869 87.6876H39.4835C38.3016 87.6926 37.313 86.7908 37.2115 85.613L36.358 76.2252V76.2244C36.2712 75.2678 35.6234 74.4537 34.7093 74.1547C30.918 72.9106 27.4288 70.8867 24.4656 68.2142C23.749 67.5737 22.7211 67.4189 21.8481 67.8219L13.2669 71.7885C12.1972 72.2889 10.9211 71.8843 10.3348 70.8589L6.13313 63.58C5.5377 62.5595 5.82516 61.2522 6.79409 60.5758L14.4881 55.1488V55.1496C15.2736 54.5959 15.6536 53.6286 15.457 52.6884C14.6339 48.7734 14.6339 44.7298 15.457 40.8148C15.6536 39.8753 15.2736 38.908 14.4889 38.3544L6.79491 32.9274H6.79409C5.82516 32.2509 5.53767 30.9437 6.13395 29.9224L10.3339 22.6443C10.922 21.6197 12.1964 21.2159 13.2669 21.7155L21.848 25.6813C22.7211 26.0835 23.749 25.9295 24.4656 25.289C27.429 22.6165 30.9179 20.5933 34.7093 19.3493C35.6225 19.0504 36.2712 18.2363 36.358 17.2796L37.2115 7.891V7.89018C37.3138 6.71321 38.3016 5.81063 39.4835 5.81637H47.8868C49.0679 5.81146 50.0566 6.71321 50.1589 7.89018L51.0123 17.2788V17.2796C51.0991 18.2363 51.747 19.0504 52.6611 19.3493C56.4524 20.5935 59.9416 22.6165 62.9047 25.289C63.6214 25.9295 64.6493 26.0835 65.5223 25.6813L74.1035 21.7147H74.1026C75.1731 21.2143 76.4491 21.6189 77.0356 22.6451L81.2381 29.9232H81.2373C81.8327 30.9437 81.5452 32.251 80.5763 32.9274L72.8823 38.3544H72.8815C72.0968 38.9081 71.716 39.8754 71.9134 40.8147C72.7365 44.7306 72.7365 48.7733 71.9134 52.6892C71.716 53.6287 72.0968 54.596 72.8815 55.1496L80.5755 60.5766L80.5763 60.5758C81.5452 61.2523 81.8327 62.5595 81.2364 63.58Z" stroke="white" stroke-width="2" mask="url(#path-1-outside-1_779_8696)"/>
<path d="M57.0862 33.3505C53.5802 29.8445 48.8445 27.8523 43.8927 27.7925L43.8911 27.7909H43.6844C38.6554 27.7909 33.8328 29.7888 30.2769 33.3446L30.2769 33.3446C26.721 36.9006 24.7231 41.7232 24.7231 46.7521C24.7231 51.7811 26.7211 56.6037 30.2769 60.1596L30.6305 59.8061L30.2769 60.1596C33.8328 63.7155 38.6554 65.7134 43.6844 65.7134C48.7133 65.7134 53.536 63.7155 57.0919 60.1596C60.6478 56.6037 62.6456 51.7811 62.6456 46.7521V46.7516C62.6397 41.7246 60.6411 36.9053 57.0862 33.3505ZM34.3896 56.046L34.3895 56.0459C31.9238 53.581 30.5392 50.2379 30.5392 46.7511C30.5392 43.2643 31.9239 39.9214 34.3895 37.4563L34.3896 37.4562C36.8545 34.9905 40.1976 33.6059 43.6844 33.6059C47.1712 33.6059 50.5141 34.9906 52.9792 37.4562L52.9793 37.4563C55.4448 39.921 56.8295 43.2639 56.8296 46.7505C56.8257 50.2359 55.4393 53.5776 52.975 56.0417C50.5109 58.5059 47.1692 59.8923 43.6838 59.8963C40.1972 59.8962 36.8545 58.5114 34.3896 56.046Z" fill="white" stroke="white"/>
</svg>
