<svg width="106" height="109" viewBox="0 0 106 109" fill="none" xmlns="http://www.w3.org/2000/svg">
<path d="M75.564 58.4466C75.5651 60.1051 74.4907 61.4517 73.2274 62.4512C71.9247 63.4819 70.1422 64.3744 68.1017 65.1084C64.0068 66.5814 58.5663 67.5248 53.0016 67.5248C47.4372 67.5248 41.9972 66.5812 37.9024 65.1082C35.8619 64.3741 34.0794 63.4816 32.7766 62.451C31.5131 61.4517 30.4385 60.1055 30.4385 58.4476C30.4385 55.5152 32.0657 52.4865 34.4032 49.9208C36.2753 47.866 38.7028 45.9937 41.4292 44.5675C38.2372 41.5346 36.2402 37.2584 36.2402 32.5239C36.2402 23.327 43.7667 15.8643 53.0009 15.8643C62.2354 15.8643 69.7641 23.3265 69.7641 32.5239C69.7641 37.2601 67.7667 41.5353 64.5736 44.5679C67.2998 45.9943 69.7272 47.8665 71.5992 49.9211C73.9364 52.4863 75.5636 55.5145 75.564 58.4466ZM75.564 58.4466C75.564 58.4469 75.564 58.4473 75.564 58.4476H74.064L75.564 58.4466ZM51.7048 103.754L53.0016 105.985L54.2984 103.754L66.1362 83.3881H88.6517C97.3824 83.3881 104.5 76.3318 104.5 67.634V17.2517C104.5 8.55512 97.3812 1.5 88.6517 1.5H17.3483C8.61786 1.5 1.5 8.55542 1.5 17.2517V67.634C1.5 76.3319 8.6186 83.3881 17.3483 83.3881H39.8661L51.7048 103.754ZM53.0013 94.7763L43.5485 78.5148L43.1148 77.7687H42.2517H17.3499C11.7115 77.7687 7.13937 73.2114 7.13937 67.634V17.2517C7.13937 11.6754 11.7119 7.11943 17.3499 7.11943H88.6528C94.2914 7.11943 98.8633 11.6771 98.8633 17.2517L98.8624 67.6339C98.8624 73.2129 94.2896 77.7687 88.6519 77.7687H63.7501H62.887L62.4532 78.5149L53.0013 94.7763ZM38.699 53.5711C40.3461 51.7947 42.6612 50.0785 45.405 48.8941C50.1638 51.0689 55.8411 51.069 60.5986 48.894C63.3424 50.078 65.658 51.7938 67.3057 53.5677C68.9038 55.2881 69.7163 56.8858 69.8931 57.9871C69.7469 58.1078 69.5315 58.2623 69.2351 58.4423C68.4831 58.8992 67.341 59.4413 65.8296 59.9607C62.8152 60.9967 58.4395 61.9054 53.0016 61.9054C47.5642 61.9054 43.188 60.9966 40.1729 59.9633C38.6613 59.4453 37.5183 58.905 36.7655 58.4508C36.4733 58.2745 36.2596 58.1229 36.1132 58.004C36.291 56.8921 37.1044 55.2909 38.699 53.5711ZM70.0942 57.7949C70.0948 57.7948 70.0908 57.8006 70.0808 57.8121C70.0887 57.8007 70.0936 57.795 70.0942 57.7949ZM35.9044 57.8074C35.9049 57.8074 35.9104 57.8135 35.9189 57.8258C35.9081 57.8135 35.9038 57.8074 35.9044 57.8074ZM41.8778 32.5248C41.8778 26.4476 46.8604 21.4847 53.0016 21.4847C59.1448 21.4847 64.1278 26.4481 64.1278 32.5248C64.1278 38.6027 59.1445 43.5674 53.0016 43.5674C46.8597 43.5674 41.8778 38.6031 41.8778 32.5248Z" fill="white" stroke="white" stroke-width="3"/>
</svg>
