<svg width="27" height="27" viewBox="0 0 27 27" fill="none" xmlns="http://www.w3.org/2000/svg">
<path d="M0 13.2152C0 5.91664 5.91664 0 13.2152 0C20.5137 0 26.4304 5.91664 26.4304 13.2152C26.4304 20.5137 20.5137 26.4304 13.2152 26.4304C5.91664 26.4304 0 20.5137 0 13.2152Z" fill="#0077B5"/>
<path fill-rule="evenodd" clip-rule="evenodd" d="M9.53618 8.16188C9.53618 9.02588 8.88583 9.71722 7.84157 9.71722H7.82243C6.81699 9.71722 6.16699 9.02588 6.16699 8.16188C6.16699 7.2796 6.83679 6.6076 7.86131 6.6076C8.88583 6.6076 9.51675 7.2796 9.53618 8.16188ZM9.33869 10.9454V19.9437H6.34384V10.9454H9.33869ZM20.1398 19.9437L20.1399 14.7843C20.1399 12.0205 18.6625 10.7341 16.6917 10.7341C15.1017 10.7341 14.3898 11.6075 13.9923 12.2202V10.9456H10.9971C11.0365 11.79 10.9971 19.9439 10.9971 19.9439H13.9923V14.9185C13.9923 14.6496 14.0117 14.3813 14.0909 14.1888C14.3073 13.6515 14.8002 13.0953 15.6276 13.0953C16.7117 13.0953 17.1451 13.9204 17.1451 15.1296V19.9437H20.1398Z" fill="white"/>
</svg>
