<svg width="27" height="27" viewBox="0 0 27 27" fill="none" xmlns="http://www.w3.org/2000/svg">
<path d="M13.2152 26.4304C20.5137 26.4304 26.4304 20.5137 26.4304 13.2152C26.4304 5.91664 20.5137 0 13.2152 0C5.91664 0 0 5.91664 0 13.2152C0 20.5137 5.91664 26.4304 13.2152 26.4304Z" fill="#0971BD"/>
<path fill-rule="evenodd" clip-rule="evenodd" d="M7.04785 9.45731C7.04785 9.45731 12.3667 12.4735 13.3991 12.4735C14.4811 12.4735 19.7424 9.51493 19.7424 9.51493L19.7508 8.98632C19.7508 8.40274 19.2772 7.92911 18.692 7.92911H8.10612C7.52148 7.92911 7.04785 8.40274 7.04785 8.98632V9.45731ZM19.7425 11.1008C19.7425 11.1008 14.531 13.9272 13.3992 13.9272C12.3668 13.9272 7.05592 11.1008 7.05645 11.1008L7.04799 17.4441C7.04799 18.0276 7.52215 18.5013 8.10627 18.5013H18.6922C19.2773 18.5013 19.751 18.0276 19.751 17.4441L19.7425 11.1008Z" fill="white"/>
</svg>
