<svg width="27" height="27" viewBox="0 0 27 27" fill="none" xmlns="http://www.w3.org/2000/svg">
<path d="M13.2152 26.4304C20.5137 26.4304 26.4304 20.5137 26.4304 13.2152C26.4304 5.91664 20.5137 0 13.2152 0C5.91664 0 0 5.91664 0 13.2152C0 20.5137 5.91664 26.4304 13.2152 26.4304Z" fill="#FF5700"/>
<path fill-rule="evenodd" clip-rule="evenodd" d="M22.9076 13.0432C22.9076 11.8346 21.92 10.8511 20.7058 10.8511C20.1505 10.8511 19.6438 11.0588 19.2561 11.3978C17.8766 10.5155 16.0528 9.94143 14.0332 9.84092L15.0952 6.4989L17.9928 7.17824C18.0254 8.1518 18.8289 8.93464 19.8149 8.93464C20.8212 8.93464 21.64 8.11966 21.64 7.11759C21.64 6.11552 20.821 5.30054 19.8149 5.30054C19.0839 5.30054 18.4539 5.7315 18.1625 6.35039L14.9064 5.5877C14.6907 5.53734 14.4716 5.66099 14.4055 5.87143L13.1483 9.82785C10.998 9.86985 9.04717 10.448 7.58521 11.3689C7.20185 11.0466 6.707 10.8511 6.16759 10.8511C4.95338 10.8513 3.96582 11.8346 3.96582 13.0432C3.96582 13.8128 4.36704 14.4893 4.97103 14.8802C4.94025 15.0765 4.92367 15.2754 4.92367 15.4766C4.92367 18.5936 8.72494 21.1296 13.398 21.1296C18.0706 21.1296 21.8723 18.5936 21.8723 15.4766C21.8723 15.2899 21.858 15.1054 21.8316 14.9228C22.4741 14.5405 22.9076 13.8423 22.9076 13.0432ZM19.815 6.14529C20.3537 6.14529 20.792 6.58182 20.792 7.11821C20.792 7.65461 20.3537 8.09092 19.815 8.09092C19.276 8.09092 18.8377 7.65461 18.8377 7.11821C18.8377 6.58182 19.276 6.14529 19.815 6.14529ZM6.16702 11.6954C5.42076 11.6954 4.81355 12.3002 4.81355 13.0432C4.81355 13.4182 4.96831 13.7574 5.21778 14.002C5.53656 13.2161 6.1018 12.4971 6.85711 11.8862C6.65456 11.7659 6.41908 11.6954 6.16702 11.6954ZM21.0239 15.4771C21.0239 18.1282 17.6023 20.2855 13.3977 20.2855C9.19241 20.2855 5.77148 18.1284 5.77148 15.4771C5.77148 15.3836 5.77665 15.2915 5.78483 15.1995C5.81044 14.9177 5.87588 14.6421 5.97554 14.3751C6.23405 13.6829 6.72998 13.0477 7.40736 12.5062C7.62412 12.3328 7.85895 12.1691 8.11036 12.0163C9.48256 11.1825 11.3462 10.6682 13.3977 10.6682C15.4789 10.6682 17.3677 11.197 18.7444 12.0523C18.9965 12.2085 19.2307 12.3761 19.4464 12.5534C20.0968 13.0867 20.5723 13.7086 20.8231 14.3848C20.9219 14.6526 20.9873 14.9284 21.0119 15.2109C21.0194 15.2994 21.0239 15.3877 21.0239 15.4771ZM19.9707 11.9134C20.7256 12.5321 21.2895 13.2583 21.5993 14.0523C21.8806 13.8054 22.0592 13.445 22.0597 13.0432C22.0597 12.3 21.4525 11.6954 20.706 11.6954C20.4348 11.6954 20.1825 11.776 19.9707 11.9134Z" fill="white"/>
<path d="M11.9038 14.4605C11.9038 13.7486 11.3239 13.1514 10.6087 13.1514C9.89362 13.1514 9.29395 13.7486 9.29395 14.4605C9.29395 15.1722 9.89384 15.7502 10.6087 15.7502C11.3239 15.7493 11.9038 15.1722 11.9038 14.4605Z" fill="white"/>
<path d="M16.2835 13.151C15.5684 13.151 14.9668 13.748 14.9668 14.4599C14.9668 15.1721 15.5684 15.7496 16.2835 15.7496C16.9987 15.7496 17.579 15.1725 17.579 14.4599C17.5786 13.7476 16.9987 13.151 16.2835 13.151Z" fill="white"/>
<path d="M15.9172 17.5862C15.4374 18.0632 14.6296 18.2949 13.4459 18.2949C13.4423 18.2949 13.4391 18.2959 13.4356 18.2959C13.432 18.2959 13.4289 18.2949 13.4255 18.2949C12.2416 18.2949 11.4336 18.0632 10.9545 17.5862C10.7889 17.4211 10.5203 17.4211 10.3548 17.5862C10.189 17.7514 10.189 18.0186 10.3548 18.183C11.0007 18.8263 12.0053 19.1394 13.4255 19.1394C13.4292 19.1394 13.4322 19.1381 13.4356 19.1381C13.4391 19.1381 13.4423 19.1394 13.4459 19.1394C14.8659 19.1394 15.8707 18.8263 16.5173 18.1834C16.6833 18.0182 16.6833 17.7512 16.5177 17.5866C16.3518 17.4216 16.0832 17.4216 15.9172 17.5862Z" fill="white"/>
</svg>
