<svg width="27" height="27" viewBox="0 0 27 27" fill="none" xmlns="http://www.w3.org/2000/svg">
<path d="M13.2152 26.4304C20.5137 26.4304 26.4304 20.5137 26.4304 13.2152C26.4304 5.91664 20.5137 0 13.2152 0C5.91664 0 0 5.91664 0 13.2152C0 20.5137 5.91664 26.4304 13.2152 26.4304Z" fill="url(#paint0_linear_1063_8605)"/>
<path d="M10.7923 19.2721C10.3642 19.2721 10.4369 19.1105 10.2893 18.7028L9.03027 14.5594L18.7214 8.81012" fill="#C8DAEA"/>
<path d="M10.792 19.2721C11.1224 19.2721 11.2683 19.121 11.4528 18.9417L13.2148 17.2284L11.0169 15.903" fill="#A9C9DD"/>
<path d="M11.0175 15.9033L16.3432 19.838C16.951 20.1734 17.3896 19.9998 17.541 19.2738L19.7088 9.05814C19.9307 8.16829 19.3696 7.7647 18.7882 8.02865L6.05868 12.9371C5.18977 13.2856 5.19483 13.7704 5.90029 13.9864L9.16698 15.006L16.7297 10.2347C17.0867 10.0182 17.4144 10.1346 17.1455 10.3733" fill="url(#paint1_linear_1063_8605)"/>
<defs>
<linearGradient id="paint0_linear_1063_8605" x1="9.91271" y1="1.10215" x2="3.30512" y2="16.519" gradientUnits="userSpaceOnUse">
<stop stop-color="#37AEE2"/>
<stop offset="1" stop-color="#1E96C8"/>
</linearGradient>
<linearGradient id="paint1_linear_1063_8605" x1="11.5613" y1="14.0269" x2="12.9733" y2="18.5944" gradientUnits="userSpaceOnUse">
<stop stop-color="#EFF7FC"/>
<stop offset="1" stop-color="white"/>
</linearGradient>
</defs>
</svg>
