<svg width="27" height="27" viewBox="0 0 27 27" fill="none" xmlns="http://www.w3.org/2000/svg">
<path d="M0 13.2152C0 5.91664 5.91664 0 13.2152 0C20.5137 0 26.4304 5.91664 26.4304 13.2152C26.4304 20.5137 20.5137 26.4304 13.2152 26.4304C5.91664 26.4304 0 20.5137 0 13.2152Z" fill="#55ACEE"/>
<path d="M12.8192 10.7415L12.847 11.1988L12.3848 11.1428C10.7024 10.9281 9.23265 10.2002 7.98474 8.97772L7.37465 8.37113L7.21751 8.81907C6.88473 9.81761 7.09734 10.8721 7.79062 11.5814C8.16037 11.9733 8.07718 12.0293 7.43936 11.796C7.21751 11.7214 7.02339 11.6654 7.0049 11.6934C6.9402 11.7587 7.16205 12.6079 7.33768 12.9439C7.57802 13.4105 8.06793 13.8678 8.60407 14.1384L9.05702 14.353L8.52088 14.3624C8.00323 14.3624 7.98474 14.3717 8.0402 14.5677C8.22508 15.1743 8.95533 15.8182 9.76879 16.0982L10.3419 16.2941L9.84274 16.5928C9.10323 17.022 8.23432 17.2647 7.36541 17.2833C6.94944 17.2927 6.60742 17.33 6.60742 17.358C6.60742 17.4513 7.73516 17.9739 8.39147 18.1792C10.3604 18.7858 12.6991 18.5245 14.4554 17.4886C15.7033 16.7514 16.9512 15.2863 17.5335 13.8678C17.8478 13.1119 18.1621 11.7307 18.1621 11.0681C18.1621 10.6388 18.1898 10.5828 18.7075 10.0696C19.0125 9.77095 19.2991 9.44433 19.3546 9.35101C19.447 9.17369 19.4377 9.17369 18.9663 9.33234C18.1806 9.61231 18.0697 9.57498 18.4579 9.15503C18.7445 8.8564 19.0865 8.31514 19.0865 8.15649C19.0865 8.12849 18.9478 8.17515 18.7907 8.25914C18.6243 8.35247 18.2545 8.49245 17.9772 8.57644L17.4781 8.73508L17.0251 8.42712C16.7755 8.25914 16.4243 8.0725 16.2394 8.01651C15.768 7.88586 15.047 7.90452 14.6218 8.05384C13.4663 8.47378 12.736 9.55631 12.8192 10.7415Z" fill="white"/>
</svg>
