<svg width="27" height="27" viewBox="0 0 27 27" fill="none" xmlns="http://www.w3.org/2000/svg">
<path d="M13.2152 26.4304C20.5137 26.4304 26.4304 20.5137 26.4304 13.2152C26.4304 5.91664 20.5137 0 13.2152 0C5.91664 0 0 5.91664 0 13.2152C0 20.5137 5.91664 26.4304 13.2152 26.4304Z" fill="#25D366"/>
<path fill-rule="evenodd" clip-rule="evenodd" d="M13.6508 20.5675H13.6475C12.3323 20.5671 11.0401 20.2371 9.89229 19.6111L5.72656 20.7038L6.84138 16.6318C6.15371 15.44 5.79186 14.0882 5.79245 12.7032C5.79417 8.37056 9.31934 4.84558 13.6507 4.84558C15.7528 4.84649 17.7259 5.66485 19.2095 7.15021C20.6931 8.63549 21.5097 10.6098 21.5089 12.7094C21.5071 17.0411 17.9834 20.5658 13.6508 20.5675ZM10.0859 18.1885L10.3244 18.33C11.3272 18.9251 12.4767 19.24 13.6487 19.2405H13.6513C17.2512 19.2405 20.1812 16.3104 20.1826 12.709C20.1833 10.9638 19.5046 9.32286 18.2715 8.08829C17.0383 6.85372 15.3984 6.17349 13.6539 6.17288C10.0512 6.17288 7.12121 9.10262 7.11978 12.7037C7.11927 13.9379 7.46458 15.1398 8.11839 16.1796L8.27368 16.4268L7.61387 18.8369L10.0859 18.1885ZM17.341 14.4013C17.478 14.4675 17.5705 14.5122 17.61 14.5781C17.659 14.6599 17.659 15.0531 17.4955 15.5118C17.3318 15.9704 16.5474 16.389 16.1701 16.4454C15.8319 16.496 15.4038 16.5171 14.9334 16.3676C14.6482 16.2771 14.2825 16.1563 13.8141 15.954C11.9733 15.1591 10.7294 13.3751 10.4943 13.0379C10.4778 13.0143 10.4663 12.9978 10.4599 12.9892L10.4583 12.9871C10.3544 12.8484 9.65812 11.9195 9.65812 10.958C9.65812 10.0536 10.1024 9.57952 10.3069 9.36132C10.3209 9.34637 10.3338 9.33262 10.3453 9.32001C10.5253 9.12344 10.738 9.07429 10.8689 9.07429C10.9998 9.07429 11.1308 9.0755 11.2452 9.08125C11.2594 9.08196 11.274 9.08187 11.2892 9.08178C11.4036 9.08111 11.5463 9.08027 11.687 9.4183C11.7412 9.54839 11.8204 9.74126 11.9039 9.94468C12.0729 10.356 12.2596 10.8104 12.2924 10.8762C12.3415 10.9745 12.3742 11.0891 12.3088 11.2202C12.2989 11.2399 12.2899 11.2584 12.2812 11.2761C12.232 11.3765 12.1959 11.4503 12.1124 11.5477C12.0796 11.5861 12.0457 11.6273 12.0118 11.6686C11.9443 11.7509 11.8767 11.8332 11.8179 11.8918C11.7196 11.9897 11.6173 12.0959 11.7318 12.2925C11.8463 12.489 12.2404 13.132 12.8241 13.6527C13.4516 14.2123 13.9969 14.4489 14.2733 14.5688C14.3273 14.5922 14.371 14.6112 14.4031 14.6272C14.5994 14.7255 14.7139 14.7091 14.8285 14.5781C14.943 14.447 15.3193 14.0047 15.4502 13.8082C15.5811 13.6117 15.712 13.6444 15.892 13.7099C16.072 13.7755 17.0373 14.2504 17.2337 14.3487C17.272 14.3679 17.3078 14.3852 17.341 14.4013Z" fill="#FDFDFD"/>
</svg>
