<svg width="84" height="92" viewBox="0 0 84 92" fill="none" xmlns="http://www.w3.org/2000/svg">
<path fill-rule="evenodd" clip-rule="evenodd" d="M20.9996 0.000717164C14.0408 0.000717164 8.39957 5.61742 8.39957 12.546V20.9098H4.19978C1.88011 20.9098 0 22.7817 0 25.0913C0 27.4009 1.88011 29.2735 4.19978 29.2735H8.39957V41.8188H4.19978C1.88011 41.8188 0 43.6908 0 46.0004C0 48.3099 1.88011 50.1819 4.19978 50.1819H8.39957V62.7272H4.19978C1.88011 62.7272 0 64.5998 0 66.9094C0 69.219 1.88011 71.0909 4.19978 71.0909H8.39957V79.4547C8.39957 86.3833 14.0408 92 20.9996 92H71.3999C78.3595 92 84 86.3833 84 79.4547V12.5453C84 5.61671 78.3595 0 71.3999 0L20.9996 0.000717164ZM16.7999 12.546C16.7999 10.2364 18.68 8.36448 20.9996 8.36448H71.3999C73.7196 8.36448 75.6004 10.2364 75.6004 12.546V79.4554C75.6004 81.765 73.7196 83.637 71.3999 83.637H20.9996C18.68 83.637 16.7999 81.765 16.7999 79.4554V12.546ZM46.1994 25.0913C43.8797 25.0913 41.9996 26.964 41.9996 29.2735C41.9996 31.5831 43.8797 33.4551 46.1994 33.4551C48.5191 33.4551 50.3999 31.5831 50.3999 29.2735C50.3999 26.964 48.5191 25.0913 46.1994 25.0913ZM33.5993 29.2735C33.5993 22.345 39.2406 16.7283 46.1994 16.7283C53.159 16.7283 58.7995 22.345 58.7995 29.2735C58.7995 36.2021 53.159 41.8188 46.1994 41.8188C39.2406 41.8188 33.5993 36.2021 33.5993 29.2735ZM37.7999 50.1812C30.841 50.1812 25.1998 55.7979 25.1998 62.7265C25.1998 69.6558 30.841 75.2718 37.7999 75.2718H54.5997C61.5586 75.2718 67.1998 69.6558 67.1998 62.7265C67.1998 55.7979 61.5586 50.1812 54.5997 50.1812H37.7999ZM33.5993 62.7265C33.5993 60.4169 35.4802 58.5449 37.7999 58.5449H54.5997C56.9194 58.5449 58.7995 60.4169 58.7995 62.7265C58.7995 65.036 56.9194 66.9087 54.5997 66.9087H37.7999C35.4802 66.9087 33.5993 65.036 33.5993 62.7265Z" fill="white"/>
</svg>
